<svg fill="none" height="26" viewBox="0 0 116 26" width="116" xmlns="http://www.w3.org/2000/svg"><path d="m.996094 14.7051c0-.1758.019536-.3223.058596-.4395.05859-.1172.11719-.2246.17578-.3222.07812-.1172.13672-.2246.17578-.3223.05859-.1172.08789-.2539.08789-.4102 0-.5859-.03906-1.1621-.11719-1.7285-.07812-.5859-.16601-1.1719-.26367-1.75779-.07812-.58594-.156249-1.16211-.234374-1.72852-.078125-.58593-.117187-1.17187-.117187-1.75781 0-.41016.068359-.69336.205078-.84961.156253-.15625.449223-.23437.878903-.23437.33203 0 .60547.08789.82032.26367.23437.15625.45898.36133.67382.61523h.14649c.13672-.07812.39062-.22461.76172-.43945.37109-.21484.76172-.43945 1.17187-.67383.42969-.23437.83008-.44922 1.20117-.64453.39063-.21484.66407-.37109.82032-.46875.33203-.17578.65429-.32226.96679-.43945s.6543-.17578 1.02539-.17578c.19532 0 .3418.02929.43946.08789.09765.05859.14645.21484.14645.46875v.05859c-.07809.39063-.21481.71289-.41012.9668-.19532.23437-.42969.43945-.70313.61523-.25391.17578-.52734.33203-.82031.46875-.27344.11719-.53711.25391-.79102.41016-.58594.41015-1.08398.74219-1.49414.99609-.39062.25391-.73242.45899-1.02539.61524-.27344.15625-.49805.29297-.67383.41015-.15625.09766-.2832.20508-.38086.32227 0 .05859-.00976.17578-.02929.35156v.29297c0 .58594.00976 1.17184.02929 1.75784.01953.5859.13672 1.1523.35157 1.6992l6.82613-3.22267c.1368-.05859.2344-.08789.293-.08789.0781-.01953.1856-.02929.3223-.02929.0781 0 .2051.02929.3808.08789.1758.05859.2637.13672.2637.23437 0 .44919-.1562.84959-.4687 1.20119-.293.3515-.6543.6738-1.084.9668-.4297.2929-.87894.5469-1.34769.7617s-.8789.4102-1.23047.5859c-.07812.0391-.16601.0684-.26367.0879-.09765.0196-.16601.0684-.20508.1465l-3.07617 1.6113c-.09765.0586-.15625.1172-.17578.1758v.2051.1465c.01953.0586.0293.0976.0293.1172l.61523 4.8047c.0586.4687-.05859.8398-.35156 1.1132-.27344.2735-.61523.4102-1.02539.4102-.07813 0-.17578-.0098-.29297-.0293-.11719-.0391-.23437-.0781-.35156-.1172-.11719-.0586-.22461-.1269-.32227-.2051-.07812-.0976-.12695-.205-.14648-.3222l-.73242-5.7715c0-.0781-.03907-.1465-.11719-.2051-.07813-.0586-.16602-.1172-.26367-.1758-.07813-.0586-.15625-.1269-.23438-.2051-.07812-.0781-.117186-.1757-.117186-.2929zm13.798806 6.6504c-.1953-.7813-.3418-1.5137-.4394-2.1973-.0977-.7031-.166-1.4453-.2051-2.2266-.0195-.4492-.0195-.83 0-1.1425.0195-.3321-.0195-.6934-.1172-1.084-.0195-.0781-.0684-.1367-.1465-.1758-.0586-.0391-.1269-.0879-.2051-.1465-.0586-.0586-.1171-.1269-.1757-.2051-.0586-.0976-.0879-.2441-.0879-.4394 0-.1563.0293-.293.0879-.4102.0781-.1172.1464-.2246.205-.3222.0782-.1172.1465-.2344.2051-.3516.0781-.1367.1172-.293.1172-.4688v-.4394c0-.1953-.0195-.5273-.0586-.9961s-.0781-.9668-.1172-1.49414c-.039-.52734-.0781-1.02539-.1172-1.49414-.0195-.46875-.039-.79102-.0586-.9668-.0195-.33203-.1074-.625-.2636-.8789-.1563-.25391-.2344-.54688-.2344-.87891 0-.625.1269-1.06445.3809-1.31836.2539-.25391.7031-.38086 1.3476-.38086.1367 0 .2441.05859.3223.17578.0976.11719.2051.17578.3222.17578h.1172c.0586-.01953.1465-.03906.2637-.05859.1172-.03906.1953-.05859.2344-.05859 1.6406-.70313 2.9199-1.25 3.8379-1.64063.9179-.39062 1.6113-.67383 2.08-.84961.4688-.17578.7813-.273436.9375-.292968.1758-.019531.3223 0 .4395.058594.2344.039063.3906.117188.4687.234374.0977.09766.1465.25391.1465.46875 0 .19531-.0293.39063-.0879.58594s-.1953.3418-.4101.43945l-3.8379 1.8457-.1172.11719-3.2227 1.37696c-.1171.03906-.1855.13671-.205.29296-.0196.15625-.0293.28321-.0293.38086 0 .15625.0195.43946.0586.84961.039.41016.0781.83985.1172 1.28907.039.42968.0781.82031.1171 1.17187.0586.33201.0977.49801.1172.49801h.0293s.0098-.0097.0293-.0293c.2149-.1562.5567-.41988 1.0254-.79098.4688-.39062.9473-.78124 1.4356-1.17187.4882-.39063.9179-.73242 1.289-1.02539.3711-.3125.5664-.46875.586-.46875.2148 0 .4101.10742.5859.32227.1758.21484.2637.43945.2637.67382 0 .23438-.0489.49805-.1465.79102-.0977.29297-.2539.51758-.4688.67383l-4.5703 4.07225v.1465c0 .0977-.0097.2051-.0293.3223v.3808.293c0 .7031.0489 1.4062.1465 2.1094.0977.6836.1465 1.3769.1465 2.08h.1172c.0195 0 .1074-.0781.2637-.2343.1562-.1563.2734-.2832.3515-.3809.0391-.0586.127-.1855.2637-.3809.1562-.1953.4101-.5175.7617-.9667.3516-.4493.8203-1.045 1.4063-1.7872.5859-.7421 1.3378-1.6796 2.2558-2.8125.0781-.0781.1856-.1953.3223-.3515.1562-.1563.2539-.2344.293-.2344.0585-.0586.1757-.0781.3515-.0586.1953 0 .332.0195.4102.0586.0976.0391.2246.1465.3808.3223.1563.1758.2344.3418.2344.498 0 .2344-.1269.5469-.3809.9375-.2343.3711-.5175.7617-.8496 1.1719-.332.4102-.664.8105-.9961 1.2012-.332.3711-.5859.6738-.7617.9082-.2734.4297-.6054.957-.9961 1.582-.3711.6055-.7812 1.1914-1.2304 1.7578-.4493.5469-.9473 1.0254-1.4942 1.4356-.5273.3906-1.0937.5859-1.6992.5859-.293 0-.5078-.0488-.6445-.1465-.1172-.0976-.2735-.2734-.4688-.5273zm10.8106-1.2012c0-1.1719.0781-2.334.2343-3.4863.1563-1.1524.293-2.3047.4102-3.4571 0-.0586.0098-.1855.0293-.3808.0195-.2149.0391-.4395.0586-.6739.0391-.2343.0683-.4492.0879-.6445.039-.2148.0586-.3515.0586-.4101v-.1172l1.2304-9.14065c-.039-.39063.0196-.73242.1758-1.025391.1758-.3125.4883-.46875.9375-.46875.4883-.058593.8887.009766 1.2012.205078.332.175782.6055.410157.8203.703123.2149.29297.3906.61524.5274.9668.1367.35156.2832.67383.4394.9668.0977.27343.2148.5957.3516.96679.1562.3711.332.83985.5273 1.40625.2149.56641.459 1.25977.7324 2.08008.293.82031.625 1.81641.9961 2.98827l.1172.1172c.1367-.0781.3906-.2051.7617-.3809.3907-.1757.7911-.3613 1.2012-.5566.4297-.19531.8301-.38086 1.2012-.55664s.6347-.29297.791-.35156c.0195-.03907.0684-.06836.1465-.08789.0976-.03907.166-.06836.2051-.08789h.0585c.1954 0 .3418.07812.4395.23437.0977.13672.1465.27344.1465.41016 0 .21484-.0488.40039-.1465.55664-.0977.15621-.2148.30271-.3516.43941-.1171.1172-.2539.2344-.4101.3516-.1367.1172-.2442.2441-.3223.3809l-2.9004 1.4648c-.0781.0977-.1172.1758-.1172.2344 0 .1562.0782.4004.2344.7324.1758.332.3125.5957.4102.791.0586.1172.1562.332.2929.6446.1368.3124.2832.6347.4395.9667.1562.3321.3027.6543.4394.9668.1563.293.2637.4981.3223.6153v.0879c0 .7031-.3516 1.0547-1.0547 1.0547-.2148 0-.4394-.0196-.6738-.0586-.2344-.0586-.4102-.2051-.5273-.4395l-1.9629-4.1894h-.2637c-.7422.5664-1.5332 1.123-2.3731 1.6699-.8398.5469-1.6992 1.0156-2.5781 1.4062-.1367.7032-.2246 1.416-.2637 2.1387-.0195.7227-.0097 1.4453.0293 2.168-.1562.2148-.3125.3808-.4687.498-.1563.0977-.3711.1465-.6445.1465-.2735 0-.4786-.0586-.6153-.1758-.1367-.1367-.2343-.293-.2929-.4687-.0586-.1953-.0879-.4004-.0879-.6153 0-.2148 0-.4101 0-.5859zm2.6074-5.6836c.5859-.2344 1.1523-.5469 1.6992-.9375.5664-.3906 1.1035-.752 1.6113-1.084.0586-.039.127-.0781.2051-.1172.0977-.039.1856-.0879.2637-.1465.0781-.0585.1758-.1269.293-.205v-.2344l-2.6954-7.67579-.1171-.11719c-.0586.11719-.1368.44922-.2344.9961-.0781.54687-.1758 1.25976-.293 2.13867-.0976.85938-.2148 1.85547-.3515 2.98831-.1172 1.1328-.2442 2.3437-.3809 3.6328zm17.959-5.33203c-.0196-.15625-.0489-.35156-.0879-.58594-.0195-.2539-.0488-.48828-.0879-.70312-.0195-.23438-.0391-.42969-.0586-.58594s-.0293-.23437-.0293-.23437h-.2344l-3.3398.99609c-.0977.15625-.2637.23438-.4981.23438-.2148 0-.3808 0-.498 0-.2734 0-.5567-.11719-.8496-.35157-.2735-.2539-.4102-.52734-.4102-.82031 0-.21484.0684-.41992.2051-.61523.1563-.21485.3418-.36133.5566-.43946l4.7168-1.49414c.0586-.21484.1661-.42968.3223-.64453.1758-.23437.4004-.35156.6738-.35156.2735 0 .4981.06836.6739.20508.1953.13672.4101.24414.6445.32226.1758-.01953.4687-.07812.8789-.17578s.8398-.19531 1.2891-.29297c.4687-.11719.9082-.22461 1.3183-.32226.4102-.09766.6934-.16602.8496-.20508.2344-.03906.4102-.08789.5274-.14649.1172-.05859.3027-.08789.5566-.08789.332 0 .6738.09766 1.0254.29297s.5274.48828.5274.87891c0 .2539-.0879.47851-.2637.67383-.1758.17578-.3906.29297-.6446.35156l-5.5664 1.40625v.26367c0 .60547.0489 1.20117.1465 1.78711.1172.58594.1563 1.17188.1172 1.75786l.9961 9.0527v.6445c0 .2344-.0098.4785-.0293.7324 0 .2344-.0391.4493-.1172.6446-.0586.1953-.166.3613-.3222.498-.1563.1172-.3907.1758-.7032.1758-.2343 0-.4882-.0977-.7617-.293-.2539-.1953-.3906-.4297-.4101-.7031l-1.1133-11.63085zm15.4687 8.73043c-.2148.4102-.4785.8692-.791 1.377-.293.5078-.6445.9961-1.0547 1.4648-.3906.4493-.8203.8301-1.289 1.1426-.4493.3125-.9375.4688-1.4649.4688-.664 0-1.1914-.1953-1.582-.586-.3906-.3906-.6934-.8691-.9082-1.4355-.1953-.586-.3223-1.1914-.3809-1.8164-.0586-.6446-.0879-1.2207-.0879-1.7285v-.7618c.0196-.1562.0391-.3906.0586-.7031.0391-.3125.0782-.664.1172-1.0547.0586-.4101.1074-.8301.1465-1.2597.0391-.4493.0781-.8692.1172-1.2598.0586-.4102.0976-.7715.1172-1.084.039-.3125.0683-.5469.0879-.70311-.0782-.19532-.1075-.39063-.0879-.58594.039-.21484.1074-.40039.2051-.55664.1171-.17578.2636-.3125.4394-.41016.1758-.11718.3711-.17578.5859-.17578.0586 0 .1563.01953.293.0586.1563.03906.3125.09765.4688.17578.1562.07812.2929.16601.4101.26367.1172.07812.1758.15625.1758.23437v1.11331c-.2734 2.1093-.4492 3.789-.5273 5.039-.0782 1.25-.1075 2.2266-.0879 2.9297.0195.6836.0781 1.1524.1757 1.4063.0977.2539.1954.4297.293.5273.2344.0977.459.127.6738.0879.2344-.0586.5079-.2441.8204-.5566s.6835-.791 1.1132-1.4356c.4493-.664.9864-1.5429 1.6114-2.6367.039-.0586.0781-.166.1171-.3223.0586-.1562.0977-.2636.1172-.3222-.039-1.2891-.0488-2.5879-.0293-3.8965.0391-1.30861.0879-2.60743.1465-3.8965.0782-.19531.2051-.35156.3809-.46875.1758-.11718.3613-.17578.5566-.17578.0781 0 .1953.0293.3516.08789.1562.0586.3125.14649.4687.26367.1563.09766.293.20508.4102.32227s.1758.23437.1758.35156v8.64254c.1367.8789.2441 1.7676.3222 2.6661.0782.8789.1856 1.7578.3223 2.6367 0 .0976.0195.3027.0586.6152.0586.293.1172.6152.1758.9668s.1074.6738.1465.9668c.0586.293.0976.4785.1172.5566v.3516c0 .7031-.3809 1.084-1.1426 1.1426-.3321.039-.6153-.1074-.8496-.4395-.2149-.3125-.3907-.7324-.5274-1.2597-.1367-.5078-.2539-1.084-.3515-1.7285-.0782-.6446-.1465-1.2696-.2051-1.875-.0586-.6055-.1172-1.1524-.1758-1.6407-.0586-.5078-.1367-.8691-.2344-1.084zm5.8887-2.666c-.1172-.2539-.2148-.459-.293-.6152-.0586-.1563-.0879-.3418-.0879-.5567 0-.1757.0196-.332.0586-.4687.0586-.1563.0879-.3223.0879-.498 0-.4297-.0195-.8301-.0586-1.2012-.0195-.3711-.0488-.7813-.0879-1.2305-.0195-.0586-.0879-.1074-.205-.1465-.1172-.039-.2442-.0879-.3809-.1465-.1367-.0781-.2637-.1855-.3809-.3222-.0976-.13674-.1464-.33205-.1464-.58596 0-.23437.0488-.42969.1464-.58594.1172-.17578.2344-.33203.3516-.46875.1172-.15625.2246-.3125.3223-.46875.1172-.17578.1757-.38086.1757-.61523 0-.09766-.0097-.27344-.0292-.52735-.0196-.27343-.0391-.55664-.0586-.8496 0-.29297-.0098-.56641-.0293-.82032 0-.27343 0-.45898 0-.55664v-.05859-.0586c.0781-.17578.1367-.32226.1757-.43945.0586-.11719.1172-.20508.1758-.26367s.1367-.09766.2344-.11719c.0977-.03906.2246-.05859.3809-.05859.4101 0 .7129.07812.9082.23437s.332.3418.4101.55664c.0781.19532.127.38086.1465.55664.0195.17579.0684.27344.1465.29297l2.1094-1.8457h.1172c.6835-.44922 1.4062-.79102 2.1679-1.02539.7617-.25391 1.5625-.38086 2.4024-.38086.2539 0 .5566.0293.9082.08789.3711.05859.7129.16602 1.0254.32227.332.13672.6054.32226.8203.55664.2343.23437.3515.52734.3515.8789 0 .39063-.0488.79102-.1465 1.20118-.0976.41015-.2343.82031-.4101 1.23046-.1563.39063-.3516.77149-.5859 1.14258-.2149.35156-.4493.6543-.7032.90821-.0976.21484-.7226.76171-1.875 1.64062-1.1523.87891-2.8711 2.18751-5.1562 3.92581l14.0625.8789c.1953.0195.459.039.791.0586.3516 0 .6836.0293.9961.0879.332.0586.6152.1757.8496.3515.2344.1563.3516.4004.3516.7324 0 .1758-.0293.3223-.0879.4395-.0391.0977-.0977.1855-.1758.2637-.0586.0586-.1367.1172-.2344.1758-.0781.0585-.1562.1367-.2344.2343h-.498-.4981c-.3906-.039-.8007-.0879-1.2304-.1465-.4102-.0586-.8985-.1269-1.4649-.205-.5468-.0782-1.1914-.1563-1.9336-.2344-.7421-.0781-1.6308-.1465-2.666-.2051-1.0351-.0586-2.2461-.1074-3.6328-.1465-1.3672-.039-2.959-.0586-4.7754-.0586-.0195 0-.0488.0293-.0879.0879-.0195.0586-.0293.1074-.0293.1465 0 .7422.0586 1.4746.1758 2.1973.1367.7031.2051 1.4062.2051 2.1093 0 .1368-.0195.293-.0586.4688-.0195.1562-.0684.3125-.1465.4687-.0781.1368-.1758.254-.293.3516-.1171.0977-.2636.1465-.4394.1465-.1172 0-.2539-.0195-.4102-.0586-.1562-.0586-.3125-.1367-.4687-.2344-.1367-.0976-.2637-.2051-.3809-.3222-.1172-.1172-.1855-.2539-.2051-.4102zm1.9629-6.47458c0 .48828.0098.94726.0293 1.37698.0195.4297.0488.8984.0879 1.4062h.0879c.0195 0 .0683-.0195.1465-.0586.0781-.039.2734-.1562.5859-.3515.3125-.2149.791-.5371 1.4355-.9668.6446-.44925 1.5528-1.07425 2.7246-1.87503.2344-.13672.4883-.3711.7618-.70313.2734-.33203.5273-.69336.7617-1.08398.2344-.39063.4297-.77149.5859-1.14258.1563-.39063.2344-.71289.2344-.9668 0-.19531-.0977-.29297-.293-.29297-.1758 0-.332 0-.4687 0-.293 0-.625.04883-.9961.14649-.3711.09765-.8203.29297-1.3477.58593-.5078.29297-1.123.71289-1.8457 1.25977-.7031.54687-1.5332 1.2793-2.4902 2.19727zm20.5957 12.62698c-.1953-.7813-.3418-1.5137-.4395-2.1973-.0976-.7031-.166-1.4453-.205-2.2266-.0196-.4492-.0196-.83 0-1.1425.0195-.3321-.0196-.6934-.1172-1.084-.0196-.0781-.0684-.1367-.1465-.1758-.0586-.0391-.127-.0879-.2051-.1465-.0586-.0586-.1172-.1269-.1758-.2051-.0586-.0976-.0879-.2441-.0879-.4394 0-.1563.0293-.293.0879-.4102.0782-.1172.1465-.2246.2051-.3222.0781-.1172.1465-.2344.2051-.3516.0781-.1367.1172-.293.1172-.4688v-.4394c0-.1953-.0196-.5274-.0586-.9961-.0391-.4688-.0781-.9668-.1172-1.49414s-.0781-1.02539-.1172-1.49414c-.0195-.46875-.0391-.79102-.0586-.9668-.0195-.33203-.1074-.625-.2637-.8789-.1562-.25391-.2343-.54688-.2343-.87891 0-.625.1269-1.06445.3808-1.31836s.7031-.38086 1.3477-.38086c.1367 0 .2441.05859.3222.17578.0977.11719.2051.17578.3223.17578h.1172c.0586-.01953.1465-.03906.2637-.05859.1172-.03906.1953-.05859.2343-.05859 1.6407-.70313 2.92-1.25 3.8379-1.64063.918-.39062 1.6114-.67383 2.0801-.84961.4688-.17578.7813-.273436.9375-.292968.1758-.019531.3223 0 .4395.058594.2343.039063.3906.117188.4687.234374.0977.09766.1465.25391.1465.46875 0 .19531-.0293.39063-.0879.58594s-.1953.3418-.4101.43945l-3.8379 1.8457-.1172.11719-3.2227 1.37696c-.1172.03906-.1855.13671-.2051.29296-.0195.15625-.0293.28321-.0293.38086 0 .15625.0196.43946.0586.84961.0391.41016.0782.83985.1172 1.28907.0391.42968.0782.82031.1172 1.17187.0586.33201.0977.49801.1172.49801h.0293s.0098-.0097.0293-.0293c.2148-.1562.5566-.41988 1.0254-.79098.4687-.39062.9472-.78125 1.4355-1.17187.4883-.39063.918-.73242 1.2891-1.02539.3711-.3125.5664-.46875.5859-.46875.2149 0 .4102.10742.586.32226.1757.21485.2636.43946.2636.67383 0 .23438-.0488.49805-.1464.79102-.0977.29297-.2539.51758-.4688.67383l-4.5703 4.07225v.1465c0 .0977-.0098.2051-.0293.3223v.3808.293c0 .7031.0488 1.4062.1465 2.1094.0976.6836.1465 1.3769.1465 2.08h.1172c.0195 0 .1074-.0781.2636-.2343.1563-.1563.2735-.2832.3516-.3809.0391-.0586.1269-.1855.2637-.3809.1562-.1953.4101-.5175.7617-.9667.3515-.4493.8203-1.045 1.4062-1.7872.586-.7421 1.3379-1.6796 2.2559-2.8125.0781-.0781.1855-.1953.3223-.3515.1562-.1563.2539-.2344.2929-.2344.0586-.0586.1758-.0781.3516-.0586.1953 0 .332.0195.4101.0586.0977.0391.2247.1465.3809.3223s.2344.3418.2344.498c0 .2344-.127.5469-.3809.9375-.2344.3711-.5176.7617-.8496 1.1719-.332.4101-.6641.8105-.9961 1.2012-.332.3711-.5859.6738-.7617.9082-.2734.4297-.6055.957-.9961 1.582-.3711.6055-.7812 1.1914-1.2305 1.7578-.4492.5469-.9472 1.0254-1.4941 1.4356-.5274.3906-1.0938.5859-1.6992.5859-.293 0-.5078-.0488-.6446-.1465-.1171-.0976-.2734-.2734-.4687-.5273zm15.1461-.4102c.313-.4297.655-.7519 1.026-.9668.39-.2148.781-.3906 1.172-.5273.41-.1367.81-.2637 1.201-.3809.41-.1367.81-.3516 1.201-.6445.215-.1172.518-.293.908-.5274.391-.2343.772-.4882 1.143-.7617.39-.293.722-.5762.996-.8496.293-.2734.439-.5078.439-.7031 0-.0195-.009-.0293-.029-.0293-.039 0-.059-.0098-.059-.0293l-.058-.0586c-.098-.0391-.254-.0879-.469-.1465s-.342-.0976-.381-.1172c-2.519-.2929-4.551-.5469-6.094-.7617-1.523-.2344-2.705-.4785-3.544-.7324-.821-.2539-1.368-.5469-1.641-.8789-.274-.3321-.41-.752-.41-1.2598 0-.1953.039-.4101.117-.6445s.166-.4688.264-.7031c.117-.23442.234-.44926.351-.64458.117-.19531.225-.35156.322-.46875.313-.39062.723-.74218 1.231-1.05468s1.055-.58594 1.641-.82032c.585-.23437 1.171-.43945 1.757-.61523.606-.17578 1.153-.33203 1.641-.46875.547-.03906 1.094-.16602 1.641-.38086.566-.23437 1.123-.39062 1.67-.46875.273 0 .498.10742.673.32227.176.21484.264.43945.264.67382 0 .33204-.068.58594-.205.76172-.117.15625-.283.28321-.498.38086-.195.07813-.42.14649-.674.20508-.254.03906-.508.08789-.762.14649-.156.03906-.371.09765-.644.17578-.274.05859-.547.12695-.82.20507-.274.07813-.518.14649-.733.20508-.215.0586-.342.09766-.381.11719-.605.25391-1.181.49805-1.728.73242-.528.21485-.996.43946-1.407.67383-.39.23441-.703.48831-.937.76171-.215.2539-.313.5371-.293.8496v.0293c.195.2735.635.4785 1.318.6152.684.1368 1.485.254 2.403.3516.937.0977 1.914.1953 2.929.293 1.036.0976 1.983.2441 2.842.4394.86.1953 1.572.459 2.139.791.566.3321.859.7813.879 1.3477 0 .2148-.049.4688-.147.7617-.078.293-.195.5176-.351.6739-.489.5468-1.075 1.1132-1.758 1.6992-.664.5859-1.387 1.1328-2.168 1.6406-.781.4883-1.592.9082-2.432 1.2598-.82.332-1.631.5273-2.431.5859-.274 0-.528-.0977-.762-.293-.234-.2148-.352-.4687-.352-.7617z" fill="#898989"/></svg>