<svg height="14.001" viewBox="0 0 15.999 14.001" width="15.999" xmlns="http://www.w3.org/2000/svg"><g transform="translate(-943.527 -298.308)"><path d="m951.521 311.605-6.374-6.316-.036-.036a3.769 3.769 0 0 1 .036-5.322 3.858 3.858 0 0 1 5.422 0l.6.594.352.349.352-.349.6-.6.036-.036a3.832 3.832 0 0 1 5.381.035l.058.057.019.018a3.735 3.735 0 0 1 -.072 5.28z" fill="#fff"/><path d="m955.183 298.308v1a3.313 3.313 0 0 0 -2.321.941l-.037.037-.6.594-.7.7-.7-.7-.6-.593a3.358 3.358 0 0 0 -4.72 0 3.267 3.267 0 0 0 -.03 4.615l.031.032 6.022 5.967 6.022-5.967a3.236 3.236 0 0 0 .091-4.544l-.1-.1a3.311 3.311 0 0 0 -2.355-.974v-1m0 0a4.319 4.319 0 0 1 3.062 1.267l.038.038.041.041a4.237 4.237 0 0 1 -.079 5.989l-6.726 6.665-6.726-6.665-.037-.038a4.264 4.264 0 0 1 .037-6.031 4.359 4.359 0 0 1 6.125 0l.6.6.6-.6.037-.037a4.317 4.317 0 0 1 3.025-1.237z" fill="#808080"/></g></svg>