<svg fill="none" height="27" viewBox="0 0 108 27" width="108" xmlns="http://www.w3.org/2000/svg"><path d="m5.06836 21.9453c.3125-.4297.6543-.7519 1.02539-.9668.39063-.2148.78125-.3906 1.17187-.5273.41016-.1367.81055-.2637 1.20118-.3809.41015-.1367.81054-.3515 1.20117-.6445.21484-.1172.51753-.293.90823-.5274.3906-.2343.7715-.4882 1.1426-.7617.3906-.2929.7226-.5762.996-.8496.293-.2734.4395-.5078.4395-.7031 0-.0195-.0098-.0293-.0293-.0293-.0391 0-.0586-.0098-.0586-.0293l-.0586-.0586c-.0976-.0391-.2539-.0879-.4687-.1465-.2149-.0586-.3418-.0976-.3809-.1172-2.51953-.2929-4.55078-.5469-6.09375-.7617-1.52343-.2344-2.70507-.4785-3.54492-.7324-.82031-.2539-1.36719-.5469-1.640624-.8789-.273437-.3321-.410156-.752-.410156-1.2598 0-.1953.039062-.4101.117188-.6445.078124-.2344.166015-.4688.263671-.7031.117188-.2344.234371-.4493.351561-.6446s.22461-.3515.32227-.4687c.3125-.39065.72265-.74221 1.23047-1.05471.50781-.3125 1.05468-.58594 1.64062-.82031.58594-.23438 1.17188-.43946 1.75781-.61524.60547-.17578 1.15235-.33203 1.64063-.46875.54687-.03906 1.09375-.16601 1.64062-.38086.56641-.23437 1.12301-.39062 1.66991-.46875.2735 0 .4981.10742.6738.32227.1758.21484.2637.43945.2637.67383 0 .33203-.0683.58593-.2051.76171-.1171.15625-.2832.28321-.498.38086-.1953.07813-.4199.14649-.6738.20508-.2539.03906-.5079.08789-.76176.14649-.15625.03906-.37109.09765-.64453.17578-.27343.05859-.54687.12695-.82031.20508-.27344.07812-.51758.14648-.73242.20507-.21485.0586-.3418.09766-.38086.11719-.60547.25391-1.18164.49805-1.72852.73246-.52734.2148-.99609.4394-1.40625.6738-.39062.2344-.70312.4883-.9375.7617-.21484.2539-.3125.5371-.29297.8496v.0293c.19532.2735.63477.4785 1.31836.6152.6836.1368 1.48438.254 2.40235.3516.9375.0977 1.91406.1953 2.92969.293 1.03512.0976 1.98242.2441 2.84182.4394.8593.1953 1.5722.459 2.1386.791.5665.3321.8594.7813.879 1.3477 0 .2149-.0489.4688-.1465.7617-.0782.293-.1953.5176-.3516.6739-.4883.5468-1.0742 1.1132-1.7578 1.6992-.6641.5859-1.3867 1.1328-2.168 1.6406-.7812.4883-1.59178.9082-2.43162 1.2598-.82031.332-1.63086.5273-2.43164.5859-.27344 0-.52734-.0977-.76172-.293-.23437-.2148-.35156-.4687-.35156-.7617zm11.66014-4.1308c.0195-.1172.0195-.4297 0-.9375-.0195-.5079-.0293-1.1329-.0293-1.875.0196-.7618.0391-1.5918.0586-2.4903.0391-.8984.1074-1.8066.2051-2.72459.1172-.91797.2734-1.79688.4687-2.63672.2149-.85937.4883-1.60156.8204-2.22656.1171-.52735.4003-.88867.8496-1.08399.4492-.21484 1.0839-.34179 1.9043-.38086.5273 0 .9765.13672 1.3476.41016s.6836.61524.9375 1.02539c.2735.39063.5078.82031.7031 1.28906.1954.46875.3711.88868.5274 1.25977v.14648c.1367.39063.2344.97657.293 1.75782.0781.76174.1269 1.57224.1464 2.43164.0391.8398.0586 1.6504.0586 2.4316v1.7871c0 .586-.0781 1.2891-.2343 2.1094-.1563.8008-.4102 1.5625-.7618 2.2852-.332.7226-.7714 1.3379-1.3183 1.8457s-1.2012.7617-1.9629.7617c-.6445 0-1.2207-.166-1.7285-.498-.4883-.3321-.9082-.752-1.2598-1.2598-.332-.5274-.5859-1.0938-.7617-1.6992-.1758-.6055-.2637-1.1817-.2637-1.7285zm2.8418 1.9628c.0391.2149.1465.4395.3223.6739.1953.2148.4199.3222.6738.3222h.2344c.8203-.7422 1.3574-1.5918 1.6113-2.5488.2539-.9766.3809-2.0019.3809-3.0762 0-.2539-.0098-.6445-.0293-1.1718-.0196-.5274-.0586-1.1133-.1172-1.7578-.0391-.6641-.0977-1.3575-.1758-2.0801-.0781-.72268-.1758-1.39651-.293-2.02151-.1172-.64453-.2539-1.20117-.4101-1.66992-.1563-.46875-.3418-.79102-.5567-.9668-.0195.01953-.0488.05859-.0879.11719-.0195.05859-.0292.09765-.0292.11718-.4102.50782-.7813 1.20118-1.1133 2.08008-.3321.87891-.586 1.92383-.7617 3.13478-.1563 1.1914-.2247 2.5391-.2051 4.043.039 1.4843.2246 3.0859.5566 4.8046zm7.1192-1.3183c0-1.5039.0195-2.9981.0585-4.4824.0586-1.4844.0879-2.9883.0879-4.51176 0-.8789-.0488-1.75781-.1464-2.63672-.0782-.8789-.1172-1.75781-.1172-2.63671 0-.27344.0781-.50782.2343-.70313.1758-.19531.4004-.29297.6739-.29297.4687 0 .8203.09766 1.0547.29297.2343.19531.4003.43945.498.73242s.1465.625.1465.9961v1.08398.58594c.0195.3125.0391.6543.0586 1.02539.0195.35156.0293.68359.0293.99609.0195.3125.0293.50782.0293.58594v.96676c0 1.2696-.0196 2.5293-.0586 3.7793-.0391 1.25-.0586 2.5196-.0586 3.8086v1.2305c0 .0977.0098.2344.0293.4102.039.1562.0683.2343.0879.2343h.2343l6.9434-2.7539c.1563-.1367.293-.2051.4102-.2051.1172-.0195.2539-.0293.4101-.0293.0977 0 .2246.0098.3809.0293.1562 0 .3027.0293.4394.0879.1563.0391.2832.1075.3809.2051.1172.0781.1758.2051.1758.3809 0 .4492-.2442.8398-.7324 1.1718-.625.3321-1.2696.6446-1.9336.9375-.6641.2735-1.3379.4981-2.0215.6739l-.1465.1172c-.9375.2539-1.8164.625-2.6367 1.1132-.8008.4883-1.6407.9375-2.5196 1.3477h-.2636c-.5274 0-.918-.1758-1.1719-.5273-.2539-.3516-.4199-.7618-.4981-1.2305-.0781-.4883-.1074-.9863-.0878-1.4942.0195-.5273.0293-.957.0293-1.289zm20.8593.4101c-.2148.4102-.4785.8692-.791 1.377-.293.5078-.6445.9961-1.0547 1.4648-.3906.4493-.8203.8301-1.289 1.1426-.4493.3125-.9375.4688-1.4649.4688-.664 0-1.1914-.1953-1.582-.586-.3906-.3906-.6934-.8691-.9082-1.4355-.1953-.586-.3223-1.1914-.3809-1.8164-.0586-.6446-.0879-1.2207-.0879-1.7285v-.7618c.0196-.1562.0391-.3906.0586-.7031.0391-.3125.0782-.664.1172-1.0547.0586-.4101.1074-.8301.1465-1.2597.0391-.4493.0781-.8692.1172-1.2598.0586-.4102.0976-.7715.1172-1.084.039-.3125.0683-.5469.0879-.7031-.0782-.1953-.1075-.3906-.0879-.5859.039-.2149.1074-.40044.2051-.55669.1171-.17578.2636-.3125.4394-.41016.1758-.11718.3711-.17578.5859-.17578.0586 0 .1563.01953.293.0586.1563.03906.3125.09765.4688.17578.1562.07812.2929.16601.4101.26367.1172.07812.1758.15625.1758.23437v1.11331c-.2734 2.1093-.4492 3.789-.5273 5.039-.0782 1.25-.1075 2.2266-.0879 2.9297.0195.6836.0781 1.1524.1757 1.4063.0977.2539.1954.4297.293.5273.2344.0977.459.127.6738.0879.2344-.0586.5079-.2441.8204-.5566s.6835-.791 1.1132-1.4356c.4493-.664.9864-1.5429 1.6114-2.6367.039-.0586.0781-.166.1172-.3223.0585-.1562.0976-.2636.1171-.3222-.039-1.2891-.0488-2.5879-.0293-3.8965.0391-1.3086.0879-2.60743.1465-3.8965.0782-.19531.2051-.35156.3809-.46875.1758-.11718.3613-.17578.5566-.17578.0782 0 .1953.0293.3516.08789.1562.0586.3125.14649.4687.26367.1563.09766.293.20508.4102.32227s.1758.23438.1758.35156v8.64254c.1367.8789.2441 1.7676.3222 2.6661.0782.8789.1856 1.7578.3223 2.6367 0 .0976.0195.3027.0586.6152.0586.293.1172.6152.1758.9668s.1074.6738.1465.9668c.0586.293.0976.4785.1172.5566v.3516c0 .7031-.3809 1.084-1.1426 1.1426-.3321.039-.6153-.1074-.8496-.4395-.2149-.3125-.3907-.7324-.5274-1.2597-.1367-.5078-.2539-1.084-.3515-1.7285-.0782-.6446-.1465-1.2696-.2051-1.875-.0586-.6055-.1172-1.1524-.1758-1.6407-.0586-.5078-.1367-.8691-.2344-1.084zm10.0489-8.7304c-.0196-.15628-.0489-.35159-.0879-.58597-.0196-.2539-.0489-.48828-.0879-.70312-.0196-.23438-.0391-.42969-.0586-.58594s-.0293-.23437-.0293-.23437h-.2344l-3.3398.99609c-.0977.15625-.2637.23438-.4981.23438-.2148 0-.3808 0-.498 0-.2735 0-.5567-.11719-.8496-.35157-.2735-.2539-.4102-.52734-.4102-.82031 0-.21484.0684-.41992.2051-.61523.1562-.21485.3418-.36133.5566-.43946l4.7168-1.49414c.0586-.21484.166-.42968.3223-.64453.1758-.23437.4004-.35156.6738-.35156.2735 0 .4981.06836.6738.20508.1954.13672.4102.24414.6446.32226.1758-.01953.4687-.07812.8789-.17578.4101-.09766.8398-.19531 1.289-.29297.4688-.11718.9082-.22461 1.3184-.32226.4102-.09766.6934-.16602.8496-.20508.2344-.03906.4102-.08789.5274-.14649.1171-.05859.3027-.08789.5566-.08789.332 0 .6738.09766 1.0254.29297s.5273.48828.5273.87891c0 .2539-.0879.47851-.2636.67383-.1758.17578-.3907.29297-.6446.35156l-5.5664 1.40625v.26367c0 .60547.0489 1.20117.1465 1.78711.1172.58596.1563 1.17186.1172 1.75786l.9961 9.0527v.6445c0 .2344-.0098.4785-.0293.7324 0 .2344-.0391.4493-.1172.6446-.0586.1953-.166.3613-.3223.498-.1562.1172-.3906.1758-.7031.1758-.2344 0-.4883-.0977-.7617-.293-.2539-.1953-.3906-.4297-.4102-.7031l-1.1132-11.6309zm7.4414-3.72073c.1562-.21485.2929-.35156.4101-.41016.1367-.07812.3223-.11719.5567-.11719.3125 0 .6054.0879.8789.26368.2929.17578.459.42968.498.76172.0781.54687.1172 1.10351.1172 1.66992.0195.54687.0195 1.10351 0 1.66996 0 .5468-.0098 1.1035-.0293 1.6699 0 .5469.0195 1.0937.0586 1.6406.0781 1.3281.1953 2.7051.3516 4.1309.1757 1.4257.2636 2.8027.2636 4.1308 0 .3907-.0781.6836-.2343.8789-.1563.1953-.459.293-.9082.293-.3711 0-.6543-.127-.8497-.3809-.1953-.2539-.3418-.5566-.4394-.9082-.0781-.3515-.127-.7031-.1465-1.0547-.0195-.371-.0293-.664-.0293-.8789 0-.1562-.0195-.4785-.0586-.9668-.0195-.5078-.0488-1.0937-.0879-1.7578-.0195-.6836-.0488-1.3965-.0879-2.1386-.039-.7618-.0781-1.4746-.1172-2.1387-.039-.6836-.0781-1.2695-.1171-1.7578-.0196-.5078-.0293-.8399-.0293-.9961v-1.81642zm4.4824 11.39653c.0195-.1172.0195-.4297 0-.9375-.0195-.5079-.0293-1.1329-.0293-1.875.0195-.7618.039-1.5918.0586-2.4903.039-.8984.1074-1.8066.2051-2.72459.1171-.91797.2734-1.79688.4687-2.63672.2149-.85937.4883-1.60156.8203-2.22656.1172-.52735.4004-.88867.8496-1.08399.4493-.21484 1.084-.34179 1.9043-.38086.5274 0 .9766.13672 1.3477.41016s.6836.61524.9375 1.02539c.2734.39063.5078.82031.7031 1.28906s.3711.88868.5274 1.25977v.14648c.1367.39063.2343.97657.2929 1.75782.0781.76174.127 1.57224.1465 2.43164.0391.8398.0586 1.6504.0586 2.4316v1.7871c0 .586-.0781 1.2891-.2344 2.1094-.1562.8008-.4101 1.5625-.7617 2.2852-.332.7226-.7715 1.3379-1.3184 1.8457-.5468.5078-1.2011.7617-1.9628.7617-.6446 0-1.2207-.166-1.7286-.498-.4882-.3321-.9082-.752-1.2597-1.2598-.3321-.5274-.586-1.0938-.7617-1.6992-.1758-.6055-.2637-1.1817-.2637-1.7285zm2.8418 1.9628c.039.2149.1465.4395.3222.6739.1954.2148.42.3222.6739.3222h.2344c.8203-.7422 1.3574-1.5918 1.6113-2.5488.2539-.9766.3808-2.0019.3808-3.0762 0-.2539-.0097-.6445-.0293-1.1718-.0195-.5274-.0586-1.1133-.1171-1.7578-.0391-.6641-.0977-1.3575-.1758-2.0801-.0782-.72268-.1758-1.39651-.293-2.02151-.1172-.64453-.2539-1.20117-.4102-1.66992-.1562-.46875-.3417-.79102-.5566-.9668-.0195.01953-.0488.05859-.0879.11719-.0195.05859-.0293.09765-.0293.11718-.4101.50782-.7812 1.20118-1.1133 2.08008-.332.87891-.5859 1.92383-.7617 3.13478-.1562 1.1914-.2246 2.5391-.2051 4.043.0391 1.4843.2246 3.0859.5567 4.8046zm6.8555-.4394c0-1.1914.0195-2.3828.0585-3.5742.0586-1.211.1172-2.4121.1758-3.6035.0586-1.211.0977-2.41215.1172-3.60356.0391-1.21094.0391-2.41211 0-3.60352.0586-.21484.166-.37109.3223-.46874.1562-.11719.3418-.17579.5566-.17579.4102 0 .7227.07813.9375.23438.2149.13672.3711.33203.4688.58594.0976.2539.1562.53711.1757.84961.0196.3125.0391.625.0586.9375.2344.42968.5079.8496.8204 1.25976.332.39063.625.79102.8789 1.20117 0 .01953.0097.06836.0293.14649.039.05859.0683.08789.0878.08789.1172.17578.2637.41017.4395.70317.1953.2734.3809.5468.5566.8203.1758.2539.3223.4785.4395.6738.1367.1953.2051.293.2051.293l.1172.1464 1.6992 2.461c.0781.0781.1465.1172.2051.1172h.0586c-.254-2.0703-.459-4.1797-.6153-6.32815-.1562-2.16797-.2344-4.30664-.2344-6.41602v-1.464842c.1563-.253907.42-.38086.7911-.38086s.6445.087891.8203.263672.2929.400391.3515.67383c.0586.2539.0879.53711.0879.84961 0 .29297.0098.5664.0293.82031 0 .01953.0098.05859.0293.11719.0195.03906.0391.14648.0586.32226.0391.15625.0684.41016.0879.76172.0391.33203.0781.80078.1172 1.40625.0586.60547.1074 1.36719.1465 2.28516.0586.91797.1269 2.04101.2051 3.36917v.5273l.996 6.5332c.0196.1563.0977.4004.2344.7324.1563.3125.2344.5567.2344.7325 0 .4101-.1172.7421-.3516.9961-.2343.2539-.5664.3808-.9961.3808-.0586 0-.1367-.0195-.2343-.0586-.0977-.0586-.1953-.1172-.293-.1758s-.1953-.1172-.293-.1757c-.0781-.0782-.1367-.1368-.1758-.1758l-4.7168-6.709c-.0195 0-.039-.0293-.0585-.0879-.0196-.0781-.0391-.1367-.0586-.1758-.1172-.1758-.2735-.3906-.4688-.6445-.1953-.2735-.3808-.5371-.5566-.791-.1758-.2735-.3321-.5078-.4688-.7032-.1367-.1953-.2051-.3027-.2051-.3222l-.1464-.1172c-.0977 1.8555-.1758 3.7305-.2344 5.625-.0586 1.875-.0586 3.75 0 5.625-.0391.2344-.166.4394-.3809.6152-.1953.1758-.4004.2637-.6152.2637-.3906 0-.7031-.0977-.9375-.293-.2149-.2148-.4004-.4882-.5566-.8203zm17.4316 2.6074c.3125-.4297.6543-.7519 1.0254-.9668.3906-.2148.7812-.3906 1.1719-.5273.4101-.1367.8105-.2637 1.2013-.3809.41-.1367.81-.3515 1.201-.6445.215-.1172.518-.293.908-.5274.391-.2343.772-.4882 1.143-.7617.39-.2929.722-.5762.996-.8496.293-.2734.439-.5078.439-.7031 0-.0195-.009-.0293-.029-.0293-.039 0-.059-.0098-.059-.0293l-.058-.0586c-.098-.0391-.254-.0879-.469-.1465s-.342-.0976-.381-.1172c-2.519-.2929-4.5505-.5469-6.0935-.7617-1.5235-.2344-2.7051-.4785-3.5449-.7324-.8204-.2539-1.3672-.5469-1.6407-.8789-.2734-.3321-.4101-.752-.4101-1.2598 0-.1953.039-.4101.1172-.6445.0781-.2344.166-.4688.2636-.7031.1172-.2344.2344-.4493.3516-.6446s.2246-.3515.3223-.4687c.3125-.39065.7226-.74221 1.2304-1.05471.5079-.3125 1.0547-.58594 1.6407-.82031.5859-.23438 1.1718-.43946 1.7578-.61524.6054-.17578 1.1523-.33203 1.6406-.46875.5469-.03906 1.094-.16601 1.641-.38086.566-.23437 1.123-.39062 1.67-.46875.273 0 .498.10742.673.32227.176.21484.264.43945.264.67383 0 .33203-.068.58593-.205.76171-.117.15625-.283.28321-.498.38086-.195.07813-.42.14649-.674.20508-.254.03906-.508.08789-.762.14649-.156.03906-.371.09765-.644.17578-.274.05859-.547.12695-.82.20508-.2739.07812-.518.14648-.7329.20507-.2148.0586-.3418.09766-.3809.11719-.6054.25391-1.1816.49805-1.7285.73246-.5273.2148-.9961.4394-1.4062.6738-.3906.2344-.7031.4883-.9375.7617-.2149.2539-.3125.5371-.293.8496v.0293c.1953.2735.6348.4785 1.3184.6152.6836.1368 1.4844.254 2.4023.3516.9375.0977 1.9143.1953 2.9293.293 1.036.0976 1.983.2441 2.842.4394.86.1953 1.572.459 2.139.791.566.3321.859.7813.879 1.3477 0 .2149-.049.4688-.147.7617-.078.293-.195.5176-.351.6739-.489.5468-1.074 1.1132-1.758 1.6992-.664.5859-1.387 1.1328-2.168 1.6406-.781.4883-1.592.9082-2.432 1.2598-.82.332-1.6305.5273-2.4313.5859-.2735 0-.5274-.0977-.7617-.293-.2344-.2148-.3516-.4687-.3516-.7617z" fill="#898989"/></svg>