<svg xmlns="http://www.w3.org/2000/svg" width="450.246" height="35.189" viewBox="0 0 450.246 35.189">
  <g id="Layer_1" data-name="Layer 1" transform="translate(-195.822 -280.043)">
    <g id="Group_7" data-name="Group 7">
      <g id="Group_6" data-name="Group 6">
        <g id="Group_5" data-name="Group 5">
          <g id="Group_4" data-name="Group 4">
            <g id="Group_3" data-name="Group 3">
              <g id="Group_2" data-name="Group 2">
                <g id="Group_1" data-name="Group 1">
                  <path id="Path_1" data-name="Path 1" d="M535.862,287.24c.016.45.027.823.027,1.179v11.417a43.275,43.275,0,0,1-.284,5.676,7.813,7.813,0,0,1-1.525,3.361,9.373,9.373,0,0,1-3.8,2.757,10.451,10.451,0,0,1-4.783,1.08,12.137,12.137,0,0,1-6.306-1.657,7.051,7.051,0,0,1-3.4-3.758,38.123,38.123,0,0,1-.518-7.688V280.2h-5.336v22.7a13.413,13.413,0,0,0,1.443,6.678,10.6,10.6,0,0,0,4.879,4.073,19.414,19.414,0,0,0,8.152,1.561A19.783,19.783,0,0,0,531.623,314a11.844,11.844,0,0,0,4.911-3.285,9.118,9.118,0,0,0,2.126-4.278,42.216,42.216,0,0,0,.359-6.429V288.871c0-.586,0-1.055.023-1.453V280.2h-3.18Zm-212.462,0c.011.359.025.783.025,1.179v11.417a42.138,42.138,0,0,1-.286,5.676,7.673,7.673,0,0,1-1.52,3.361,9.577,9.577,0,0,1-3.787,2.757,10.54,10.54,0,0,1-4.8,1.08,12.127,12.127,0,0,1-6.305-1.657,7.11,7.11,0,0,1-3.4-3.758,37.249,37.249,0,0,1-.533-7.688V289.055c0-.828.016-1.594.028-2.268V280.2H297.46v22.7a13.386,13.386,0,0,0,1.454,6.678,10.55,10.55,0,0,0,4.865,4.073,19.59,19.59,0,0,0,8.171,1.561A19.836,19.836,0,0,0,319.164,314a11.871,11.871,0,0,0,4.908-3.285,9.423,9.423,0,0,0,2.136-4.278,44.929,44.929,0,0,0,.344-6.429V288.871c0-.5,0-.989.024-1.453V280.2H323.4ZM612.6,286.2v-5.973h-5.393v6.469c.023.873.032,1.657.032,2.491v16.662c0,1.024-.009,1.97-.032,2.781v6.594H612.6v-6.048c-.025-.847-.042-1.931-.042-3.327V289.184C612.562,288.047,612.579,287.048,612.6,286.2ZM260.979,308.13l-.411-.941L249,280.441l-.1-.236h-.273l-.63.019-1.113-.042h-.275l-.1.227-14.873,34.233-.233.534H232l1.619.014h.272v-.014h1.278l.108-.261,5.182-12.473H253.14l5.125,12.515.095.249h5.553l-.216-.547Zm-19.22-8.813,5.088-12.243,5.018,12.243Zm104.9-1.235,1.286-.246a13.835,13.835,0,0,0,6.335-2.812,7.873,7.873,0,0,0,2.687-5.958,7.3,7.3,0,0,0-2.068-5.187,11.763,11.763,0,0,0-5.336-3.047c-2.122-.608-4.575-.65-8.088-.65l-1.888.01-5.228-.01h-.394v7.453l.014,1.6V305.9l-.014,1.784.084,7.138v.388h5.371v-.4l-.069-6.925c-.013-.655-.013-1.3-.013-1.987v-7.154h1.124l1.852-.025,14.846,16.38.108.124H362.3l-.577-.659Zm-3.7-1.426c-.874.057-1.645.041-2.52.016h-1.1V282.246c.643-.055,1.29-.081,1.824-.081,4.139,0,6.4.552,7.513,1.825a8.064,8.064,0,0,1,1.766,5.46,9,9,0,0,1-.519,3.328,5.419,5.419,0,0,1-1.4,2.126,5.788,5.788,0,0,1-2.331,1.206A11.916,11.916,0,0,1,342.96,296.656ZM225.35,280.237h-3.207v25.33l-21.276-25.18-.123-.15h-2.866l-.4-.013h-1.657v34.952h2.056v-.008h1.153v-6.459c-.029-.5-.029-.948-.029-1.441V286.389l23.9,28.638.123.141h.038a.813.813,0,0,0,.223.022H224.7l.771.016-.125-.179Zm36.344.38-.013,2.4v.4H274.47v31.789h5.279v-6.139l-.015-2.1v-23.55h12.709v-3.193H261.707Zm302.479,16.164a9.416,9.416,0,0,0,4.055-3.029,8.976,8.976,0,0,0,1.306-4.826,7.389,7.389,0,0,0-1.941-5.248,10.813,10.813,0,0,0-5.174-2.867,31.133,31.133,0,0,0-7.269-.574l-.811-.013-5.8-.019-1-.013h-.4v35.04h.4l4.78-.026v.015h.4l.413-.015v-.03l3.892.045c4.276,0,7.579-.44,9.623-1.275a9.313,9.313,0,0,0,4.3-3.386,9.037,9.037,0,0,0,1.513-5.173,7.619,7.619,0,0,0-2.225-5.591A13.862,13.862,0,0,0,564.173,296.781Zm-11.42-14.787a18.538,18.538,0,0,1,1.893-.07c3,0,5.191.6,6.511,1.754,1.286,1.148,1.944,3,1.944,5.506a7.051,7.051,0,0,1-1.152,4.165,5.183,5.183,0,0,1-2.807,2.172,16.782,16.782,0,0,1-4.676.549h-1.713ZM564.2,310.121a6.207,6.207,0,0,1-3.3,2.344,20.435,20.435,0,0,1-5.382.576h-2.754V298.028h3.011c.582,0,1.139-.026,1.868-.055a10.392,10.392,0,0,1,5.619,1.8c1.506,1.236,2.252,3.219,2.252,5.917A7.165,7.165,0,0,1,564.2,310.121ZM496.943,280.85c-1.954-.532-4.4-.55-7.825-.613l-.883-.013-7.359-.058-.383-.011v35.066h5.617V299.194h3.674c4.268,0,7.291-.37,9.035-1.137a9.059,9.059,0,0,0,4.058-3.4,9.5,9.5,0,0,0,1.4-5.138,7.9,7.9,0,0,0-2.072-5.611A11.128,11.128,0,0,0,496.943,280.85Zm-.452,13.392a5.693,5.693,0,0,1-3.069,2.317,17.364,17.364,0,0,1-5.061.589H486.11V282.072c.647-.056,1.442-.078,2.447-.078,3.257,0,5.63.627,7.068,1.885,1.387,1.209,2.109,3.225,2.109,5.926A7.682,7.682,0,0,1,496.491,294.242Zm-35.834,17.824c.009,0-3.662-.056-4.839-.072V299.249l12.1.013h.4v-3.139h-12.5V283.332h4.839l9.827.06h.4V280.2H450.439v34.963h21.825v-3.145h-.4Zm132.315-.013h-2.71c-.415,0-.815-.014-1.249-.03h-3.729v-2.861c-.011-.717-.041-1.4-.041-2.127V289.106c0-.782.03-1.507.041-2.25V280.2h-5.39v.387l-.056,6.648.032,1.866V305.9c0,.725-.015,1.372-.032,1.987v7.338h.4l20.327-.015h.384l.016-.388.051-2.382v-.413h-.4Zm-165-13.971,1.271-.246a13.844,13.844,0,0,0,6.336-2.812,7.763,7.763,0,0,0,2.7-5.958,7.284,7.284,0,0,0-2.068-5.187,11.661,11.661,0,0,0-5.319-3.047c-2.14-.608-4.594-.65-8.1-.65l-1.907.01-5.21-.01h-.4l-.015.41v7.043c.015.521.015,1.058.015,1.6V305.9l-.015,1.784.082,7.138v.388h5.4l-.013-.4-.078-6.925c0-.6-.018-1.246-.018-1.987v-7.154h1.14l1.836-.025,14.847,16.38.11.124H443.6l-.585-.659Zm-3.717-1.426c-.879.057-1.65.041-2.512.016h-1.11V282.246c.659-.055,1.29-.081,1.823-.081,4.156,0,6.423.552,7.527,1.825a8.06,8.06,0,0,1,1.757,5.46,9.223,9.223,0,0,1-.51,3.328,5.089,5.089,0,0,1-3.745,3.332A11.793,11.793,0,0,1,424.257,296.656Zm-46.132,15.45-4.841-.067V299.275l12.106.016h.382v-3.156H373.284v-12.8h4.841l9.826.06h.387V280.2H367.9v8.119l.01,1.313v16.127l-.01,1.3v8.161h21.823v-3.139h-.4Z" fill="#83a12b"/>
                </g>
              </g>
            </g>
          </g>
          <path id="Path_2" data-name="Path 2" d="M645.933,283.99a17.8,17.8,0,0,0-3.856-2.412,16.582,16.582,0,0,0-7.246-1.535A13.533,13.533,0,0,0,627,282.154a16.3,16.3,0,0,0-6.443,6.579,20.274,20.274,0,0,0-2.286,9.4,16.041,16.041,0,0,0,5,12.282c3.149,2.935,6.057,4.635,11.481,4.635A16.28,16.28,0,0,0,645.933,311l.135-.1v-3.423l-.712.959a9.241,9.241,0,0,1-3.865,3.194,14.149,14.149,0,0,1-5.673,1.261,11.206,11.206,0,0,1-8.657-3.841c-2.3-2.549-3.477-6.29-3.477-11.118,0-5.125,1.085-9.088,3.206-11.834a10.312,10.312,0,0,1,8.555-4.041,13.269,13.269,0,0,1,7.941,2.519,8.534,8.534,0,0,1,1.97,1.98l.712.969V284.1Z" fill="#83a12b"/>
        </g>
      </g>
    </g>
  </g>
</svg>
