<svg enable-background="new 0 0 512 133.75" viewBox="0 0 512 133.75" xmlns="http://www.w3.org/2000/svg"><g fill="#ee2626"><path d="m199.82 75.93h-44.19-.27-3.02-2.44c-6.14 0-11.14-5-11.14-11.13 0-.64.05-1.29.17-1.91 0 0 0 0 0-.01l.05-.26s0 0 0-.01c.11-.57.27-1.13.48-1.65h.01c.1-.25.2-.49.29-.73.03-.06.04-.12.07-.18l.03-.07.01-.02h.01c0-.01 0-.02.01-.04 0 0 0-.01.01-.02 0 0 0-.01.01-.01.01-.01.01-.03.02-.04l.59-1.37c0-.01.01-.01.01-.02l.03-.08c.03-.06.05-.11.08-.18.01-.03.02-.05.04-.08.68-1.47 1.46-2.93 2.32-4.36.22-.36.44-.72.66-1.07.02-.03.03-.05.05-.08l.08-.13c2.52-3.9 5.63-7.48 9.23-10.67h.01v-.01l.29-.26c2.1-1.86 4.45-3.62 6.98-5.27h.02l.4-.26c5.59-3.57 10.34-5.34 11.62-5.79-.25.4-.47.82-.65 1.24-.68 1.46-1.1 2.99-1.23 4.55l-.03.25h.01c-.16 1.79.08 3.61.68 5.27.02.06.04.11.06.18l.03.08v.01h.01c1 2.58 2.85 4.6 5.22 5.71 1.33.62 2.74.91 4.17.91 4.13 0 8.31-2.45 10.68-6.62v-.01l.04-.07c.03-.06.06-.11.1-.19.11-.21.24-.45.36-.73.68-1.45 1.1-2.99 1.23-4.54l.01-.12v-.01l.02-.12c.09-1.23.03-2.43-.21-3.57-.09-.51-.23-1.02-.4-1.51-.06-.2-.12-.37-.21-.56-.02-.08-.05-.16-.09-.24-.17-.39-.35-.77-.56-1.13-.4-.74-.9-1.41-1.48-2.02-.34-.37-.72-.72-1.12-1.03-.6-.48-1.25-.88-1.96-1.2-.27-.12-.55-.24-.83-.34-.17-.06-.33-.11-.5-.17-.07-.02-.15-.04-.21-.06-.43-.12-.86-.21-1.29-.27l-1.75-.13.01-.12.01-.09c-.03 0-3.5-.33-8.82.08l-.43.04c-.74.06-1.5.13-2.29.22-.02 0-.03 0-.05 0-8.98 1.01-21.07 3.99-32.25 12.09 0 0 0 0-.01 0l-.03.02c-.1.08-.21.15-.31.23 0 0 0 0-.01 0-2.2 1.61-4.29 3.38-6.25 5.27 0 0 0 0-.01 0h-.01l-.03.03c-.07.07-.15.14-.22.22 0 0 0 0-.01.01-4.72 4.62-8.75 10.14-11.99 16.39-.01.02-.02.04-.03.06l-.1.19c-.1.21-.22.41-.32.63l-.01.01c-.42.84-.84 1.72-1.24 2.63v.01l-.01.01-.02.04v.01c-.13.26-.26.54-.37.82-.01.03-.03.05-.04.08h.01c-.19.5-1.27 3.47-1.32 6.31 0 .02.01.04.01.06-.06.63-.1 1.27-.1 1.92 0 1.67.21 3.33.61 4.93v.01l.04.16c.01.03.02.06.02.09h.01v.01c.61 2.33 1.65 4.52 3.08 6.47h-.02l.09.12.1.13c.21.28.41.54.63.81.05.06.09.11.15.17.21.25.41.49.64.73.23.25.48.5.73.74.15.15.29.28.44.4.1.1.21.21.32.28.16.16.31.29.48.41.1.09.22.19.33.27.2.16.4.31.61.46.54.39 1.1.77 1.68 1.1.18.1.36.21.55.3.41.23.84.45 1.28.63.21.1.44.2.65.28.2.09.4.18.61.24.04.03.09.04.15.06.31.11.62.23.94.31.06.03.12.05.19.06.23.07.46.13.68.19.18.06.36.1.55.15.32.07.65.15 1 .21.33.06.67.11 1.01.16l.23.02c.48.05.97.09 1.45.11.26.01.53.02.79.02.22 0 .44-.01.66-.02l57.34.13h.28l.09-.25 2.92-7.94v-.01l.09-.25v-.01l2.4-6.43v-.01l.03-.08.04-.1.02-.07v-.01zm-81.89-13.04c-.01.03-.02.07-.04.11z"/><path d="m116.49 48c.17-.38.32-.78.46-1.18.05-.15.1-.3.15-.45.35-1.11.58-2.25.7-3.43.01-.17.02-.32.04-.49.02-.21.03-.42.03-.64l.01-.12v-.01-.12-.37c0-1.67-.23-3.32-.69-4.9l-.05-.17c-.01-.03-.02-.05-.03-.08-1.63-5.24-5.55-9.23-10.47-11.06-.16-.05-.31-.11-.48-.17-.72-.24-1.45-.44-2.21-.58-.16-.03-.3-.06-.46-.08-.6-.1-1.22-.17-1.85-.21h-.06c-.03 0-.05 0-.08 0l-.74-.26h-.1-.16-17.02-.28-18.77-.28-29.62-.18-.09l-.03.08-.06.17-9.28 12.09-.03.08-.04.1-.03.07h.27 34.46.28 18.76.27.01 5.18.27l1.88-.01h.01 1.09v.01h2.62.04.03c2.82.5 5.19 2.55 6.09 5.27l.08.26h.01v.01c.02.05 1.09 3.05-1.09 6.77-.21.31-.42.63-.64.94-.01.02-.03.04-.04.06-.12.17-.24.34-.36.5-.01.01-.02.03-.03.04-.01 0-.01.01-.01.01-.02.02-.04.05-.05.07-.27.36-.54.72-.83 1.06-.33.41-.68.83-1.05 1.24-.28.32-.57.64-.87.94-.36.37-.73.75-1.1 1.1-.03.03-.05.05-.08.08l-.01.01-.1.1c-1.35 1.27-2.79 2.44-4.3 3.47l-.38.26h-.01s0 0-.01 0c-2.67 1.77-5.56 3.17-8.56 4.16h-.01c-.01 0-.01 0-.02.01l-.83.26c-.01 0-.01 0-.02.01h-.01c-1.78.54-3.63.92-5.5 1.16-.57.07-1.13.12-1.7.17l.49-1.33h.01v-.01l.09-.26v-.01h.01l1.52-4.16.09-.26 6.04-16.39v-.01l.05-.14.04-.12h-.19-.09-18.75-.18-.09l-.03.08-.06.17v.01l-6.05 16.4-.09.26-.89 2.43h-.01l-.08.23v.01l-.55 1.49v.01l-.1.26v.01l-2.56 6.96-.09.25-2.15 5.84v.01l-.09.25v.01l-2.38 6.47-.09.26v.01l-2.92 7.94v.01l-.03.08-.03.1-.03.07h.27 18.78.28.01l.09-.25 2.92-7.94v-.01l.09-.26 2.38-6.47v-.01l.09-.25v-.01l.97-2.62v-.04c.59.03 1.22.04 1.85.04 12.43 0 24.44-3.62 34.77-10.45h.02l.01-.01.37-.26s.01 0 .01-.01h.01c1.89-1.25 3.73-2.65 5.5-4.16.1 0 5.22-4.42 7.34-7.83.05-.08.09-.16.12-.23.15-.24.31-.46.45-.71.09-.16.18-.31.27-.48.13-.25.26-.51.37-.77.05-.13.12-.28.18-.43zm-20.22-6.19c0 .01 0 .02.01.03l-.11-.03z"/><path d="m459.09 82.45h-.25-20.06l2.44-6.64.04-.13.05-.14 2.04-5.55h.01l.13-.36 2.74-7.46h.01v-.01l.09-.27v-.01h.01l1.56-4.26.1-.27 6.2-16.81.1-.27 4.06-11.01h-17.46-.09l-.09.26-3.96 10.74v.01l-.09.26v.01l-6.2 16.81-.09.26-1.56 4.26h-.01v.01l-.09.27v.01h-.01l-4.92 13.37-.05.14-.04.13-2.23 6.06-.21.58h-.05-.13-19.43l2.44-6.64.04-.13.05-.14.43-1.14 1.74-4.74.12-.34 2.64-7.15h.01v-.01l.09-.27v-.01h.01l1.56-4.26.1-.27 6.2-16.81v-.01l.1-.27 3.96-10.74.05-.15.04-.11h-.19-.09-16.98-.19-.09l-.03.08-.06.18-3.98 10.74v.01l-.09.26v.01l-6.18 16.81-.03.09-.06.18-1.57 4.26h-.01v.01l-.09.27v.01h-.01l-4.92 13.37v.01l-.1.27-1.96 5.35-.48 1.29h-.02-11.82-.27-7.33l2.44-6.64v-.01l.09-.26v-.01l1.63-4.41.13-.34.4-1.09h.01l.01-.03.13-.33 2.61-7.16h.01v-.01l.09-.27v-.01h.01l1.57-4.26.05-.15.04-.11h-.19-.09-12.89-.28-12.15-.19-.09-3.2-.4l-2 .27c-.01 0-.03 0-.04 0-4.03.57-7.77 2.06-10.99 4.26-.14.09-.27.18-.39.28-3.28 2.32-6.01 5.37-7.93 8.91 0 .01-.01.01-.01.02-.54.98-1.01 2.01-1.41 3.07l-.19.5-.07.18s-.38.97-.44 1.11l-.11.3c0 .01-.01.03-.02.04-.01.02-.01.03-.02.04-.05.12-.09.24-.12.36 0 .02-.01.04-.02.07l-.02.09c-.17.56-.29 1.13-.36 1.71-.04.29-.06.57-.07.87-.02.18-.02.37-.02.55 0 .43.02.85.07 1.28v.01.03c.03.26.07.52.13.79.01.12.04.22.06.34h-.28-.27-1.05-.28-2.39-.32-10.84l2.44-6.64v-.01l.09-.26v-.01l2.44-6.64.1-.27c2.01-4.8 1.87-5.92 1.87-5.92l-.01.01c0-.05.01-.1.01-.16 0-.13 0-.26-.01-.39l-.03-.28c-.15-1.14-.66-2.18-1.46-2.97.01-.01 0-.01 0-.01-.03-.04-.07-.07-.11-.11l-.09-.07h-.01-.01c-.54-.51-1.18-.88-1.87-1.11-.01 0-.01 0-.02 0-.52-.18-1.05-.26-1.61-.26-1.08 0-2.13.09-3.14.26-.01 0-.03 0-.04 0-2.98.47-5.57 1.53-7.45 2.51 0 0 0 0-.01 0-.61.32-1.15.62-1.6.9l-.18.1c-.01.01-.02.01-.03.02-.34.2-.59.37-.78.5-.18.12-.28.2-.33.23l-13.82 10.42 1.82-5.19c.13-.34.3-.73.49-1.17.53-1.21.75-2.15.83-2.56 0-.02.01-.03.01-.05 0-.01 0-.02 0-.02 0-.01 0-.01 0-.02.02-.09.02-.14.02-.14l-.01.01c.02-.12.04-.24.04-.37.01-.09.01-.16.01-.24 0-.07-.01-.13-.01-.2v-.2l-.01-.14-.01-.14h-.02c-.16-1.28-.77-2.42-1.75-3.26-.04-.03-.09-.07-.13-.11l-.07-.06h-.01c-.47-.36-1-.65-1.56-.83-.01 0-.01 0-.02 0-.5-.16-1.02-.25-1.55-.26l-.06-.01h-.67l-.11.01c-1.03.01-2.04.1-3.01.26-.01 0-.03 0-.04 0-3.05.49-5.69 1.6-7.5 2.52-.01.01-.02.01-.04.02-.48.24-.87.46-1.21.67l-.45.25-.37.24c-.48.3-.76.5-.84.56-.01.01-.04.03-.04.03l.01.01-.2.23-.01.01-17.09 12.77 4.7-12.77h.01v-.01l.09-.27v-.01h.01l1.56-4.26.05-.15.04-.11h-.19-.09-17.49-.19-.09l-.03.09-.06.18-1.57 4.26h-.01v.01l-.09.27v.01h-.01l-4.92 13.37v.01l-.09.26v.01l-2.44 6.63-.1.27v.01l-3 8.14v.01l-.03.08-.04.11-.03.07v.01h.28 2.09.44 12.24.45l.01-.01.01-.01.02-.02.32-.23.01-.01 2.78-2.08.38-.29h.01l7.73-5.77.01-.01.34-.26h.01l.01-.01 3.36-2.52.01-.01.26-.19h.01l5.23-3.91.01-.01.03-.02.31-.24.01-.01.82-.63-.22.63v.01l-.09.26v.01l-2.44 6.63v.01l-.09.26v.01l-.84 2.29v.01l-.01.01v.02l-.01.02c-.06.15-.12.29-.16.43v.02c-.05.17-.09.34-.12.51-.01.04-.01.07-.02.11v.04c-.03.24-.1.9.06 1.53 0 .02.01.02.02.04.16.76.52 1.45 1.05 2 .01.02.03.04.05.06v.01l.04.04c.03.03.05.05.08.07.43.42.94.73 1.5.93 0 0 .01 0 .01.01.45.17.93.25 1.42.26.02 0 .04.01.06.01s.04 0 .05-.01h3.62c.02 0 .03 0 .05.01h.29c.1 0 .2.01.3.01s.2 0 .3-.01h.28.01c.41-.02.82-.06 1.22-.14.24-.03.48-.08.71-.13s.46-.11.69-.18c.5-.15.99-.33 1.47-.55.23-.11.47-.21.69-.35.01-.01.02-.01.03-.02.46-.24.9-.52 1.31-.83l-.01.01.05-.04h.01l3.7-2.76.25-.17.13-.09 4.21-3.15.01-.01.35-.26.01-.01 8.86-6.63h.19l-2.44 6.63v.01l-.09.26v.01l-.76 2.34c-.13.29-.24.59-.3.92v.01c-.03.18-.05.36-.06.55-.01.07-.01.16-.01.23 0 .14.01.29.02.43.02.23.06.47.13.7.02.07.04.14.06.21.04.15.11.31.18.46.04.1.08.18.14.28.05.1.11.2.17.3.45.68 1.08 1.24 1.84 1.58.11.04.2.08.31.13.13.05.27.1.4.13.34.1.71.14 1.08.14h12.85.28 7.99.01.28c.1 0 .2.01.3.01s.2 0 .3-.01h.29c.02 0 .04 0 .05-.01.61-.03 1.22-.12 1.82-.26.01 0 .01 0 .02-.01 1.06-.23 2.08-.62 3.02-1.15h.01v.01l.05-.03.28-.14h.02l.02-.04c1.25-.78 2.32-1.79 3.17-2.97l.16-.21s-.01-.01-.01-.01c.12-.18.26-.35.37-.54.1-.13.17-.26.24-.38v-.01c.27-.46.49-.94.68-1.44 0 .01 0 .02.01.03 1.04 2.76 3.17 4.97 5.8 6.17.5.23 1.02.41 1.55.57l.45.16c.01 0 .02 0 .03.01.16.03.33.06.5.09.02 0 .04 0 .07.01.45.08.9.14 1.35.17.02 0 .04 0 .06.01h.28c.1 0 .19.01.29.01h.23c.14.01.3.01.44.01.17 0 .34 0 .5-.01.64-.01 1.26-.06 1.88-.14.29-.03.57-.07.85-.13.17-.02.34-.05.5-.09.05-.01.1-.02.15-.03h.01c.05-.01.1-.02.15-.03 3.36-.71 6.39-2.31 8.87-4.52-.01.05-.01.11-.02.17-.01.14-.02.28-.02.41 0 .22.02.46.05.67.02.12.04.22.06.33.02.07.03.14.05.21.04.14.1.28.15.41.04.11.09.2.14.31.15.29.33.56.54.82.06.09.14.17.21.24.07.09.16.17.24.23.09.08.18.16.28.23.29.22.61.4.95.54.05.03.12.05.17.07l.38.13.14.02.12.03.79.08c.02 0 .03.01.04.01h12.02.28.01 9.41.29 1.65.01.28c.1 0 .2.01.3.01s.2 0 .3-.01h.29c.02 0 .04 0 .05-.01.62-.03 1.24-.12 1.83-.26.01 0 .01 0 .02-.01 2.81-.63 5.27-2.32 6.88-4.74.07-.12.15-.23.21-.35-.02.09-.04.19-.05.28v.01.02l-.06.54v.16c0 .14.01.29.02.43.02.23.06.47.13.7.02.07.04.14.06.21.04.15.11.31.18.46.04.1.09.18.14.28s.11.2.17.3c.17.24.36.49.57.7.1.1.2.19.31.28.11.1.22.18.33.26.12.07.23.15.36.21.13.07.26.14.38.19.05.02.12.04.18.07.14.04.28.1.43.13.34.1.7.14 1.07.14h10.99.28.01 11.35.01.28c.1 0 .2.01.3.01s.2 0 .3-.01h.29c.02 0 .03 0 .05-.01.62-.03 1.24-.13 1.83-.26.01 0 .01 0 .02-.01 2.95-.67 5.51-2.54 7.09-5.09.01-.02.03-.05.04-.07-.04.15-.09.29-.11.44v.01.01l-.01.01c-.01.04-.01.1-.01.14-.01.09-.03.18-.03.28-.01.05-.01.13-.01.19 0 .08 0 .17.01.25.1 1.75 1.25 3.23 2.84 3.82 0 0 .01 0 .01.01.45.16.93.25 1.43.26.02 0 .04.01.06.01h11.15.28.01 11.98.01.28c.1 0 .2.01.3.01s.2 0 .3-.01h.29c.02 0 .04 0 .05-.01.63-.03 1.25-.12 1.85-.26.01 0 .01 0 .02-.01 3-.67 5.55-2.53 7.11-5.12 0 0 0-.01.01-.01.55-.91.99-1.92 1.26-3.01-.07-.07-.04-.26-.04-.26zm-112.62-20.28h1.89.31 9.94l-4.92 13.37v.01l-.09.26v.01l-2.44 6.64h-2.04-1.06-.32-1.33-1.49c-.23 0-.48-.02-.7-.05-.72-.13-1.39-.45-1.95-.92l-.05-.04-.19-.17c-1.35-1.36-1.21-3.32-.83-4.77l.08-.21.02-.05.01-.02.13-.33.02-.06v-.01h-.04l.02-.03c.01-.02.03-.04.04-.05h.01l-.03.08.05-.12h-.01v-.01l.05-.13v-.01zm-82.7-.33-.03.06h-.05zm-3.07 29.02c.05-.01.09-.03.13-.05h.01c.07.02.14.04.21.05z"/><path d="m477.34 84.3h1.73c.49 0 .83.09 1.01.27s.27.54.28 1.08l.01.79c0 .25.03.49.07.73.02.11.06.27.11.45h1.96v-.21c-.17-.1-.28-.26-.33-.48-.03-.14-.05-.4-.05-.79v-.57c0-.59-.08-1.04-.24-1.33s-.44-.51-.83-.67c.47-.16.8-.44 1.01-.83.2-.39.3-.79.3-1.19 0-.33-.05-.63-.16-.89-.1-.26-.25-.5-.43-.71-.22-.26-.48-.46-.79-.59s-.76-.21-1.34-.22h-4.05v8.48h1.73v-3.32zm0-3.68h1.96c.36 0 .64.05.82.15.32.18.49.52.49 1.04 0 .48-.17.79-.5.95-.19.09-.47.14-.85.14h-1.91v-2.28z"/><path d="m479.06 91.07c4.23 0 7.67-3.44 7.67-7.67s-3.44-7.67-7.67-7.67-7.67 3.44-7.67 7.67 3.44 7.67 7.67 7.67zm0-14.24c3.62 0 6.57 2.95 6.57 6.57s-2.95 6.57-6.57 6.57-6.57-2.95-6.57-6.57 2.95-6.57 6.57-6.57z"/><path d="m165.56 111.75v-1.72h-6.95v-8.71h.82v7.96h4.97v-7.96h.83v7.96h1.1v2.47z"/><path d="m172.3 107.37h-3.66l-.97 2.67h-.87l3.26-8.71h.82l3.25 8.71h-.87zm-3.41-.72h3.16l-1.56-4.31h-.04z"/><path d="m177.57 105.68v-.03l-3-4.32h1l2.54 3.7h.03l2.56-3.7h.95l-3.06 4.36v.02l3.01 4.33h-.99l-2.53-3.68h-.03l-2.56 3.68h-.94z"/><path d="m188.79 102.68h-.07l-5.07 7.35h-.81v-8.71h.81v7.37h.07l5.07-7.37h.81v8.71h-.81z"/><path d="m198.96 110.03v-7.14h-.04l-3.03 7.1h-.72l-3.02-7.1h-.04v7.14h-.77v-8.71h.95l3.23 7.62h.04l3.22-7.62h.95v8.71z"/><path d="m206.3 110.03v-7.96h-2.87v-.75h6.58v.75h-2.88v7.96z"/><path d="m216.42 110.03h-5.25v-8.71h5.25v.75h-4.43v3.13h4.21v.74h-4.21v3.34h4.43z"/><path d="m220.37 105.68v-.03l-3-4.32h1l2.54 3.7h.03l2.56-3.7h.95l-3.06 4.36v.02l3.01 4.33h-.99l-2.53-3.68h-.03l-2.56 3.68h-.94z"/><path d="m231.54 110.03v-4.08h-5.09v4.08h-.82v-8.71h.82v3.87h5.09v-3.87h.83v8.71z"/><path d="m241.68 105.68c0 2.76-1.53 4.49-3.96 4.49s-3.95-1.73-3.95-4.49 1.53-4.49 3.95-4.49c2.43 0 3.96 1.74 3.96 4.49zm-7.07 0c0 2.28 1.2 3.72 3.11 3.72s3.11-1.44 3.11-3.72c0-2.29-1.21-3.73-3.11-3.73-1.91 0-3.11 1.45-3.11 3.73z"/><path d="m248.07 110.03v-7.96h-3.48l-.3 4.88c-.13 2.05-.69 3.13-2.01 3.13-.17 0-.31-.04-.39-.06v-.74c.05.02.2.04.33.04.85 0 1.2-.81 1.3-2.41l.33-5.59h5.07v8.71z"/><path d="m258.21 105.68c0 2.76-1.53 4.49-3.96 4.49s-3.95-1.73-3.95-4.49 1.53-4.49 3.95-4.49 3.96 1.74 3.96 4.49zm-7.07 0c0 2.28 1.2 3.72 3.11 3.72s3.11-1.44 3.11-3.72c0-2.29-1.21-3.73-3.11-3.73s-3.11 1.45-3.11 3.73z"/><path d="m259.61 110.03v-8.71h5.08v.75h-4.25v7.95h-.83z"/><path d="m271.91 102.68h-.07l-5.07 7.35h-.81v-8.71h.81v7.37h.07l5.07-7.37h.81v8.71h-.81z"/><path d="m274.21 111.7.58-2.91h.85l-.76 2.91z"/><path d="m286.23 111.75v-1.72h-6.95v-8.71h.82v7.96h4.97v-7.96h.83v7.96h1.1v2.47z"/><path d="m292.97 107.37h-3.66l-.97 2.67h-.87l3.26-8.71h.82l3.25 8.71h-.87zm-3.41-.72h3.16l-1.56-4.31h-.04z"/><path d="m298.24 105.68v-.03l-3-4.32h1l2.54 3.7h.03l2.56-3.7h.95l-3.06 4.36v.02l3.01 4.33h-.99l-2.53-3.68h-.03l-2.56 3.68h-.94z"/><path d="m309.46 102.68h-.07l-5.07 7.35h-.81v-8.71h.81v7.37h.07l5.07-7.37h.81v8.71h-.81z"/><path d="m317.57 110.03v-7.96h-3.48l-.3 4.88c-.13 2.05-.69 3.13-2.01 3.13-.17 0-.31-.04-.39-.06v-.74c.05.02.2.04.33.04.85 0 1.2-.81 1.3-2.41l.33-5.59h5.07v8.71z"/><path d="m320.15 110.03v-8.71h5.08v.75h-4.25v7.95h-.83z"/><path d="m330.15 107.37h-3.66l-.97 2.67h-.87l3.26-8.71h.82l3.25 8.71h-.87zm-3.41-.72h3.16l-1.56-4.31h-.04z"/><path d="m337.88 107.37h-3.66l-.97 2.67h-.87l3.26-8.71h.82l3.25 8.71h-.87zm-3.4-.72h3.16l-1.56-4.31h-.04z"/><path d="m346.71 110.03v-4.08h-5.09v4.08h-.82v-8.71h.82v3.87h5.09v-3.87h.83v8.71z"/><path d="m354.84 110.03h-3.02v-8.71h5v.75h-4.18v2.82h2.2c1.66 0 2.8 1.04 2.8 2.58-.01 1.52-1.14 2.56-2.8 2.56zm-.2-.75c1.35 0 2.14-.67 2.14-1.82s-.8-1.83-2.14-1.83h-2.01v3.64h2.01z"/><path d="m363.77 107.37h-3.66l-.97 2.67h-.87l3.26-8.71h.82l3.25 8.71h-.87zm-3.41-.72h3.16l-1.56-4.31h-.04z"/><path d="m369.65 101.33c1.67 0 2.79 1.09 2.79 2.71s-1.14 2.71-2.8 2.71h-2.14v3.28h-.82v-8.71h2.97zm-2.14 4.68h1.95c1.34 0 2.14-.74 2.14-1.98s-.8-1.97-2.14-1.97h-1.95z"/><path d="m377.85 107.37h-3.66l-.97 2.67h-.87l3.26-8.71h.82l3.25 8.71h-.87zm-3.41-.72h3.16l-1.56-4.31h-.04z"/><path d="m385.58 107.37h-3.66l-.97 2.67h-.87l3.26-8.71h.82l3.25 8.71h-.87zm-3.41-.72h3.16l-1.56-4.31h-.04z"/><path d="m394.41 110.03v-4.08h-5.09v4.08h-.82v-8.71h.82v3.87h5.09v-3.87h.83v8.71z"/><path d="m396.98 101.33h.82v3.37h2.22c1.67 0 2.8 1.08 2.8 2.67s-1.13 2.67-2.79 2.67h-3.05zm2.86 7.95c1.35 0 2.14-.71 2.14-1.92s-.8-1.93-2.14-1.93h-2.03v3.85zm4.23.75v-8.71h.82v8.71z"/><path d="m409.21 111.75h-.77v-2.47h.62c.63-.33.87-1.15.94-2.32l.34-5.64h5.23v7.96h1.1v2.47h-.77v-1.72h-6.7v1.72zm.91-2.51v.04h4.62v-7.21h-3.66l-.3 4.92c-.07 1.02-.2 1.76-.66 2.25z"/><path d="m417.4 107.55h.84c.28 1.13 1.35 1.85 2.73 1.85 1.78 0 2.94-1.35 3-3.46h-4.12v-.75h4.1c-.11-1.98-1.27-3.25-2.97-3.25-1.32 0-2.46.84-2.73 2.03h-.84c.28-1.65 1.76-2.8 3.58-2.8 2.36 0 3.84 1.75 3.84 4.49 0 2.76-1.47 4.49-3.84 4.49-1.9.02-3.25-.96-3.59-2.6z"/><path d="m431.21 110.03v-7.96h-3.48l-.3 4.88c-.13 2.05-.69 3.13-2.01 3.13-.17 0-.31-.04-.39-.06v-.74c.05.02.2.04.33.04.85 0 1.2-.81 1.3-2.41l.33-5.59h5.07v8.71z"/><path d="m433.79 110.03v-8.71h5.08v.75h-4.25v7.95h-.83z"/><path d="m442.52 110.03v-3.76l-3.12-4.94h.94l2.58 4.13h.03l2.58-4.13h.94l-3.12 4.94v3.76z"/><path d="m449.87 110.03v-3.76l-3.12-4.94h.94l2.58 4.13h.03l2.58-4.13h.94l-3.12 4.94v3.76z"/><path d="m457.8 101.33c1.67 0 2.79 1.09 2.79 2.71s-1.14 2.71-2.8 2.71h-2.14v3.28h-.82v-8.71h2.97zm-2.14 4.68h1.95c1.34 0 2.14-.74 2.14-1.98s-.8-1.97-2.14-1.97h-1.95z"/></g></svg>