<svg fill="none" height="32" viewBox="0 0 135 32" width="135" xmlns="http://www.w3.org/2000/svg"><g clip-rule="evenodd" fill="#205567" fill-rule="evenodd"><path d="m25.1728 19.0047h-19.13781l-.63446-3.0062c-.24208-1.0124-.44974-1.981-.68397-3.0365-.45517-2.0494-.92302-4.04634-1.38121-6.05872h18.89995c-.099.15176-1.7827 1.52501-.5777 2.78352.1605.1678.6996.4652.9743.4652.9737 0 1.7857-1.13579 2.6803-2.05129 1.6457-1.68294 3.0232-2.49295 1.3106-4.2234l-2.3827-2.4362c-.6791-.698344-1.569-1.3424036-2.5403-.445409-.2463.227029-.4334.606429-.4576 1.055539-.0531.95684.6973 1.27455 1.0722 1.84705l-20.56853-.00124c-1.304551-.00925-1.7090152.55523-1.74583948 1.31835v.25108c.03139118.71871.31210148 1.56512.45698348 2.26902l2.983976 13.1915c.23242.7317.65016 1.1641 1.56232 1.1641h21.12329c1.0371 0 1.4555-.578 1.6969-1.4325.25-.8828.463-1.6558.7027-2.5299l3.8835-13.89605c.1068-.37631.2294-.89082.3875-1.22766.9194 0 1.869.02406 2.7842.00494.4334-.00926.7932-.18878 1.0081-.43122.9206-1.03766.2047-2.57871-1.0123-2.57871h-4.3676c-.8627 0-1.0299 1.07898-1.2364 1.82175-.2408.86492-.4521 1.61077-.687 2.46519l-3.7488 13.46536c-.1213.4411-.2723.8514-.3634 1.2524zm-17.78798 8.3654c0-2.3684 3.09688-1.9082 3.09688-.3245v.4059c0 1.9211-3.09688 1.9747-3.09688-.0814zm1.94807 4.6293h-.90069c-.96106-.0993-1.91909-.525-2.73526-1.3597-1.13371-1.1592-1.3293-2.1382-1.3293-3.757 0-.984.74916-2.4782 1.4609-3.0537 2.08087-1.6824 4.57226-1.7138 6.42196.1894.7045.7248 1.3287 1.9371 1.3287 3.3517 0 2.5046-2.0133 4.3998-4.24571 4.6293zm12.82211-3.0864c-1.8141 0-2.1449-2.4597-.6381-3.0896.5934-.248 1.339-.0604 1.7344.3443.9339.9556.3254 2.7459-1.0969 2.7459zm.3368 3.0864h-.7449c-1.0462-.087-2.067-.5404-2.8681-1.3597-1.1282-1.1536-1.3293-2.1475-1.3293-3.757 0-.847.4709-1.8477.9418-2.4479 3.5478-4.5177 10.0464-.0204 7.8472 4.7767-.3007.6564-.5572 1.0414-1.0559 1.5189-.7968.7625-1.7844 1.1845-2.7908 1.2684z"/><path d="m101.885 9.25872v-1.05554h-3.6528v13.72572h3.6528v-6.8224c0-1.6855.434-3.6547 2.382-3.6547h.476c1.435 0 2.065 1.1907 2.065 2.6799v7.7972h3.653v-6.3351c0-1.0031.053-2.1715.373-2.8674.674-1.4652 3.323-1.9137 4.194-.1795.3.5965.357 1.5268.357 2.3973v6.9847h3.652v-8.7713c0-2.7817-2.052-5.19811-4.923-5.19811-2.007 0-3.001.50958-4.15 1.84766-.142.16472-.237.32145-.377.42625-.268-1.02712-2.313-2.27391-3.891-2.27391-.94 0-1.56.02345-2.453.41457-.488.21345-.929.59039-1.359.88466zm-8.3379 12.58878h.556c.8934 0 1.747-.873 1.747-1.7866v-.4874c0-.9284-.8391-1.7865-1.747-1.7865-.7021 0-1.2901-.0167-1.8479.628-1.1711 1.3535-.1956 3.4331 1.2919 3.4331zm-56.5405-13.64432h-2.1442v3.32952h2.1442v5.604c0 2.6244 1.9028 4.7916 4.6061 4.7916 1.9619 0 2.2523-.0882 3.8907-.9747l-.556-2.5177c-1.0582-.2517-.1889-.2146-1.3565.1561-1.4101.4473-2.932.0013-2.932-1.699v-5.3603h4.4473v-3.32952h-4.4473v-2.92418c0-.18754-.055-.24368-.2385-.24368h-3.415v3.16786zm88.8604 1.13697v-1.05616h-3.732v13.64491h3.732v-7.6343c0-1.4448 1.158-2.8428 2.701-2.8428 1.974 0 2.779 1.0315 2.779 3.0859v7.3912h3.653v-8.6905c0-1.4762-.711-2.9655-1.448-3.71688-1.179-1.20113-2.319-1.56264-4.191-1.56264-.997 0-2.003.32634-2.764.82728zm-42.8813 1.62435h.7148c1.3631 0 2.5415 1.2011 2.5415 2.599h-6.0356c.0151-.6681.533-1.4084.8916-1.7686.4129-.4152 1.1017-.8304 1.8883-.8304zm-6.4322 3.4923c0 1.4276.0055 2.3536.6339 3.6559.3194.6619.7788 1.475 1.3317 1.9679 3.0528 2.7268 8.2541 2.4424 10.8988-.6699l-.6924-.9976c-.166-.227-.5976-.8032-.658-1.0327-1.3009 0-.1944.0142-1.9052.8939-1.077.5534-2.4304.7261-3.6221.3739-.4467-.1321-.7546-.261-1.0987-.501-.6097-.4256-1.048-1.0808-1.2357-1.9038h8.1792c.3188 0 1.0915.1197 1.2321-.1209.0912-.1548.1177-1.4053.1177-1.7471 0-1.4349-.5227-3.0784-1.3679-4.1241-.4268-.52805-.6194-.74458-1.1874-1.14064-2.588-1.80386-6.5481-1.47258-8.702.73598-1.1325 1.16166-1.9252 2.87916-1.9252 4.61016zm-13.0231 7.2284h3.5732v-4.467c.4032.2763 1.5901 1.5404 1.8502 1.7631l.7818.6626c.1793.148.2216.2116.4304.372 1.9626 1.5046 2.751 1.8322 5.1174 1.8322v-3.4109c-1.7513 0-2.5004-.7237-3.5188-1.5991l-.9285-.8377c-.2433-.19-.3459-.3449-.5795-.5448-.2771-.2369-.4069-.2794-.6115-.5922 1.1463-.7847 3.2767-3.3301 4.7648-3.3301h.8735v-3.49237c-2.2813 0-3.1608.44232-5.0147 1.85629-.2898.22088-.5132.41888-.7945.64898-.6121.501-1.8623 1.8569-2.3706 2.2049v-9.5838h-3.5732v18.5173zm-9.6884-3.1672c-1.0806 0-1.9795-.137-2.7003-.9747-1.7615-2.047-.9169-6.1729 2.3828-6.1729.9598 0 1.6896.3011 2.3241.9525.8886.9125 1.1096 2.5911.7413 3.8884-.3483 1.2283-1.3057 2.3061-2.7479 2.3061zm-7.3057-3.5738c0 3.6682 2.4926 6.9847 6.1943 6.9847 2.1944 0 2.5862-.4596 4.0501-1.4621v1.2178h3.415c.1829 0 .2378-.0561.2378-.2437v-12.99466c0-.18693-.0549-.24368-.2378-.24368h-3.415v1.13697c-.3308-.09068-.8349-.6712-1.5979-.96424-4.2856-1.64716-8.6459 1.53921-8.6459 6.56831z"/></g></svg>