<svg height="191.63" viewBox="0 0 1000 191.63" width="1000" xmlns="http://www.w3.org/2000/svg"><g transform="translate(0 -404.19)"><path d="m791.12 451.83q-23.745 0-37.66 15.05-13.935 15.06-13.93 41.37t13.93 41.26q13.92 14.955 37.66 14.95t37.67-15.05q13.92-15.045 13.93-41.37t-13.93-41.26q-13.935-14.955-37.67-14.95zm23.17 85.15q-8.34 10.425-23.17 10.42t-23.17-10.42q-8.34-10.425-8.33-28.74 0-18.735 8.33-29.16t23.17-10.42q14.835 0 23.17 10.53t8.33 28.84q0 18.54-8.33 28.95z"/><path d="m382.25 451.83c-15.68 0-30.08 10.91-41.13 0l2.43 18.51c12.27 6.86 23.9-.82 35.65-1.67 8.2-.59 12.89.74 17.23 4.32s5.11 10.07 5.11 19.05v7.58q-13.245-6.945-30.13-6.95-18.495 0-31.05 9.05t-12.56 26.52q0 17.475 11.07 26.84t29.56 9.37a49.162 49.162 0 0 0 33.1-12.42v9.89h18.72v-71.36c.01-25.82-10.31-38.73-38-38.73zm19.29 82.31q-13.005 14.1-30.13 14.1-11.865 0-18.38-5.47a18.033 18.033 0 0 1 -6.51-14.53q0-9.675 7.76-14.74t19.86-5.05a54.374 54.374 0 0 1 27.39 7.16v18.53z"/><path d="m511.76 512.03q-9.705-7.785-28.19-13.89-7.08-2.535-9.7-3.68t-7.08-3.47a15.814 15.814 0 0 1 -6.16-4.95 10.388 10.388 0 0 1 -1.71-5.79c0-3.79 2.65-8.07 6.16-10.18s7.37-2.63 13.25-1.82c10.08 1.38 19.98 8.71 31.82 3.03l5.69-19.45c-13.73 11-25.99 0-42.28 0-11.41 0-19.22 2.53-25.37 8.5-7.04 6.84-12.53 25.12.24 39.92 5.17 5.99 15.07 9.61 26.94 13.68q8.91 3.15 13.47 5.16a31.681 31.681 0 0 1 8.9 6.1q4.335 4.11 4.34 9.16a11.149 11.149 0 0 1 -5.94 10.21q-5.94 3.48-15.75 3.47-15.525 0-28.53-12.84l-14.15 11.16a50.592 50.592 0 0 0 18.38 13.16 58.953 58.953 0 0 0 23.86 4.95q19.17 0 30.36-8.1t11.18-22.42q-.045-14.115-9.73-21.91z"/><path d="m605.01 512.03q-9.7-7.785-28.19-13.89-7.08-2.535-9.7-3.68t-7.08-3.47a15.814 15.814 0 0 1 -6.16-4.95 10.388 10.388 0 0 1 -1.71-5.79c0-3.79 2.65-8.07 6.16-10.18s7.37-2.63 13.25-1.82c10.08 1.38 19.98 8.71 31.82 3.03l5.69-19.45c-13.73 11-25.99 0-42.28 0-11.41 0-19.22 2.53-25.37 8.5-7.04 6.84-12.53 25.12.24 39.92 5.17 5.99 15.07 9.61 26.94 13.68q8.91 3.15 13.47 5.16a31.682 31.682 0 0 1 8.9 6.1q4.335 4.11 4.34 9.16a11.149 11.149 0 0 1 -5.94 10.21q-5.94 3.48-15.75 3.47-15.525 0-28.53-12.84l-14.15 11.16a50.592 50.592 0 0 0 18.38 13.16 58.953 58.953 0 0 0 23.86 4.95q19.17 0 30.36-8.1t11.18-22.42q-.045-14.115-9.73-21.91z"/><path d="m1000 470.35v-16h-28.76v-49.82a25.271 25.271 0 0 1 -19.79 14.2l-.05.01v35.62h-18.97v16h18.97v68.42q0 25.68 24.63 25.68a50.818 50.818 0 0 0 22.37-4.84l-.58-16.31c-6.39 3.79-9.31 4.1-14.48 4.1q-7.08 0-9.59-3.79c-1.68-2.53-2.51-6.17-2.51-10.95v-62.31h28.76z"/><path d="m874.77 465.97v-11.73a24.223 24.223 0 0 1 -19.83-14.24v121.92h19.83v-60.62q0-16.635 7.85-24c5.23-4.91 10.56-7.83 17.38-8.07 6.23-.22 9.4.14 17.15 4.83l7.91-13.73c-6.6-4.44-15.48-8.5-22.77-8.5-12.88 0-22.06 3.05-27.52 14.14z"/><path d="m91.76 440a24.223 24.223 0 0 1 -19.83 14.24v67.69c0 11.03.2 18.07-5.21 22.5s-11.6 5.9-20.84 5.9-15.42-1.47-20.84-5.9-5.21-11.47-5.21-22.5v-67.56h.01v-.12a24.223 24.223 0 0 1 -19.83-14.24l-.01 81.92q0 42.48 45.88 42.52 45.87 0 45.88-42.52z"/><path d="m270.19 451.83a42.568 42.568 0 0 0 -29.9 11.58v-23.41a24.223 24.223 0 0 1 -19.83 14.24v141.45l19.83.13v-44q11.64 12.63 29.9 12.63 21.69 0 34.93-15.05t13.24-41.37q0-25.89-13.01-41.05t-35.16-15.15zm19.97 85.36q-7.875 10.215-22.49 10.21-15.3 0-27.39-14.52v-49.68q8.895-14.52 27.39-14.53 14.145 0 22.26 10.74 8.1 10.74 8.1 28.63.015 18.945-7.87 29.15z"/><path d="m157.32 451.83q-17.58 0-29.22 11.79v-45.19a24.223 24.223 0 0 1 -19.83-14.24v157.74h19.83v-9.26q13.23 11.79 29.9 11.79 22.365 0 35.04-14.63t12.67-41.79q0-26.31-13.24-41.26t-35.15-14.95zm20.43 85.15q-7.65 10.42-22.49 10.42a32.572 32.572 0 0 1 -15.52-3.89 30.761 30.761 0 0 1 -11.64-10.63v-49.89q3.42-5.475 10.73-9.89a31.1 31.1 0 0 1 16.44-4.42q14.835 0 22.49 10.11t7.65 29.26q-.015 18.51-7.66 28.93z"/><path d="m677.79 451.83a42.568 42.568 0 0 0 -29.9 11.58v-23.41a24.223 24.223 0 0 1 -19.83 14.24v141.45l19.83.13v-44q11.64 12.63 29.9 12.63 21.69 0 34.93-15.05t13.24-41.37q0-25.89-13.01-41.05t-35.16-15.15zm19.98 85.36q-7.875 10.215-22.49 10.21-15.3 0-27.39-14.52v-49.68q8.895-14.52 27.39-14.53 14.145 0 22.26 10.74t8.1 28.63q0 18.945-7.87 29.15z"/></g></svg>