<svg xmlns="http://www.w3.org/2000/svg" width="186.216" height="40.869" viewBox="0 0 186.216 40.869">
    <defs>
        <style>
            .cls-1{fill:#373435}
        </style>
    </defs>
    <g id="_1138367808">
        <path id="Path_1" d="M3670.325 3702.192c.343 0 .753-.022 1.21-.045a10.7 10.7 0 0 0 1.416-.228 6.371 6.371 0 0 0 1.393-.5 4.613 4.613 0 0 0 1.209-.89 3.413 3.413 0 0 0 .685-1.1 5.909 5.909 0 0 0 .365-1.187 7.026 7.026 0 0 0 .16-1.187c.023-.388.023-.753.023-1.1V3680h4.954v16.622a16.262 16.262 0 0 1-.388 3.425 6.779 6.779 0 0 1-1.9 3.288 7.058 7.058 0 0 1-2.192 1.575 12.908 12.908 0 0 1-2.443.845 15.179 15.179 0 0 1-2.4.342c-.776.046-1.461.046-2.055.046s-1.279-.022-2.055-.046a15.182 15.182 0 0 1-2.4-.342 11.065 11.065 0 0 1-2.443-.845 6.7 6.7 0 0 1-2.192-1.575 6.963 6.963 0 0 1-1.895-3.288 16.231 16.231 0 0 1-.388-3.425V3680h4.954v15.959a16.87 16.87 0 0 0 .16 2.329 4.26 4.26 0 0 0 2.283 3.128 6.022 6.022 0 0 0 1.347.5 9.313 9.313 0 0 0 1.393.228 12.489 12.489 0 0 0 1.256.045z" class="cls-1" transform="translate(-3607.949 -3672.58)"/>
        <path id="Path_2" d="M4874 3680.452a11.8 11.8 0 0 1 .137-1.735 2.842 2.842 0 0 1 .914-1.666 3.174 3.174 0 0 1 1.506-.867 7.49 7.49 0 0 1 1.53-.183h12.013c.434 0 .891.023 1.37.045a8.062 8.062 0 0 1 1.439.274 5.355 5.355 0 0 1 1.392.708 4.689 4.689 0 0 1 1.21 1.347 6.768 6.768 0 0 1 1.1 2.854 25.612 25.612 0 0 1 .182 2.923 26.272 26.272 0 0 1-.16 2.945 8.433 8.433 0 0 1-.913 2.968 5.629 5.629 0 0 1-.617.959 4.74 4.74 0 0 1-.913.868 4.9 4.9 0 0 1-1.347.639 6.5 6.5 0 0 1-1.872.251h-3.271v.182l9.613 9.247h-6l-8.311-8.493a6.717 6.717 0 0 1-.8-1.027 2.1 2.1 0 0 1-.388-1.187v-.594a1.708 1.708 0 0 1 .548-1.3 2.238 2.238 0 0 1 1.6-.5h4.772a5.931 5.931 0 0 0 1.347-.182 2.081 2.081 0 0 0 1.256-.981 2.753 2.753 0 0 0 .3-.776 8.611 8.611 0 0 0 .251-1.964c.023-.32.023-.594.023-.822a9.007 9.007 0 0 0-.25-2.4 3.117 3.117 0 0 0-.64-1.233 2.034 2.034 0 0 0-1.347-.685 9.933 9.933 0 0 0-1.347-.091h-7.74a5.332 5.332 0 0 0-.685.045 1.15 1.15 0 0 0-.571.365 1.2 1.2 0 0 0-.456.685 4.165 4.165 0 0 0-.046.777v20.411h-4.772V3680.5z" class="cls-1" transform="translate(-4795.207 -3668.671)"/>
        <path id="Path_3" d="M6097.817 3696.32a5.31 5.31 0 0 0 .068.981 1.216 1.216 0 0 0 .229.549 1.092 1.092 0 0 0 .776.365c.32.023.594.045.8.045h7.626a9.455 9.455 0 0 0 1.438-.136 2.234 2.234 0 0 0 1.393-.8 2.8 2.8 0 0 0 .524-1.279 7.674 7.674 0 0 0 .138-1.392 10.436 10.436 0 0 0-.092-1.347 2.764 2.764 0 0 0-.456-1.3 2.677 2.677 0 0 0-.822-.685 3.437 3.437 0 0 0-1.781-.388h-9.818v5.389zm0-9.315h9.384a10.042 10.042 0 0 0 1.438-.115 1.834 1.834 0 0 0 1.211-.822 3.069 3.069 0 0 0 .342-.753 6.131 6.131 0 0 0 .206-1.918 12.609 12.609 0 0 0-.114-1.37 2.308 2.308 0 0 0-.73-1.438 1.925 1.925 0 0 0-1.142-.594 11.27 11.27 0 0 0-1.255-.068h-7.922a5.234 5.234 0 0 0-.594.022.749.749 0 0 0-.5.274 1.423 1.423 0 0 0-.273.594 2.7 2.7 0 0 0-.046.571zM6109.1 3676c.343 0 .708.023 1.119.045a5.809 5.809 0 0 1 1.233.206 6.076 6.076 0 0 1 1.21.48 4.687 4.687 0 0 1 1.1.845 4.091 4.091 0 0 1 .868 1.278 8.409 8.409 0 0 1 .479 1.462 11.272 11.272 0 0 1 .229 1.506c.045.5.045.959.045 1.393a13.444 13.444 0 0 1-.182 2.146 4.577 4.577 0 0 1-1.028 2.123 3.63 3.63 0 0 1-1.118.982 3.436 3.436 0 0 1-1.3.365v.16a3.968 3.968 0 0 1 1.622.456 4.435 4.435 0 0 1 1.188.913 4.012 4.012 0 0 1 .685 1.1 5.325 5.325 0 0 1 .365 1.21 11.629 11.629 0 0 1 .136 1.21c0 .388.023.777.023 1.165a23.773 23.773 0 0 1-.182 2.763 5.05 5.05 0 0 1-1.279 2.739 4.441 4.441 0 0 1-1.142.982 5.144 5.144 0 0 1-1.164.5 4.166 4.166 0 0 1-1.187.182c-.411.023-.8.023-1.188.023h-12.283c-.639 0-1.255-.023-1.827-.068a2.362 2.362 0 0 1-1.644-.982 6.446 6.446 0 0 1-.525-.89 3.87 3.87 0 0 1-.342-1.781v-18.723a5.228 5.228 0 0 1 .206-1.461 3.844 3.844 0 0 1 .593-1.233 2.421 2.421 0 0 1 1.347-.89 6.271 6.271 0 0 1 1.37-.183h12.6z" class="cls-1" transform="translate(-5986.375 -3668.671)"/>
        <path id="Path_4" d="M7218.631 3696.119h9.565l-4.041-10.525a7.025 7.025 0 0 0-.274-.685c-.114-.252-.25-.388-.434-.388-.16 0-.3.136-.434.388a6.761 6.761 0 0 0-.273.685l-4.088 10.525zm.707-13.22a5.155 5.155 0 0 1 1.552-2.26 4.2 4.2 0 0 1 2.535-.639 4.262 4.262 0 0 1 2.511.639 5.118 5.118 0 0 1 1.575 2.26l9.384 23.22h-4.932l-2.558-6.53h-11.963l-2.511 6.53H7210l9.384-23.22z" class="cls-1" transform="translate(-7077.873 -3672.58)"/>
        <path id="Path_5" d="M8604.719 3703.489a3.362 3.362 0 0 1-1.028 2.763 3.907 3.907 0 0 1-2.489.845 5.332 5.332 0 0 1-2.076-.411 3.763 3.763 0 0 1-1.759-1.735l-10.024-16.941a4.236 4.236 0 0 0-.364-.5c-.068-.068-.114-.114-.159-.114a.431.431 0 0 0-.3.16.78.78 0 0 0-.158.571v18.973H8582v-22.581a3.291 3.291 0 0 1 .959-2.535 3.685 3.685 0 0 1 2.672-.913 4.3 4.3 0 0 1 2.443.571 4.354 4.354 0 0 1 1.324 1.416l10.091 17.056a1.727 1.727 0 0 1 .229.41.342.342 0 0 0 .319.229c.183 0 .3-.069.319-.229a1.261 1.261 0 0 0 .046-.388V3681h4.361v22.512z" class="cls-1" transform="translate(-8418.548 -3673.557)"/>
        <path id="Path_6" fill="#ed3237" fill-rule="evenodd" d="M1443.434 3355a20.435 20.435 0 1 1-20.434 20.434 20.443 20.443 0 0 1 20.434-20.434z" transform="translate(-1423 -3355)"/>
        <path id="Path_7" fill="#fefefe" fill-rule="evenodd" d="M1617.16 3532.579l-.091-.091m0 0a2.277 2.277 0 0 1-.662-.411 2.333 2.333 0 0 1-.3-.206 3.946 3.946 0 0 1-.32-.274 1.684 1.684 0 0 1 1.282.89zm-1.279-.89l1.279.89m.982-6.37l-1.073-.206a4.379 4.379 0 0 1 .548.023l.388.115c.023 0 .045.022.068.022s.046.023.069.023zm-.891 6.461l1.575-.479a.885.885 0 0 0-.982-.205l-.776-.571a11.263 11.263 0 0 0 1.849-.388l-.091-.594a1.061 1.061 0 0 0-1 .16l-.936.022c.365-.548.411-.342.982-.594l.479-.89-1.667.89-.388-.48a4.153 4.153 0 0 0 .89-.479l.092-.89c-1.119 0-.8.182-1.347 1l-1 1.347c-.251-.183-.228-.343-.342-.731-.343-1.461-.137-.8-1.028-2.4l1.187-1.575c.251 1.1 1.438 1.028 1.827 1.3 1.073.73.274.662 2.077.662l-1.461-1.073 1.667.206c-.069-.274-.046-.228-.274-.411-.137-.114-.046-.023-.182-.114-.206-.137-.046 0-.228-.16.662 0 .708-.114 1.073-.594-.343-.365-.388-.3-1.073-.3l-1.073-.3c.571-.273.343.16 1.758-.388-.251-.936-1.781-.274-2.306.137l-.616.548a.942.942 0 0 1-.434-1.118c.183-.754 1.164-.913 2.169-1.279a26.391 26.391 0 0 1 2.671-.754 9.627 9.627 0 0 1 1.3-.479c.89-.228 4.589-1.256 4.247-2.511-.16-.64-1.37-1.188-1.963-1.484-.5-.251-.685-.206-1.028-.639-.434-.548-.776-1.872-1.164-2.26l-1.119-.662-.388 1.37-1.37-.206.205.685-1.164-.3v.479l-1.073-.3-.205.685c-.845.2-1.438-.5-3.128-.5-1.05 0-2.283.343-3.059-.548l-.959-1.507c1.279 0 2.511.479 3.835-.092.822-.365.617-1.027-.32-.73l-1.644.228c.182-.32.069-.274.411-.457 1.233-.685 1.142-.092 1.644-1.3-1.279-.685-1.279.571-2.283.777-.548.114-.594-.069-.411-.411.183-.32 1.027-1.3.319-1.53l-.867 1.461h-.776l-.388-.776.388-.48c-.525-.776-1.324-.251-1.37.5l.571 2.146c-2.375 1.575.343 2.488.388 3.448.023.662-.32.434-.639.73-.3.3-.091.867-.046 1.233l-1.073 1.85c.251 1.027.457.73.068 1.918a3.987 3.987 0 0 0-.251 1.028 5.176 5.176 0 0 0 0 .594c.023.8-.046.5-.274.8-.205.3-.068 0-.16.434a27.556 27.556 0 0 0-.183 3.653c-.457.228-.822.092-.753.753.046.548.365 2.238 0 2.877l-.8.868c0 .822.091 1.324.091 2.054 0 .777-.023 1.325-.639 1.53-2.032.662-1.438-.5-2.215 2.01 1.484.342.662-.89 1.644-1.1l.913-.16c0 .73-.844 1.918-.229 2.192a.694.694 0 0 0 .982-.365l-.069-1.438.982.092c0 1.461-.228 1.119.776 2.055.982-.845.3-.639-.206-2.261l.982-.206c.228 2.717 2.009 1.713 1.781.959-.16-.594-.73-.8-1.073-1.187-.16-.182-.388-.479-.525-.662-.867-1.142-.8-.5-.708-2.557.045-1.073.228-.913.433-1.827.32-1.37-.091-2.511.868-3.744a4.051 4.051 0 0 1 .183 1.073c.023.616-.091.616.457.822.616.228.343.114.662.594.548.844 1.827 1 2.717 1.187 1.256.251.936.251 1.53 1.1.5.708 1.461 1.1 2.078 1.735a11.472 11.472 0 0 0 2.192 1.827 26.56 26.56 0 0 0 4.5.685 18.34 18.34 0 0 0 5 .206c1.187-.183 2.169-.319 3.333-.593 2.42-.548 2.489-.754 3.607-2.969l.936-1.689.685.091c1.438-1.918.571-.616 1.073-3.63h.685v-3.242l-.776-.981h-.685c0-1.8-1.575-1.9-2.58-2.923-1.141-1.164-1.461-.571-2.945-.776-1.028-.137-1.165-.411-1.393-.365-.206.023-.959.343-1.438.411-2.877.365-1.667.388-2.877.845-.411.16-1.027 0-1.644.229-1.324.457-2.146 1.621-3.539 2.032-.776.228-.639.5-.548 1.165.5 3.653-1.849 2.26-.8 4.018.3.479.548.479.753 1.1.228.754.069.411.982.89 1.119.571 2.648 1.6 4.064 1.484 1.164-.091 1.6-.73 2.648-1.073.867-.274 1.918-.571 2.192-1.53a2.808 2.808 0 0 0-.776-2.786 4.647 4.647 0 0 0-2.58-1.142c-1.37-.228-1.279.069-2.055 1.461 1.8.959 2.009.936 1.575 3.036-1.324 0-3.4.388-3.539-1.37a16.163 16.163 0 0 1 .274-2.169 3.288 3.288 0 0 1 1.918-2.968c1.712-1.027 3.836-1.21 5.731-1.6l.206.479c2.854 0 2.1.571 3.4 1.3l1.1.48-.091.685c.73.388.981.753.981 1.849v2.945a3.791 3.791 0 0 0-1.872 1.667 10.085 10.085 0 0 1-2.4 2.877c-1.233.844-4.361 1-5.913 1.118a17.712 17.712 0 0 1-4.7-.57 4.331 4.331 0 0 1-2.146-1.37c-.411-.708.046-.342-.753-1.028l-.365-.525c-.251-.32-.228-.137-.457-.434z" transform="translate(-1597.913 -3506.688)"/>
    </g>
</svg>
