<svg viewBox="0 0 470.94 104.83" xmlns="http://www.w3.org/2000/svg"><g fill="#62276f"><path d="m136.37 75.25-23.91-63.48c-1.2-3.18-2.32-5.22-3.38-6.12s-2.94-1.43-5.66-1.65v-2.55h27.65v2.55q-4.91 0-6.43 1.43c-1 1-1.11 2.53-.27 4.74l16.32 43.93 11.65-31-4.34-11.33c-1.24-3.18-2.46-5.22-3.68-6.12s-3.47-1.43-6.7-1.65v-2.55h28.81v2.55c-3.27 0-5.42.48-6.43 1.43s-1.09 2.53-.22 4.74l16.74 43.85 14-40.5c1.16-3.22 1.23-5.56.19-7s-3.4-2.27-6.99-2.52v-2.55h21.6v2.55q-4 .63-5.67 2.31c-1.09 1.13-2.3 3.57-3.65 7.34l-21.56 61.6h-2.07l-17.05-44.36-16.88 44.36z"/><path d="m228.68 75a18.59 18.59 0 0 1 -15-7.08q-5.82-7.08-5.83-18.23 0-12 6.43-19.7a20.49 20.49 0 0 1 16.45-7.68q9.31 0 15.25 5.81t5.88 14.73h-34.95v1.45q0 10.21 4.08 15.94a13.15 13.15 0 0 0 11.28 5.76 22.49 22.49 0 0 0 10.46-2.23 19.67 19.67 0 0 0 7.4-7.05l1.7.94a27.84 27.84 0 0 1 -9.18 12.81 22.63 22.63 0 0 1 -13.97 4.53zm11-36.35a18.49 18.49 0 0 0 -2.67-8.87 8.71 8.71 0 0 0 -7.68-4.1h-.16a10.34 10.34 0 0 0 -9.1 4.93 21.14 21.14 0 0 0 -2.88 8z"/><path d="m262.89 61.09v-48.09c0-2.53-.54-4.21-1.63-5.06s-3.15-1.18-6.16-1v-2.07l8.77-2.43 8.82-2.44v61.09q0 5.55 1.82 8t6 2.44v2.08h-25.41v-2.1q4.14 0 6-2.44t1.79-7.98z"/><path d="m291.48 61.09v-48.09c0-2.53-.54-4.21-1.63-5.06s-3.14-1.18-6.15-1v-2.07l8.76-2.43 8.83-2.44v61.09c0 3.7.6 6.36 1.82 8s3.21 2.44 6 2.44v2.08h-25.41v-2.1c2.75 0 4.75-.81 6-2.44s1.78-4.28 1.78-7.98z"/><path d="m321.49 57.51v-40q0-8.35-1.74-10.71c-1.16-1.57-3.91-2.5-8.22-2.78v-2.57h29.4q14.82 0 22.52 4.9t7.71 14.34q0 8.82-8.17 14a21.06 21.06 0 0 1 -3.54 1.87 31.18 31.18 0 0 1 6.21 2.9q9.25 5.55 9.26 14.32 0 10.68-7.82 15.24t-26.17 4.57h-29.4v-2.59c4.31-.28 7.06-1.22 8.22-2.81s1.74-5.11 1.74-10.68zm11.82-45.37v22.19h8.6q8.28 0 13.1-3.81a12.47 12.47 0 0 0 4.82-10.35 12.51 12.51 0 0 0 -4.83-10.39q-4.8-3.78-13.09-3.78h-2.12q-4 0-5.28 1.2t-1.2 4.94zm0 50.76q0 3.9 1.14 5t5.23 1.1h1.25q10.62 0 15.69-3.6t5.06-11.18q0-7.3-5.06-11.07t-14.81-3.76h-8.5z"/><path d="m400.68 75a18.56 18.56 0 0 1 -15-7.08q-5.83-7.08-5.83-18.23 0-12 6.43-19.7a20.47 20.47 0 0 1 16.44-7.68q9.31 0 15.25 5.81t5.89 14.73h-34.95l-.05 1.45q0 10.21 4.08 15.94a13.14 13.14 0 0 0 11.33 5.76 22.41 22.41 0 0 0 10.45-2.23 19.62 19.62 0 0 0 7.41-7.05l1.7.94a27.84 27.84 0 0 1 -9.18 12.81 22.63 22.63 0 0 1 -13.97 4.53zm11-36.35a18.49 18.49 0 0 0 -2.66-8.87 8.72 8.72 0 0 0 -7.68-4.1h-.16a10.33 10.33 0 0 0 -9.1 4.93 21.14 21.14 0 0 0 -2.88 8z"/><path d="m447.79 75a18.59 18.59 0 0 1 -15-7.08q-5.82-7.08-5.83-18.23 0-12 6.43-19.7a20.5 20.5 0 0 1 16.45-7.68q9.31 0 15.25 5.81t5.88 14.73h-34.97v1.49q0 10.21 4.08 15.94a13.15 13.15 0 0 0 11.3 5.72 22.49 22.49 0 0 0 10.46-2.23 19.67 19.67 0 0 0 7.4-7.05l1.7.94a27.84 27.84 0 0 1 -9.18 12.81 22.63 22.63 0 0 1 -13.97 4.53zm11-36.35a18.49 18.49 0 0 0 -2.67-8.87 8.71 8.71 0 0 0 -7.68-4.1h-.16a10.31 10.31 0 0 0 -9.09 4.93 21 21 0 0 0 -2.89 8z"/><path d="m132.79 92.19h8.73v-5.83h.95v13.74h-.95v-7.1h-8.73v7.08h-.95v-13.72h.95z"/><path d="m160.37 96a3.46 3.46 0 0 0 3.51 3.54 3.37 3.37 0 0 0 3.12-1.91l.73.41a4.25 4.25 0 0 1 -3.87 2.29 4.15 4.15 0 0 1 -4.34-4.39 4.23 4.23 0 1 1 8.45.06zm6.65-.78a3.26 3.26 0 0 0 -3.27-2.93 3.31 3.31 0 0 0 -3.31 2.93z"/><path d="m191.7 91.7h.87v8.4h-.87v-1.5a4.1 4.1 0 0 1 -3.44 1.73 4.22 4.22 0 0 1 -4.26-4.43 4.34 4.34 0 0 1 7.74-2.74zm-6.83 4.13a3.48 3.48 0 0 0 3.46 3.71 3.44 3.44 0 0 0 3.41-3.71 3.44 3.44 0 1 0 -6.87 0z"/><path d="m210.6 85.09v15h-.87v-15z"/><path d="m228.7 92.48v7.62h-.87v-7.62h-1v-.78h1v-3h.87v3h1.53v.78z"/><path d="m246 85.09h.86v7.91a3 3 0 0 1 2.71-1.51 2.79 2.79 0 0 1 2.43 1.19 3.88 3.88 0 0 1 .43 2.12v5.3h-.86v-5.3a2.92 2.92 0 0 0 -.35-1.68 1.89 1.89 0 0 0 -1.73-.83 2.33 2.33 0 0 0 -2.16 1.18 4.37 4.37 0 0 0 -.48 2.26v4.37h-.85z"/><path d="m300.11 95.32a15.69 15.69 0 0 1 -1.84 2l2.16 2.78h-1.21l-1.67-2.16a14 14 0 0 1 -2.55 1.74 5.81 5.81 0 0 1 -2.68.69 3.68 3.68 0 0 1 -2.62-1 3.48 3.48 0 0 1 -1.12-2.6 3.92 3.92 0 0 1 .95-2.59 7.4 7.4 0 0 1 1.82-1.46l1.53-1c-1-1.46-1.45-2.14-1.45-3a2.58 2.58 0 0 1 .83-1.89 2.62 2.62 0 0 1 2-.76 2.71 2.71 0 0 1 1.84.67 2.37 2.37 0 0 1 .8 1.88 2.83 2.83 0 0 1 -1.06 2.2 12.59 12.59 0 0 1 -1.62 1.2l3.53 4.53a21.13 21.13 0 0 0 1.68-1.84zm-6.71-2.8-1.36.84a7 7 0 0 0 -1.84 1.51 2.81 2.81 0 0 0 -.63 1.89 2.64 2.64 0 0 0 2.77 2.78 5.5 5.5 0 0 0 2.53-.74 10.23 10.23 0 0 0 2.13-1.58zm1.86-2.33a2 2 0 0 0 .67-1.5 1.68 1.68 0 0 0 -.5-1.24 1.92 1.92 0 0 0 -1.25-.47 1.75 1.75 0 0 0 -1.19.45 1.9 1.9 0 0 0 -.6 1.38 5.34 5.34 0 0 0 1.27 2.56 9.31 9.31 0 0 0 1.6-1.18z"/><path d="m335.81 86.36h3.19c2.51 0 4 1.38 4 3.44a3.3 3.3 0 0 1 -1.69 3 3.34 3.34 0 0 1 3 3.44c0 2.4-1.86 3.85-4.48 3.85h-4zm.95 6.22h2.3a2.91 2.91 0 0 0 2-.57 2.57 2.57 0 0 0 1-2.1 2.61 2.61 0 0 0 -1-2.15 3.93 3.93 0 0 0 -2.39-.57h-1.85zm0 6.69h2.43a4.54 4.54 0 0 0 3.13-.82 2.6 2.6 0 0 0 .93-2.1 2.5 2.5 0 0 0 -1.53-2.56 6.88 6.88 0 0 0 -2.71-.38h-2.25z"/><path d="m361.37 96a3.45 3.45 0 0 0 3.5 3.54 3.37 3.37 0 0 0 3.07-1.91l.74.41a4.28 4.28 0 0 1 -3.87 2.29 4.42 4.42 0 1 1 4.1-4.33zm6.64-.78a3.26 3.26 0 0 0 -3.27-2.93 3.32 3.32 0 0 0 -3.31 2.93z"/><path d="m392.7 91.7h.87v8.4h-.87v-1.5a4.12 4.12 0 0 1 -3.44 1.73 4.23 4.23 0 0 1 -4.26-4.43 4.34 4.34 0 0 1 7.75-2.74zm-6.83 4.13a3.48 3.48 0 0 0 3.45 3.71 3.44 3.44 0 0 0 3.42-3.71 3.44 3.44 0 1 0 -6.87 0z"/><path d="m411.59 91.7v5.06a3.12 3.12 0 0 0 .56 2.1 2.6 2.6 0 0 0 3.51 0 3.12 3.12 0 0 0 .56-2.1v-5.06h.86v5.3a3.45 3.45 0 0 1 -.67 2.3 3.54 3.54 0 0 1 -5 0 3.45 3.45 0 0 1 -.67-2.3v-5.3z"/><path d="m435.18 92.48v7.62h-.87v-7.62h-1v-.78h1v-3h.87v3h1.53v.78z"/><path d="m455.74 100.24-4.2-8.54h1l3.7 7.47 3.22-7.47h1l-5.8 13.13h-1z"/><path d="m93.66 4.5c-16.63-1-29.5-6.13-40.32-1-7.61 3.68-11.65 11.22-10.19 25a35 35 0 0 1 17.53-17.09c9.01-4.14 21.06-3.55 32.98-6.91zm.34 75.84c-8.55-13.12-31.38-1.34-36.37-27.34 14 13.27 30.14 8.31 36.37 27.34zm7.4 8.79c1-15.82 6.43-28.08.95-38.43-3.8-7.2-11.73-11-26.18-9.66a35.15 35.15 0 0 1 17.93 16.69c4.41 8.59 3.77 20.06 7.3 31.4zm-90.64-67.8c8.56 13.07 31.39 1.25 36.37 27.35-14-13.34-30.13-8.37-36.37-27.35zm-7.39-8.85c-1 15.84-6.44 28.09-1 38.4 3.85 7.24 11.83 11.12 26.23 9.7a35.31 35.31 0 0 1 -18-16.69c-4.29-8.59-3.7-20.06-7.23-31.41zm19.07 78.34c13.72-8.15 1.36-29.89 28.72-34.69-14 13.38-8.79 28.69-28.72 34.69zm-9.29 7c16.62 1 29.55 6.17 40.36 1 7.56-3.67 11.65-11.22 10.2-25a35.27 35.27 0 0 1 -17.57 17.09c-9.02 4.14-21.03 3.54-32.99 6.9zm71.26-86.32c-13.73 8.15-1.35 29.94-28.72 34.67 13.95-13.37 8.75-28.69 28.72-34.67z" fill-rule="evenodd"/></g></svg>