<svg width="310" height="78" viewBox="0 0 310 78" fill="none" xmlns="http://www.w3.org/2000/svg">
<path fill-rule="evenodd" clip-rule="evenodd" d="M123.485 31.2323C120.557 32.0946 119.094 35.5471 119.094 39C119.094 42.4529 120.557 45.9054 123.485 46.7677C126.067 47.5283 128.272 46.1601 128.985 44.945C129.698 43.7303 132.55 42.5172 132.855 45.9578C133.791 56.5083 132.813 60.5992 134.919 62.2675C136.597 64.3608 140.712 63.3887 151.325 64.3193C154.785 64.6227 153.565 67.4576 152.343 68.1663C151.121 68.8751 149.745 71.0664 150.51 73.6341C151.377 76.5448 154.85 78 158.323 78C161.797 78 165.269 76.5448 166.137 73.6341C166.902 71.0667 165.526 68.8754 164.303 68.1663C163.081 67.4576 161.861 64.6224 165.322 64.3193C175.935 63.3887 180.05 64.3608 181.728 62.2675C183.834 60.5992 182.856 56.5083 183.792 45.9578C184.097 42.5172 186.949 43.73 187.662 44.945C188.375 46.1601 190.579 47.5283 193.162 46.7677C196.089 45.9054 197.553 42.4529 197.553 39C197.553 35.5471 196.089 32.0946 193.162 31.2323C190.579 30.4716 188.375 31.8399 187.662 33.055C186.949 34.2697 184.097 35.4828 183.792 32.0422C182.856 21.4917 183.834 17.4008 181.728 15.7325C180.05 13.6392 175.935 14.6113 165.322 13.6807C161.861 13.3773 163.081 10.5424 164.303 9.83365C165.526 9.12486 166.902 6.93357 166.137 4.36587C165.269 1.4552 161.797 0 158.323 0C154.85 0 151.377 1.4552 150.51 4.36587C149.745 6.93329 151.121 9.12458 152.343 9.83365C153.565 10.5424 154.785 13.3776 151.325 13.6807C140.712 14.6113 136.597 13.6392 134.919 15.7325C132.813 17.4008 133.791 21.4917 132.855 32.0422C132.55 35.4828 129.698 34.27 128.985 33.055C128.272 31.8399 126.068 30.4716 123.485 31.2323ZM151.859 23.216V24.7534C151.859 27.3055 151.349 27.1966 150.644 26.9299C149.04 26.3237 147.611 26.738 146.616 27.6763C145.689 28.5506 145.226 29.859 145.219 31.4064L145.219 31.4384L145.219 31.471C145.226 33.0185 145.688 34.3268 146.616 35.2008C147.611 36.1395 149.04 36.5535 150.644 35.9475C151.349 35.6803 151.859 35.5717 151.859 38.124V39.6611H141.934L143.338 42.9502H151.859V44.7757C150.924 44.7113 149.99 44.8071 149.137 45.0579C145.301 46.1877 143.978 50.8413 146.947 53.3037C149.44 55.3722 154.213 54.6363 155.001 49.631C156.429 51.6513 155.642 54.7383 153.503 55.9244C150.777 57.4356 147.357 56.1509 145.243 54.1669L144.217 56.0093C145.618 57.9343 147.819 59.2942 150.208 59.5034C153.046 59.7528 155.584 58.9484 157.351 56.6109C158.282 55.3786 158.848 53.8169 158.841 51.9639C158.829 48.9746 157.316 46.936 155.307 45.7984C155.26 45.7725 155.214 45.7469 155.168 45.7218V42.9502V39.6611V36.0116V35.8606V34.0861C155.168 34.0861 155.3 32.3267 153.58 32.3612C151.86 32.3958 152.046 33.5183 150.564 33.3742C149.081 33.2305 148.634 32.1219 148.618 31.4382C148.634 30.7553 149.081 29.6461 150.564 29.5026C152.047 29.3589 151.86 30.4811 153.58 30.5159C155.3 30.5505 155.168 28.7908 155.168 28.7908V28.6796V26.865V23.2157H158.476L156.409 18.4383H153.101L153.745 19.9267H141.934L143.339 23.2157H151.86L151.859 23.216ZM163.483 53.8208C165.314 56.9357 172.137 57.2974 172.804 53.5024C173.053 52.0792 172.35 50.587 170.33 49.9548C168.003 49.2273 164.697 49.6898 162.86 51.3799L161.829 48.1736C163.335 46.8151 166.702 46.1643 168.656 46.2462V42.9502H160.135L158.731 39.6611H168.656V38.124C168.656 35.5719 168.146 35.6803 167.44 35.9475C165.837 36.5535 164.408 36.1395 163.412 35.2008C162.485 34.3268 162.024 33.0185 162.016 31.471V31.4384V31.4064C162.024 29.859 162.485 28.5506 163.412 27.6763C164.408 26.7377 165.837 26.3237 167.44 26.9299C168.146 27.1966 168.656 27.3058 168.656 24.7534V23.216H160.135L158.731 19.927H170.541L169.897 18.4386H173.206L175.273 23.216H171.965V26.8653V28.6799V28.7911C171.965 28.7911 172.097 30.5505 170.377 30.5162C168.656 30.4817 168.843 29.3591 167.36 29.5029C165.878 29.6467 165.431 30.7556 165.415 31.4384C165.431 32.1219 165.878 33.2308 167.36 33.3745C168.844 33.5186 168.656 32.396 170.377 32.3615C172.097 32.3269 171.965 34.0864 171.965 34.0864V36.0119L171.944 36.0553L171.965 36.0656V39.6611V42.9502V46.9474C174.884 48.1235 176.224 50.5563 176.162 52.9942C175.969 60.4769 164.751 62.0447 161.049 55.741L163.483 53.8208ZM151.937 47.9265L151.878 47.9192C151.227 47.8446 150.585 47.8914 150.024 48.0572C149.209 48.297 148.574 48.796 148.429 49.5285C148.367 49.8472 148.385 50.1289 148.465 50.366C148.82 51.4236 150.267 51.3632 150.977 50.789C151.739 50.1729 151.937 48.934 151.937 47.9265H151.937Z" fill="#972E2F"/>
<path fill-rule="evenodd" clip-rule="evenodd" d="M37.2949 42.5274C37.2949 49.5974 41.9912 54.5356 51.1647 54.5356C60.6483 54.5356 63.9584 48.6206 63.9584 43.1944V23.1805H54.8313V42.8383C54.8313 42.8383 55.2335 46.7525 50.6704 46.7525C46.0621 46.7525 46.4649 42.3953 46.4649 42.3953V23.1805H37.3384L37.2949 42.5274Z" fill="#972E2F"/>
<path fill-rule="evenodd" clip-rule="evenodd" d="M91.4096 54.579L108.186 23.1805H97.6742L91.4096 36.3884L85.1927 23.1805H74.679L91.4096 54.579Z" fill="#972E2F"/>
<path fill-rule="evenodd" clip-rule="evenodd" d="M0 54.5356L11.8478 31.1496H0V23.1805H26.6192L14.5483 46.4419H26.6192V54.5356H0Z" fill="#972E2F"/>
<path fill-rule="evenodd" clip-rule="evenodd" d="M290.163 23.1805H299.302V54.579H290.163V23.1805Z" fill="#972E2F"/>
<path fill-rule="evenodd" clip-rule="evenodd" d="M248.364 42.5538C248.364 49.6345 253.066 54.5788 262.253 54.5788C271.75 54.5788 275.065 48.6568 275.065 43.2222V23.1805H265.924V42.8656C265.924 42.8656 266.328 46.7854 261.759 46.7854C257.144 46.7854 257.547 42.422 257.547 42.422V23.1805H248.409L248.364 42.5541V42.5538Z" fill="#972E2F"/>
<path fill-rule="evenodd" clip-rule="evenodd" d="M210.037 54.579L221.901 31.1605H210.037V23.1805H236.692L224.605 46.4739H236.692V54.579H210.037Z" fill="#972E2F"/>
<path d="M307.712 23.1805C308.343 23.1805 308.915 23.4354 309.328 23.8452C309.742 24.2576 309.998 24.8257 309.998 25.4537C309.998 26.0817 309.742 26.6497 309.328 27.061C308.915 27.4722 308.343 27.7263 307.712 27.7263C307.081 27.7263 306.508 27.4719 306.095 27.061C305.681 26.6497 305.425 26.0817 305.425 25.4537C305.425 24.8259 305.681 24.2576 306.095 23.8452C306.508 23.4351 307.08 23.1805 307.712 23.1805ZM306.617 26.2875V24.9215H306.127V24.644H307.44V24.9215H306.952V26.2875H306.618H306.617ZM307.602 26.2875V24.644H308.116L308.401 25.766L308.681 24.644H309.196V26.2875H308.887L308.886 24.9931L308.568 26.2875H308.229L307.912 24.9931L307.911 26.2875H307.602ZM309.072 24.1018C308.723 23.7561 308.242 23.5415 307.712 23.5415C307.18 23.5415 306.699 23.7561 306.351 24.1018C306.003 24.4476 305.788 24.9254 305.788 25.4537C305.788 25.9819 306.003 26.4597 306.351 26.8055C306.699 27.1512 307.18 27.3658 307.712 27.3658C308.242 27.3658 308.723 27.1515 309.072 26.8055C309.42 26.4597 309.635 25.9819 309.635 25.4537C309.635 24.9254 309.42 24.4476 309.072 24.1018Z" fill="#972E2F"/>
</svg>
