<svg id="Layer_1" xmlns="http://www.w3.org/2000/svg" viewBox="0 0 657.6 112.35"><defs><style>.cls-1{fill:#50b9a8;fill-rule:evenodd;}</style></defs><title>01</title><path class="cls-1" d="M623.7,304.36c-2.43-3.5-5.64-7.76-8.91-11.83a21.79,21.79,0,0,0,7-6.44c2.54-3.69,4-8.37,4-14.14,0-9.1-3-15.83-8.69-20.39s-13.91-6.76-24.33-6.76c-3.78,0-8.46.13-12.92.35s-8.43.48-11,.77a2.94,2.94,0,0,0-2.63,2.79c-.41,3.53-.73,16.93-.9,31-.19,17.34-.16,35.9.1,38.53a3,3,0,0,0,1.38,2.21h0a2.71,2.71,0,0,0,.51.26l.1,0,0,0,.48.1h0a2.66,2.66,0,0,0,1.21-.1h.1v0a36,36,0,0,0,6.73.38,94.77,94.77,0,0,0,9.55-.51h0a3.17,3.17,0,0,0,.87-.23,3,3,0,0,0,1.89-2.56c.29-2.56.35-10.74.42-17.56l0-2.73.26,0c.67,0,1.34,0,2,0,4.24,5.71,8.34,12,11.35,16.64,2.92,4.45,4.94,7.53,6.38,8,2,.58,5.54-.35,9-1.73,4.29-1.73,8.91-4.36,9.78-5.64C628.77,313.14,627,309.13,623.7,304.36Zm-23.36-28.05c-1.38,1.09-3.59,1.57-6.32,1.57-1.28,0-2.66,0-3.81-.06h-.35l0-1.61c0-3.2,0-7.18,0-9.93l.22,0c1.06,0,2.25-.06,3.34-.06,3.52,0,5.77.61,7,1.73,1.09.93,1.5,2.47,1.5,4.42A4.79,4.79,0,0,1,600.34,276.31Zm82,33.43a49.46,49.46,0,0,0-.77-8.3,3,3,0,0,0-2.53-2.24c-1.47-.2-5.51-.26-10.32-.26-4.62,0-10,.13-14.39.22.09-5.13.22-14.65.29-24.1.09-12.92.12-25.74,0-27.44A2.87,2.87,0,0,0,654,246v0a3.41,3.41,0,0,0-.45-.48l-.07,0a3,3,0,0,0-2.4-.61,63.48,63.48,0,0,0-7.76-.22c-4.26.13-8.75.41-9.87.77a3.34,3.34,0,0,0-1.47,1,2.69,2.69,0,0,0-.64,1.35c-.39,1.86-.61,16-.68,31.09-.09,16.76,0,34.87.23,38.91a3,3,0,0,0,2.46,2.76c1.74.32,12.38.48,23,.51,12,0,24.29-.9,25.54-2.56H682l0-.13,0-.06v-.17A52.08,52.08,0,0,0,682.36,309.74Zm56.55-54.52c-7-6.57-16.93-10.52-29.11-10.52-4.33,0-10,.07-14.71.26a50.11,50.11,0,0,0-7.79.64,3,3,0,0,0-2.21,2.57c-.39,3.49-.68,17.63-.84,32.27-.16,16.64-.12,34,.13,37.15a3,3,0,0,0,2.44,2.7,64.46,64.46,0,0,0,8.72,1c4.2.26,9.13.45,13.36.45,13.75,0,23.76-3.69,30.49-10,7.5-7,10.86-17.08,10.86-28.78C750.25,271.85,746.21,262.11,738.91,255.22Zm-18,41.67c-2.91,2.15-6.82,2.66-10.22,2.66-1.25,0-2.34,0-3.27-.07h-.07l0-.93c.16-9.87.35-21.57.32-31.34.61,0,1.38,0,2.27,0a15.5,15.5,0,0,1,11.48,4.62c2.79,2.88,4.42,7,4.42,12.08C725.89,290.86,723.81,294.77,720.92,296.89Zm-170.2-46.74c-7.47-5.67-17.44-8.3-27.82-8.65-.9,0-1.83,0-2.76,0-11.41.09-22.41,2.95-30.29,9.58-6.83,5.74-11.28,14.23-11.57,26v.09l0,.61v0a48.1,48.1,0,0,0,11.16,30.61,40.47,40.47,0,0,0,30.23,14.93h.09l.61,0h.07a40.54,40.54,0,0,0,29.52-12.63,48.13,48.13,0,0,0,13.46-31.45v0c0-.61,0-1.25,0-1.89v-.1C563.28,264.8,558.32,256,550.72,250.15Zm-29.88,60.71c-59.78-38.4-6.69-66.86,0-39.1C527.51,244,580.62,272.46,520.84,310.86ZM152,286.47a20,20,0,0,0-7.43-6,16.41,16.41,0,0,0,3.75-4.1,20.4,20.4,0,0,0,2.82-11.19c0-8-3.56-13.52-9.26-17.11-6.45-4.07-15.62-5.58-25.36-5.58-1.06,0-9.71.19-15.83.55-4.11.25-7.41.89-7.89,2.21-.26.67-.19,23.56,0,43.69v0c.2,16.51.68,31.51,1.51,32.18.64.51,6,1,12.34,1.31,5.67.26,12.28.49,17.15.49,10.16,0,18.24-1.83,23.81-5.68s8.56-9.58,8.56-17.47A21.69,21.69,0,0,0,152,286.47Zm-36.31-24.78c.8-.06,1.7-.13,2.75-.13a13.22,13.22,0,0,1,7.12,1.86,4.38,4.38,0,0,1,2,3.75,4.5,4.5,0,0,1-2,4c-1.6,1.06-4.13,1.64-7.56,1.64-1,0-1.73,0-2.41,0C115.65,269.87,115.69,264.64,115.72,261.69Zm13.59,39.91c-1.64,1.09-4.2,1.76-7.82,1.76-1.32,0-2.5,0-3.56-.09l-1.51-.1c0-3.11,0-9,.1-12.15,1.28-.09,2.66-.19,4.33-.19,3.71,0,6.53.64,8.33,1.86a5.07,5.07,0,0,1,2.34,4.52A5.14,5.14,0,0,1,129.31,301.6Zm103.6,17c-.84-4.52-4.33-15.54-8.43-27.85-7.41-22.15-17.7-48.63-18.15-48.76a.76.76,0,0,0-.25-.06c-1.51-.32-7.6-.29-13.43-.13-6.06.19-12.06.64-12.89,1.19s-5.48,13.94-10.45,29.33c-6.15,19.1-13.21,41.63-14.36,46a2.21,2.21,0,0,0,1.6,2.73s.1,0,.16.06a53.92,53.92,0,0,0,8.59,1.28c5.77.55,12.54.61,13.21.07A1.37,1.37,0,0,0,179,322a.38.38,0,0,1,.13-.16l.06-.16c.8-1.7,2.63-7.79,4-12.44l.64-2.18h3.59c5.26,0,12.57.06,16.06,0,.77,2.31,1.86,5.48,2.89,8.3s1.95,5.52,2.4,6.48a2,2,0,0,0,.8,1,2.29,2.29,0,0,0,2.15.16h0c2.85,0,7.92-.06,12.08-.48,3.66-.35,6.9-.87,8-1.57a2.35,2.35,0,0,0,1.06-1.92A1.71,1.71,0,0,0,232.91,318.65Zm-39.65-30.93c-1.8,0-3.53.06-5,.1.8-2.47,1.73-5.42,2.66-8.5,1.13-3.65,2.21-7.37,3.14-10.54.84,3,1.86,6.41,2.92,9.84,1,3.23,2,6.41,2.89,9C197.93,287.69,195.66,287.69,193.26,287.72ZM296,286.47a19.67,19.67,0,0,0-7.44-6,15.69,15.69,0,0,0,3.75-4.1c1.8-2.79,2.82-6.38,2.82-11.19,0-8-3.52-13.52-9.23-17.11-6.44-4.07-15.64-5.58-25.39-5.58-1,0-9.68.19-15.83.55-4.1.25-7.37.89-7.89,2.21-.25.67-.19,23.56,0,43.69v0c.19,16.51.7,31.51,1.53,32.18.65.51,5.93,1,12.35,1.31,5.64.26,12.27.49,17.11.49,10.16,0,18.27-1.83,23.85-5.68s8.53-9.58,8.53-17.47A21.75,21.75,0,0,0,296,286.47Zm-36.32-24.78c.8-.06,1.73-.13,2.79-.13a13.06,13.06,0,0,1,7.08,1.86,4.41,4.41,0,0,1,2.09,3.75,4.53,4.53,0,0,1-2,4c-1.61,1.06-4.14,1.64-7.6,1.64-.93,0-1.73,0-2.37,0C259.64,269.87,259.64,264.64,259.67,261.69Zm13.59,39.91c-1.63,1.09-4.17,1.76-7.79,1.76-1.31,0-2.5,0-3.59-.09l-1.5-.1c0-3.11,0-9,.12-12.15,1.25-.09,2.63-.19,4.3-.19,3.72,0,6.54.64,8.37,1.86a5.12,5.12,0,0,1,2.3,4.52A5,5,0,0,1,273.26,301.6Zm93.53-52.38A2.26,2.26,0,0,0,365,247a35.47,35.47,0,0,0-8-3.2c-2.06-.61-4.17-1.16-5.93-1.61a35.29,35.29,0,0,0-3.72-.7,2.21,2.21,0,0,0-2.21,2c-2.86,3.94-7.76,13.11-11.83,20.7L331,268.42c-1.6-3.43-3.68-7.59-5.7-11.54-3.91-7.59-8-14.71-8.56-15.06a3.49,3.49,0,0,0-.48-.23h0a4.28,4.28,0,0,0-.58-.12c-1.25-.1-5.87,1-10.13,2.34-4.62,1.41-9.1,3.33-9.58,4.77a2,2,0,0,0-.1.32.61.61,0,0,1,0,.23v.06a2.27,2.27,0,0,0,.57,1.64c3.08,6.95,17.41,32.34,21.7,39.94l.42.76c0,2.38-.1,4.84-.16,7.25-.19,9.1-.38,17.5,0,21.44a2.29,2.29,0,0,0,1.83,2.21,24.22,24.22,0,0,0,4.87.68c2.15.16,4.68.29,7.05.29,4.9,0,9.39-.71,10.06-2.7,0-.12.07-.25.1-.38.29-2,.39-6.51.42-11.93,0-5.12,0-11.12-.07-16.6l1.41-2.37C350,279.26,366.79,251.05,366.79,249.22Zm370.26,84.34a40.54,40.54,0,0,0-6.38.19c-.26.16-5.68,17.21-6.22,19.23a26.66,26.66,0,0,0,5.19.45c.19-.22,1-3,1.32-4.13,1,0,5.29,0,6,0,.32,1.05,1.25,3.68,1.47,4.19.1.07,4.59-.12,5.16-.51C743,349.84,737.14,333.59,737.05,333.56Zm-5.32,11.92c.64-1.83,1.82-6,2.21-7.34l.19,0c.35,1.34,1.54,5.38,2.21,7.31C735.22,345.42,732.66,345.45,731.73,345.48Zm-9.59-11.67a15.92,15.92,0,0,0-5,0c-.22,2.69-.16,17.53,0,19.52,0,.19,4.81.38,5-.13C722.3,351.47,722.33,335,722.14,333.81Zm-7.53,15.07c-.83-.1-5.26,0-7.69,0,.06-1.79.16-14.39.09-15.29a22.84,22.84,0,0,0-4.87.13c-.19,1-.26,17.31-.13,19.46,1,.19,12.7.19,12.73,0A18.8,18.8,0,0,0,714.61,348.88Zm-25-15.55c-6.42,0-9.59,4.94-9.59,10,0,6.22,3.72,10.45,9.65,10.45,6.7,0,9.62-5.06,9.62-10C699.26,337.28,695.44,333.33,689.58,333.33Zm0,15.87c-2.69,0-4.39-2.47-4.39-5.58,0-3.46,1.6-5.74,4.49-5.74,2.5,0,4.29,1.8,4.29,5.55C693.93,346.89,692.52,349.2,689.54,349.2Zm-11.63-6.67a47.81,47.81,0,0,0-7.86.23,14.49,14.49,0,0,0,0,3.55c.57,0,3.23-.09,3.23-.09s0,1.95.07,2.63a7.77,7.77,0,0,1-2.5.51c-2.82,0-4.91-1.83-4.91-5.83,0-3.18,2.09-5.45,5-5.45a8.88,8.88,0,0,1,4.26,1.18,15.06,15.06,0,0,0,2.09-4,10.18,10.18,0,0,0-6.41-1.89c-6.32,0-10.1,4.32-10.1,9.93,0,5.84,3.05,10.48,9.58,10.48a13.9,13.9,0,0,0,7.54-2.14A87,87,0,0,0,677.91,342.53ZM658,333.94a19.06,19.06,0,0,0-4.84,0c-.09,1.45.07,7.22,0,11.7-2.34-4.29-7.08-11.6-7.4-12.05-.13-.22-4.49-.22-4.62.29-.22,1.89-.13,17.63,0,19.23,0,.29,3.91.26,4.87,0,.07-2.11-.09-7.11-.09-11.15,2.72,4.2,6.73,10.77,7.27,11.44.32.19,4.49.13,4.62-.38C658.07,351.15,658.16,334.1,658,333.94Zm-29.33-.61c-6.41,0-9.58,4.94-9.58,10,0,6.22,3.72,10.45,9.65,10.45,6.7,0,9.61-5.06,9.61-10C638.35,337.28,634.54,333.33,628.67,333.33Zm0,15.87c-2.69,0-4.39-2.47-4.39-5.58,0-3.46,1.6-5.74,4.49-5.74,2.5,0,4.29,1.8,4.29,5.55C633,346.89,631.62,349.2,628.64,349.2Zm-14-15.61c-.54-.16-4.52-.13-4.81.16-.48.45-2.66,8.4-3.71,12.88h-.17c-.89-4-3.2-12.34-3.71-13.11-.61-.12-4.46-.22-4.62.26-.38,1.16-3.2,17.53-3.3,19,0,.32,3.75.73,4.65.67.41-1.63,1.28-9,1.73-12.15h.13c.67,2.89,2.78,11.22,3.11,12a14.16,14.16,0,0,0,4,.06c.68-1.92,2.5-8.72,3.34-11.95h.09c.39,3.59,1.35,11.47,1.48,12.18.06.22,4.36-.13,4.71-.68C617.55,351.83,614.79,333.69,614.6,333.59Zm-36.19,6.79c-9.2-.38-478.88-.28-484.94,0-.86.19-1.41,5.29.29,6.45,13.82.28,475,.19,485.23,0C580,346.8,581,340.48,578.41,340.38ZM481,249.74v0c0-.06,0-.12,0-.19v0a3.06,3.06,0,0,0-2.76-2.4,25.86,25.86,0,0,0-6.83-1.67,65.58,65.58,0,0,0-10.25-.61.77.77,0,0,0-.26,0h0a3,3,0,0,0-2.6,2.31c-.9,3.53-3.4,14.94-5.54,25.8-.42,2.09-.81,4.14-1.19,6.16-1-4.14-2.05-8.53-3.11-12.73-2.34-9.42-4.55-17.79-5.22-19.29a3,3,0,0,0-.48-.74l-.1-.1a2.9,2.9,0,0,0-2.15-.93,32.43,32.43,0,0,0-6.06-.57,58.6,58.6,0,0,0-9.81.48,2.92,2.92,0,0,0-2,1.86c-1.25,3.39-3.53,11.41-5.9,20-1.06,4-2.15,8.14-3.18,12.08-2.34-12.43-5.54-29.39-6.31-32.59v-.07a2.87,2.87,0,0,0-1.35-1.79l-.06,0a2.77,2.77,0,0,0-1.8-.41,34.68,34.68,0,0,0-6,.06,51.31,51.31,0,0,0-9.26,1.48A6.09,6.09,0,0,0,385,248.1a2.84,2.84,0,0,0-.48,1.57c0,2.09,3.4,19.65,6.89,36.54,3.56,17.18,7.63,34,9,34.56a3,3,0,0,0,.48.16c1.31.35,7.53.61,12.56.51,4.23-.1,8-.67,9-2l.13-.16,0-.06a1.71,1.71,0,0,0,.16-.29c.87-1.76,2.56-7.28,4.52-14.2,1.63-5.8,3.46-12.63,5.16-19.14,1.25,4.81,2.63,9.91,3.94,14.68,2.6,9.27,5,17.28,5.93,19.24a3.1,3.1,0,0,0,1.89,1.63c1.41.42,7.66.67,12.6.45,4.33-.19,8.08-1,8.91-2.92a.84.84,0,0,0,.13-.29c.74-2.3,5.19-21.57,9.1-39,3.08-13.85,5.81-26.6,6-28.94A4.55,4.55,0,0,0,481,249.74Z" transform="translate(-92.65 -241.46)"/></svg>
