<svg height="22.959" width="187.959" xmlns="http://www.w3.org/2000/svg"><path d="m179.05 11.65-10.002 10.916h8.554l10.002-10.916-10.002-10.915h-8.554l10.003 10.915zm-10.002-6.267-2.814 3.873-4.553-1.48 2.814 3.874-2.814 3.874 4.553-1.48 2.814 3.874v-4.788l4.554-1.48-4.554-1.48v-4.786zm-82.97-2.443h13.934v4.644h-9.289v1.858h8.36v4.18h-8.36v2.09h9.29v4.645h-13.936v-17.416zm-51.738 8.75a4.413 4.413 0 1 0 -8.826 0 4.413 4.413 0 0 0 8.826 0zm5.009 0c0 5.099-4.226 9.247-9.421 9.247s-9.421-4.148-9.421-9.247c0-5.098 4.226-9.247 9.42-9.247 5.196 0 9.422 4.149 9.422 9.247zm99.06 3.414v.051c0 3.671-3.07 5.853-7.434 5.853-3.183 0-6.383-1.001-8.591-2.978l2.81-3.311c1.771 1.412 3.823 2.156 5.902 2.156 1.335 0 2.205-.462 2.205-1.232v-.051c0-.745-.681-1.155-3.12-1.72-3.825-.873-6.867-1.95-6.867-5.647v-.052c0-3.337 2.597-5.75 6.909-5.75 3.055 0 5.394.822 7.345 2.388l-2.79 3.295c-1.763-1.041-3.065-1.55-4.657-1.55-1.206 0-1.697.514-1.697 1.155v.052c0 .821.706 1.18 3.196 1.745 4.133.899 6.79 2.234 6.79 5.596zm3.881-12.164h13.935v4.644h-9.29v1.858h8.36v4.18h-8.36v2.09h9.29v4.645h-13.935v-17.416zm-27.885 5.573c0-.559-.46-.929-1.027-.929h-4.099v1.858h4.099c.566 0 1.027-.37 1.027-.93zm5.72 11.844h-5.234l-2.992-6.067c-.12-.17-.315-.203-.525-.203h-2.095v6.27h-4.645v-17.416h8.893c3.014 0 5.543 2.247 5.758 5.142.16 2.147-.915 4.09-2.763 5.166l3.603 7.11zm-42.995-17.416h5.341l-5.68 17.417h-7.602l-5.68-17.417h5.34l3.868 12.37c.053.171.194.184.273.184.08 0 .274-.011.274-.182v.03l3.866-12.402zm-21.86 0h4.644v17.417h-5.314l-6.997-9.753v9.753h-4.645v-17.417h4.77l7.54 9.84v-9.84zm-49.218 8.747c0 2.418 2.084 4.46 4.55 4.46 1.336 0 2.623-.622 3.53-1.709l.325-.389 4.153 2.855-.38.47c-1.841 2.262-4.62 3.561-7.628 3.561-5.329 0-9.664-4.149-9.664-9.248 0-5.1 4.335-9.247 9.664-9.247 3.033 0 5.827 1.316 7.668 3.61l.375.47-4.155 2.856-.325-.399c-.894-1.095-2.226-1.75-3.563-1.75-2.466 0-4.55 2.042-4.55 4.46z"/></svg>