<svg fill="none" height="46" viewBox="0 0 118 46" width="118" xmlns="http://www.w3.org/2000/svg"><g fill="#10069f"><path d="m24.4752 10.2366c-2.8657 0-5.197 2.1994-5.197 4.9029 0 2.7028 2.3313 4.9029 5.197 4.9029 2.865 0 5.1971-2.2001 5.1971-4.9029 0-2.7035-2.3321-4.9029-5.1971-4.9029zm0 12.4719c-4.4244 0-8.0231-3.3957-8.0231-7.569 0-4.174 3.5987-7.56968 8.0231-7.56968 4.4237 0 8.0231 3.39568 8.0231 7.56968 0 4.1733-3.5994 7.569-8.0231 7.569z"/><path d="m19.2826 22.7085h-2.83v-22.708397h2.83z"/><path d="m41.9267 10.2366c-2.865 0-5.1971 2.1994-5.1971 4.9029 0 2.7028 2.3321 4.9029 5.1971 4.9029 2.8649 0 5.197-2.2001 5.197-4.9029 0-2.7035-2.3321-4.9029-5.197-4.9029zm0 12.4719c-4.4237 0-8.0231-3.3957-8.0231-7.569 0-4.174 3.5994-7.56968 8.0231-7.56968 4.4236 0 8.0231 3.39568 8.0231 7.56968 0 4.1733-3.5995 7.569-8.0231 7.569z"/><path d="m49.9506 22.7085h-2.83v-15.13868h2.83z"/><path d="m76.8292 10.2366c-2.8649 0-5.197 2.1994-5.197 4.9029 0 2.7028 2.3321 4.9029 5.197 4.9029 2.8658 0 5.1971-2.2001 5.1971-4.9029 0-2.7035-2.3313-4.9029-5.1971-4.9029zm0 12.4719c-4.4236 0-8.023-3.3957-8.023-7.569 0-4.174 3.5994-7.56968 8.023-7.56968 4.4245 0 8.0239 3.39568 8.0239 7.56968 0 4.1733-3.5994 7.569-8.0239 7.569z"/><path d="m84.8538 22.7085h-2.8309v-15.13868h2.8309z"/><path d="m94.2815 10.2366c-2.8658 0-5.1971 2.1994-5.1971 4.9029 0 2.7028 2.3313 4.9029 5.1971 4.9029 2.8649 0 5.197-2.2001 5.197-4.9029 0-2.7035-2.3321-4.9029-5.197-4.9029zm0 12.4719c-4.4245 0-8.0239-3.3957-8.0239-7.569 0-4.174 3.5994-7.56968 8.0239-7.56968 4.4236 0 8.0235 3.39568 8.0235 7.56968 0 4.1733-3.5999 7.569-8.0235 7.569z"/><path d="m102.305 22.7085h-2.8304v-15.13868h2.8304z"/><path d="m106.539 15.4399h-2.83c0-2.063.698-3.7635 2.077-5.0549 3.056-2.86535 7.535-2.83014 10.529-2.81217.218.00075.59.00225.777.00225v2.67052c-.193 0-.571-.0015-.796-.0022-2.584-.0157-6.294-.0464-8.515 2.0353-.835.7828-1.242 1.8173-1.242 3.1612z"/><path d="m106.539 22.7085h-2.83v-15.13868h2.83z"/></g><path d="m82.9496 33.9693c-.2699 0-.3589-.0592-.3867-.0772-.158-.1026-.3716-.364-.4629-.7693l-.0008-.0015c-.2501-1.1027.6662-2.0016 1.6453-2.102.0603-.006.1207-.0105.1818-.0105.27.0008.3581.0577.3891.0772.1548.1011.37.3648.4621.7716.2645 1.1701-.8067 2.1304-1.8279 2.1117zm4.5341-4.1673c-.6742-.9648-1.7739-1.6046-3.0206-1.7566-2.4465-.3004-4.8937 1.2862-5.5925 3.5994-.3724 1.2368-.1826 2.5245.5225 3.5336.6725.9641 1.7731 1.6045 3.0198 1.7566.1969.0232.393.0352.5891.0352 2.2329 0 4.3602-1.5087 5.0026-3.6354.3732-1.236.1834-2.5237-.5209-3.5328z" fill="#ffa400"/><path d="m55.2277 40.401c-.1191.3978-.0834.7768.0992 1.0397.1485.2113.3804.3379.6916.3753.9299.1117 1.9955-.6255 2.2837-1.5806.1191-.3962.0842-.776-.1-1.0375-.1469-.2127-.3796-.3386-.6908-.376-.9354-.1176-1.9955.6255-2.2837 1.5791zm.979 5.016c-.2239 0-.4494-.0135-.6741-.0405-1.4182-.173-2.6196-.8689-3.3827-1.9619-.7932-1.1349-1.006-2.5926-.5812-3.9964.8044-2.6714 3.6256-4.4969 6.4286-4.1568 1.4174.1723 2.6188.8689 3.3819 1.9611.794 1.1357 1.006 2.5927.582 3.9973-.7424 2.4555-3.1905 4.1972-5.7545 4.1972z" fill="#ffa400"/><path d="m68.2491 3.09368-15.1695 24.47332c9.0577-2.6639 21.5465-4.5673 38.8823-3.8564 2.8236.1161 2.3194 2.1177 2.2233 3.3934 0 0-1.1466-.1918-2.5084-.2802-21.1075-1.4165-43.9245 8.5076-44.1572 8.5811-.2549.0786-.5161.1176-.7734.1176-.6519 0-1.2911-.245-1.7604-.7005-.6567-.6367-.8703-1.5701-.5495-2.4046l16.583-28.39708-6.9353.11611c-1.3562 0-2.7291.57082-2.7291-.70865 0-1.28022 1.0989-2.31698 2.4552-2.31698l10.2448-.926645s6.5494-1.279475 4.1942 2.909525z" fill="#ffa400"/><path d="m3.01739 13.7335h9.20861c-.5693-2.0878-2.45758-3.5568-4.60549-3.5568-2.18523 0-4.03299 1.5065-4.60312 3.5568zm4.60312 8.9076c-4.20212 0-7.62051-3.3964-7.62051-7.5697 0-4.174 3.41839-7.56971 7.62051-7.56971 3.47479 0 6.50809 2.33047 7.37749 5.66701.1176.4524.1485 1.442.1485 1.9027v1.3372h-12.12911c.57013 2.051 2.41789 3.5567 4.60312 3.5567 1.45311 0 2.80299-.66 3.71779-1.8143l.3319-.5768 2.4925 1.2742-.4748.8038c-1.4555 1.8997-3.6662 2.9889-6.06739 2.9889z" fill="#ffa400"/></svg>