<svg viewBox="0 0 544.6 80.36" xmlns="http://www.w3.org/2000/svg"><g transform="translate(-33 -356)"><path d="m213.54 396.11v-5.56h10.46a6.73 6.73 0 0 0 -2-4.28 7 7 0 0 0 -5-1.63 8.67 8.67 0 0 0 -4.09 1 10.55 10.55 0 0 0 -2.81 2 9.52 9.52 0 0 1 -1.33-2.15 4.94 4.94 0 0 1 -.52-2 2.67 2.67 0 0 1 .43-1.5 5.17 5.17 0 0 1 1.54-1.33 11.08 11.08 0 0 1 3.42-1.39 18.43 18.43 0 0 1 4.52-.53 16.89 16.89 0 0 1 4.28.64 12.68 12.68 0 0 1 4.51 2.29 13 13 0 0 1 3.57 4.49 16.25 16.25 0 0 1 1.42 7.3 17.77 17.77 0 0 1 -1.37 7.59 11.52 11.52 0 0 1 -7.92 6.66 19.08 19.08 0 0 1 -4.49.58 16.81 16.81 0 0 1 -5.25-.7 11.51 11.51 0 0 1 -3.21-1.5 3.19 3.19 0 0 1 -1-1.13 3 3 0 0 1 -.23-1.13 3.5 3.5 0 0 1 .18-1 7.65 7.65 0 0 1 .46-1.19 8.74 8.74 0 0 1 .64-1.13 5.5 5.5 0 0 1 .69-.87 7.08 7.08 0 0 0 .9.84 8.63 8.63 0 0 0 1.45.93 9.27 9.27 0 0 0 1.91.72 9.11 9.11 0 0 0 2.35.29 6.65 6.65 0 0 0 5.07-1.77 7.29 7.29 0 0 0 1.88-4.49zm20.43-13a5.06 5.06 0 0 0 .51 2.06 20.3 20.3 0 0 0 1.15 2.23 15.37 15.37 0 0 1 1.4-.93 15.19 15.19 0 0 1 4.15-1.68 9.47 9.47 0 0 1 2.26-.29 10.25 10.25 0 0 1 1.33.09 3.83 3.83 0 0 1 1.24.34 2.51 2.51 0 0 1 .92.76 2.07 2.07 0 0 1 .35 1.3q0 2-4.28 2.9a32.7 32.7 0 0 0 -3.47.89 11 11 0 0 0 -3.09 1.54 7.34 7.34 0 0 0 -3.16 6.26 8.92 8.92 0 0 0 .82 4.11 8.44 8.44 0 0 0 2.41 3 11.08 11.08 0 0 0 3.64 1.86 16 16 0 0 0 4.6.63 21.16 21.16 0 0 0 4.35-.37 14.82 14.82 0 0 0 2.91-.9 10.5 10.5 0 0 0 1.79-1 2.2 2.2 0 0 0 1-1.83 4.34 4.34 0 0 0 -.54-2.06c-.38-.71-.81-1.45-1.3-2.23a9.87 9.87 0 0 1 -1.32 1 13.25 13.25 0 0 1 -1.81.93 14.05 14.05 0 0 1 -2.19.72 9.94 9.94 0 0 1 -2.38.29 10.65 10.65 0 0 1 -1.56-.12 3.78 3.78 0 0 1 -1.41-.46 3.06 3.06 0 0 1 -1-.93 2.46 2.46 0 0 1 -.37-1.5 2.61 2.61 0 0 1 1.34-2.41 14.54 14.54 0 0 1 3.94-1.24 22.17 22.17 0 0 0 3.26-.93 10.85 10.85 0 0 0 2.81-1.53 7.18 7.18 0 0 0 2-2.41 7.83 7.83 0 0 0 .79-3.53 6.88 6.88 0 0 0 -.86-3.65 8.63 8.63 0 0 0 -2.41-2.67 10.9 10.9 0 0 0 -3.54-1.65 16.22 16.22 0 0 0 -4.22-.55 22.45 22.45 0 0 0 -4.14.35 15 15 0 0 0 -3.18.93c-1.71.69-2.62 1.6-2.71 2.72zm-88.23 29.48v-5.27h-20.39v-27.95a4.09 4.09 0 0 1 .92-.14 15.79 15.79 0 0 1 1.74-.09 10.44 10.44 0 0 1 1.85.17 4.43 4.43 0 0 1 1.66.67 3.69 3.69 0 0 1 1.18 1.39 5.11 5.11 0 0 1 .47 2.35v17.28h8.92v-21.63a4.24 4.24 0 0 1 .93-.14 15.61 15.61 0 0 1 1.73-.09 10.64 10.64 0 0 1 1.86.17 4.39 4.39 0 0 1 1.65.67 3.71 3.71 0 0 1 1.19 1.39 5.25 5.25 0 0 1 .46 2.35v17.55h3.09v7.15a4.75 4.75 0 0 1 -.45 2.16 3.49 3.49 0 0 1 -1.13 1.34 4.28 4.28 0 0 1 -1.59.63 9.65 9.65 0 0 1 -1.77.17c-.59 0-1.15 0-1.67-.08l-.63-.08zm144-5.27v-16c0-.84 0-1.62-.06-2.31a4.42 4.42 0 0 0 -.43-1.8 2.58 2.58 0 0 0 -1.15-1.16 4.71 4.71 0 0 0 -2.15-.4 6.15 6.15 0 0 0 -2.85.69 4.79 4.79 0 0 0 -1.88 1.51 32.08 32.08 0 0 1 .18 3.42v16h-7.94v-16c0-.84 0-1.64-.06-2.37a4.45 4.45 0 0 0 -.46-1.88 2.9 2.9 0 0 0 -1.21-1.22 5 5 0 0 0 -2.32-.43 5.79 5.79 0 0 0 -3.33.89 2.66 2.66 0 0 0 -1.31 2.23v18.77h-7.93v-27.4l.69-.11a7.68 7.68 0 0 1 .81-.09h1.1a7.18 7.18 0 0 1 3.22.67 3.14 3.14 0 0 1 1.71 2.34 9.35 9.35 0 0 1 3-2.46 11.41 11.41 0 0 1 5.52-1.13 8.3 8.3 0 0 1 4.85 1.16 7.19 7.19 0 0 1 2.35 2.72 11.52 11.52 0 0 1 3.36-2.69 11.21 11.21 0 0 1 5.46-1.19q4.11 0 6.05 1.74a6.72 6.72 0 0 1 2.29 4.17 24.25 24.25 0 0 1 .32 2.9c.06 1 .09 2.06.09 3.07v16.33zm-130.36-11.21v-5.56h10.43a6.78 6.78 0 0 0 -2-4.28 7 7 0 0 0 -5-1.63 8.67 8.67 0 0 0 -4.09 1 10.55 10.55 0 0 0 -2.81 2 9.52 9.52 0 0 1 -1.33-2.15 4.94 4.94 0 0 1 -.52-2 2.59 2.59 0 0 1 .43-1.5 5.17 5.17 0 0 1 1.54-1.33 11.08 11.08 0 0 1 3.42-1.39 18.43 18.43 0 0 1 4.52-.53 16.89 16.89 0 0 1 4.28.64 12.68 12.68 0 0 1 4.51 2.29 12.88 12.88 0 0 1 3.56 4.49 16.11 16.11 0 0 1 1.43 7.3 17.77 17.77 0 0 1 -1.37 7.59 11.52 11.52 0 0 1 -7.92 6.66 19.08 19.08 0 0 1 -4.49.58 16.81 16.81 0 0 1 -5.25-.7 11.51 11.51 0 0 1 -3.21-1.5 3.19 3.19 0 0 1 -1-1.13 3 3 0 0 1 -.23-1.13 3.5 3.5 0 0 1 .18-1 8.8 8.8 0 0 1 1.1-2.32 5.5 5.5 0 0 1 .69-.87 6.45 6.45 0 0 0 .9.84 8.24 8.24 0 0 0 1.45.93 9.27 9.27 0 0 0 1.91.72 9.09 9.09 0 0 0 2.34.29 6.62 6.62 0 0 0 5.07-1.77 7.24 7.24 0 0 0 1.89-4.49zm40.5 16.45v-5.27h-20.39v-27.92a4.38 4.38 0 0 1 .93-.14 15.79 15.79 0 0 1 1.74-.09 10.61 10.61 0 0 1 1.85.17 4.32 4.32 0 0 1 1.65.67 3.71 3.71 0 0 1 1.19 1.39 5.12 5.12 0 0 1 .46 2.35v17.28h8.92v-21.63a4.38 4.38 0 0 1 .93-.14 15.79 15.79 0 0 1 1.74-.09 10.52 10.52 0 0 1 1.85.17 4.32 4.32 0 0 1 1.65.67 3.63 3.63 0 0 1 1.19 1.39 5.12 5.12 0 0 1 .46 2.35v17.55h3.07v7.15a4.76 4.76 0 0 1 -.44 2.16 3.6 3.6 0 0 1 -1.14 1.34 4.16 4.16 0 0 1 -1.58.63 9.67 9.67 0 0 1 -1.78.17c-.59 0-1.14 0-1.66-.08z" fill="#ff2e52" fill-rule="evenodd"/><path d="m338.77 407.38h-4.55l-1.34-21.52-7.06 15.34h-3.62l-6.64-14.7-1.29 20.88h-4.66l2.1-27.76a3.81 3.81 0 0 1 1.1-.23q.65-.06 1.29-.06a3.35 3.35 0 0 1 3.21 2.16l6.82 15 6.82-15a3.29 3.29 0 0 1 1.64-1.75 4.63 4.63 0 0 1 1.8-.41q.58 0 1.26.06a6.43 6.43 0 0 1 1.14.17l2 27.82zm20.35-16a10.44 10.44 0 0 0 -2.34-5.74 7.16 7.16 0 0 0 -5.77-2.25 8.3 8.3 0 0 0 -4.43 1 11.12 11.12 0 0 0 -2.63 2.19h-.64a12.65 12.65 0 0 1 -.93-1.52 3.43 3.43 0 0 1 -.47-1.57 2.27 2.27 0 0 1 .64-1.46 6.5 6.5 0 0 1 1.87-1.43 12.54 12.54 0 0 1 2.94-1.11 15.86 15.86 0 0 1 3.88-.44 15.23 15.23 0 0 1 3.94.62 12 12 0 0 1 4.26 2.18 12.6 12.6 0 0 1 3.41 4.35 15.75 15.75 0 0 1 1.4 7.09 18.9 18.9 0 0 1 -1.31 7.64 12.32 12.32 0 0 1 -3.27 4.52 10.74 10.74 0 0 1 -4.17 2.18 15.78 15.78 0 0 1 -4 .59 17 17 0 0 1 -5.24-.7 9.39 9.39 0 0 1 -3.21-1.69c-.81-.71-1.23-1.33-1.23-1.87a2.2 2.2 0 0 1 .21-.88 4.56 4.56 0 0 1 .52-.9l.64-.82c.22-.25.4-.45.56-.61a9.22 9.22 0 0 0 7.05 3.27 9 9 0 0 0 3.53-.64 7.12 7.12 0 0 0 2.51-1.78 8 8 0 0 0 1.58-2.71 14.53 14.53 0 0 0 .73-3.45h-12.34v-4.04zm32.14 16h-5v-12.3h-13.02v12.3h-5v-27.94a3.49 3.49 0 0 1 .52-.05h.59a4.59 4.59 0 0 1 2.68.81 3.48 3.48 0 0 1 1.17 3v7.64h13.1v-11.4a3.61 3.61 0 0 1 .53-.05h.58a4.59 4.59 0 0 1 2.68.81 3.48 3.48 0 0 1 1.17 3v24.14zm27.12 5.35v-5.35h-19.66v2.42a2.87 2.87 0 0 1 -1.08 2.2 4.36 4.36 0 0 1 -2.56.78h-.56a2.68 2.68 0 0 1 -.46 0v-9.55h3.09a8 8 0 0 0 1.69-2.39 19.08 19.08 0 0 0 1.22-3.47 38.35 38.35 0 0 0 .88-4.61c.23-1.73.45-3.68.64-5.86l.64-7.11h17.62v23.44h3.16v6.72a2.83 2.83 0 0 1 -1 2.05 4.39 4.39 0 0 1 -2.57.78h-.56a2.79 2.79 0 0 1 -.47 0zm-3.38-9.55v-19.24h-8.64l-.64 6.94a53.56 53.56 0 0 1 -1.05 6.79 15.61 15.61 0 0 1 -2.33 5.51zm31.37 4.2h-4.78v-12.3a12 12 0 0 1 -3.41 2.27 12.34 12.34 0 0 1 -5.22 1 10.75 10.75 0 0 1 -4.26-.73 6.31 6.31 0 0 1 -2.71-2.13 8.91 8.91 0 0 1 -1.46-3.44 22.43 22.43 0 0 1 -.44-4.66v-7.94a3.61 3.61 0 0 1 .53-.05h.58a4.56 4.56 0 0 1 2.68.81 3.48 3.48 0 0 1 1.17 3v4.08a19 19 0 0 0 .2 2.89 5.2 5.2 0 0 0 .79 2.1 3.6 3.6 0 0 0 1.66 1.28 7.71 7.71 0 0 0 2.83.44 11 11 0 0 0 2.39-.27 9.05 9.05 0 0 0 2.22-.75 6.26 6.26 0 0 0 1.63-1.14 1.91 1.91 0 0 0 .65-1.34v-11.06a3.37 3.37 0 0 1 .52-.05h.58a4.62 4.62 0 0 1 2.69.81 3.5 3.5 0 0 1 1.16 3v24.14zm29.05 0h-4.79v-20.76l-13.58 20.76h-4.73v-27.94h.44.67a4.9 4.9 0 0 1 2.54.67c.75.44 1.13 1.39 1.13 2.83v17.26l12.31-18.66a5 5 0 0 1 1.72-1.72 4.4 4.4 0 0 1 1.95-.38c.43 0 .84 0 1.23.05a9.19 9.19 0 0 1 1.11.18v27.76zm29.45 0h-5v-23.44h-8.86l-.76 7.34a42.23 42.23 0 0 1 -1.69 8.87 16.36 16.36 0 0 1 -2.51 5 6.52 6.52 0 0 1 -2.92 2.21 9.37 9.37 0 0 1 -2.91.5c-1.75 0-2.63-1-2.63-3v-.4a2.69 2.69 0 0 1 .06-.53 6.61 6.61 0 0 0 3.5-.73 5.85 5.85 0 0 0 2.33-2.88 24.33 24.33 0 0 0 1.55-5.72q.62-3.62 1.19-9.22l.59-5.65h18v27.64zm10.91 0h-5v-27.64h18.25a3.16 3.16 0 0 1 .12.75v.59a2.86 2.86 0 0 1 -.76 2.07 3.47 3.47 0 0 1 -2.56.79h-10.05zm32.42-16a10.43 10.43 0 0 0 -2.33-5.74 7.18 7.18 0 0 0 -5.77-2.25 8.34 8.34 0 0 0 -4.44 1 11.06 11.06 0 0 0 -2.62 2.19h-.64a12.63 12.63 0 0 1 -.94-1.52 3.4 3.4 0 0 1 -.46-1.57 2.27 2.27 0 0 1 .64-1.46 6.5 6.5 0 0 1 1.87-1.43 12.21 12.21 0 0 1 2.94-1.11 15.86 15.86 0 0 1 3.88-.44 15.23 15.23 0 0 1 3.94.62 12 12 0 0 1 4.25 2.18 12.62 12.62 0 0 1 3.42 4.35 15.75 15.75 0 0 1 1.4 7.09 18.72 18.72 0 0 1 -1.34 7.71 12.19 12.19 0 0 1 -3.26 4.52 10.88 10.88 0 0 1 -4.17 2.18 15.78 15.78 0 0 1 -4 .59 17 17 0 0 1 -5.25-.7 9.22 9.22 0 0 1 -3.21-1.69 2.83 2.83 0 0 1 -1.22-1.87 2.36 2.36 0 0 1 .2-.88 4.61 4.61 0 0 1 .53-.9c.21-.29.43-.56.64-.82s.4-.45.55-.61a9.25 9.25 0 0 0 7.06 3.27 9 9 0 0 0 3.53-.64 7.12 7.12 0 0 0 2.51-1.78 8 8 0 0 0 1.57-2.71 14.53 14.53 0 0 0 .73-3.45h-12.31v-4.11zm24.27 0a10.51 10.51 0 0 0 -2.34-5.74 7.18 7.18 0 0 0 -5.77-2.25 8.34 8.34 0 0 0 -4.44 1 11.26 11.26 0 0 0 -2.62 2.19h-.64a12.65 12.65 0 0 1 -.93-1.52 3.31 3.31 0 0 1 -.47-1.57 2.27 2.27 0 0 1 .64-1.46 6.5 6.5 0 0 1 1.87-1.43 12.37 12.37 0 0 1 2.94-1.11 15.86 15.86 0 0 1 3.88-.44 15.23 15.23 0 0 1 3.94.62 12.08 12.08 0 0 1 4.26 2.18 12.72 12.72 0 0 1 3.41 4.35 15.75 15.75 0 0 1 1.4 7.09 18.9 18.9 0 0 1 -1.31 7.64 12.32 12.32 0 0 1 -3.27 4.52 10.74 10.74 0 0 1 -4.17 2.18 15.78 15.78 0 0 1 -4 .59 17 17 0 0 1 -5.25-.7 9.07 9.07 0 0 1 -3.2-1.69 2.81 2.81 0 0 1 -1.2-1.83 2.36 2.36 0 0 1 .2-.88 5.17 5.17 0 0 1 .53-.9c.21-.29.43-.56.64-.82s.4-.45.56-.61a9.22 9.22 0 0 0 7 3.27 9 9 0 0 0 3.53-.64 7.12 7.12 0 0 0 2.51-1.78 7.82 7.82 0 0 0 1.57-2.71 14.06 14.06 0 0 0 .73-3.45h-12.31v-4.08z" fill="#63a600"/><g fill="#ff2e52"><path d="m227.91 431.59 2.45-14.8h7.9a2.37 2.37 0 0 1 -.26 1.21 1.25 1.25 0 0 1 -1.11.4h-4.89l-.72 4.24.77-.06h.7a5.85 5.85 0 0 1 3.87 1.05 3.75 3.75 0 0 1 1.21 3 5.18 5.18 0 0 1 -.37 2 4.18 4.18 0 0 1 -1.14 1.57 5.47 5.47 0 0 1 -1.93 1 9 9 0 0 1 -2.74.38zm3.91-1.48a4.87 4.87 0 0 0 3-.84 3.14 3.14 0 0 0 1.11-2.68 2.18 2.18 0 0 0 -.86-2 4.1 4.1 0 0 0 -2.3-.58c-.38 0-.69 0-.94 0s-.51 0-.76.06l-1 6z"/><path d="m249.26 431.41a2.45 2.45 0 0 1 -.65.24 3 3 0 0 1 -.68.09 1.87 1.87 0 0 1 -1.2-.33 1.67 1.67 0 0 1 -.52-1.08 4.84 4.84 0 0 1 -.58.62 4.19 4.19 0 0 1 -.7.49 3.87 3.87 0 0 1 -.85.35 4.35 4.35 0 0 1 -1.07.13 2.6 2.6 0 0 1 -2.12-.82 3.16 3.16 0 0 1 -.68-2.12 8.69 8.69 0 0 1 .13-1.5l1.06-6.43a2 2 0 0 1 .4 0 1.11 1.11 0 0 1 .95.38 1.53 1.53 0 0 1 .28.95 2.54 2.54 0 0 1 0 .26v.27l-.77 4.62a4.76 4.76 0 0 0 -.07.56 5.43 5.43 0 0 0 0 .57 2.2 2.2 0 0 0 .36 1.32 1.42 1.42 0 0 0 1.23.5 2.31 2.31 0 0 0 .92-.2 2.49 2.49 0 0 0 .84-.58 4 4 0 0 0 .66-.88 3.8 3.8 0 0 0 .38-1.15l1.08-6.58a2 2 0 0 1 .4 0 1.1 1.1 0 0 1 .95.38 1.5 1.5 0 0 1 .29.94v.27a1.59 1.59 0 0 1 0 .26l-1.08 6.63v.24a1.7 1.7 0 0 0 0 .22.79.79 0 0 0 .13.5.6.6 0 0 0 .49.16 1.76 1.76 0 0 0 .41-.06l.16.86z"/><path d="m258.38 422.78a11.41 11.41 0 0 0 -.22-1.93 5.87 5.87 0 0 0 -.62-1.71 3.72 3.72 0 0 0 -1.08-1.24 2.73 2.73 0 0 0 -1.61-.47 3.68 3.68 0 0 0 -.79.09 2.56 2.56 0 0 0 -.72.27c-.08-.12-.16-.24-.22-.35a.75.75 0 0 1 -.08-.37.89.89 0 0 1 .55-.85 3.32 3.32 0 0 1 1.41-.22 4.14 4.14 0 0 1 2.43.69 5 5 0 0 1 1.6 1.78 8.42 8.42 0 0 1 .89 2.44 13.37 13.37 0 0 1 .27 2.64 16.18 16.18 0 0 1 -.31 3.26 8.19 8.19 0 0 1 -1 2.67 5.21 5.21 0 0 1 -1.74 1.81 4.74 4.74 0 0 1 -2.57.68 4 4 0 0 1 -1.64-.32 3.25 3.25 0 0 1 -1.17-.89 4 4 0 0 1 -.71-1.31 5.31 5.31 0 0 1 -.24-1.63 8.51 8.51 0 0 1 .34-2.41 6 6 0 0 1 1-2 4.62 4.62 0 0 1 1.59-1.32 4.56 4.56 0 0 1 2.11-.49 2.74 2.74 0 0 1 1.41.37 4.93 4.93 0 0 1 1.06.83zm-.09 1.52a2.74 2.74 0 0 0 -.88-.88 2.5 2.5 0 0 0 -1.39-.36 2.9 2.9 0 0 0 -1.42.35 3 3 0 0 0 -1 .94 4.47 4.47 0 0 0 -.64 1.45 7.18 7.18 0 0 0 -.23 1.86 5.17 5.17 0 0 0 .11 1.07 2.78 2.78 0 0 0 .37.88 1.89 1.89 0 0 0 .65.61 2.07 2.07 0 0 0 1 .22 2.57 2.57 0 0 0 1.55-.48 3.61 3.61 0 0 0 1.09-1.3 6.91 6.91 0 0 0 .64-1.94 13.14 13.14 0 0 0 .21-2.42z"/><path d="m277.92 431.59 1-6.21c0-.17.06-.38.09-.61s0-.44 0-.65a1.87 1.87 0 0 0 -.35-1.17 1.38 1.38 0 0 0 -1.13-.44 2.79 2.79 0 0 0 -1.71.59 3 3 0 0 0 -1 2l-1 6.52h-1.89l1-6.21c0-.2.06-.4.08-.58a5.44 5.44 0 0 0 0-.57 2.07 2.07 0 0 0 -.36-1.2 1.11 1.11 0 0 0 -.94-.52 2.87 2.87 0 0 0 -1.79.67 3.46 3.46 0 0 0 -.7.85 3.5 3.5 0 0 0 -.4 1.18l-1.06 6.38h-1.88l1.72-10.49a2.08 2.08 0 0 1 .4-.05 1 1 0 0 1 1.17 1.15v.27a5 5 0 0 1 1.4-1.11 3.76 3.76 0 0 1 1.87-.46 2.49 2.49 0 0 1 1.5.44 2.28 2.28 0 0 1 .82 1.19 6.55 6.55 0 0 1 .65-.64 3.61 3.61 0 0 1 .76-.51 4.17 4.17 0 0 1 .94-.35 4.68 4.68 0 0 1 1.18-.13 2.77 2.77 0 0 1 1.24.25 2.29 2.29 0 0 1 .83.66 2.75 2.75 0 0 1 .46.94 4.32 4.32 0 0 1 .14 1.08 7 7 0 0 1 0 .79c0 .27-.07.53-.11.77l-1 6.2z"/><path d="m290.2 422.71a2.8 2.8 0 0 0 -.61-.28 3.24 3.24 0 0 0 -.87-.1 2.55 2.55 0 0 0 -1.43.46 4.35 4.35 0 0 0 -1.18 1.23 6.8 6.8 0 0 0 -.8 1.83 7.85 7.85 0 0 0 -.3 2.2c0 1.53.6 2.3 1.79 2.3a2.22 2.22 0 0 0 .76-.15 2.74 2.74 0 0 0 .78-.49 3.39 3.39 0 0 0 .67-.84 3.52 3.52 0 0 0 .39-1.21l.8-5zm1.94 8.7a2.33 2.33 0 0 1 -.65.24 3 3 0 0 1 -.67.09 2 2 0 0 1 -1.22-.33 1.63 1.63 0 0 1 -.53-1.08 4.42 4.42 0 0 1 -1.22 1.1 3 3 0 0 1 -1.63.44 3.21 3.21 0 0 1 -1.42-.29 2.85 2.85 0 0 1 -1-.82 3.52 3.52 0 0 1 -.57-1.22 6.48 6.48 0 0 1 -.17-1.49 8.31 8.31 0 0 1 .4-2.54 8.14 8.14 0 0 1 1.13-2.31 6.19 6.19 0 0 1 1.81-1.69 4.5 4.5 0 0 1 2.4-.65 5.55 5.55 0 0 1 1 .09 6.11 6.11 0 0 1 .94.27 7.86 7.86 0 0 1 .81.35c.24.13.45.25.63.37l-1.18 7.55v.24a1.62 1.62 0 0 0 0 .22.79.79 0 0 0 .13.5.6.6 0 0 0 .49.16 1.76 1.76 0 0 0 .42-.06l.15.86z"/><path d="m300 431.59.78-4.68h-4.38l-.77 4.68h-1.88l1.75-10.54a2.18 2.18 0 0 1 .55 0 1.37 1.37 0 0 1 .82.24.93.93 0 0 1 .33.8s0 .09 0 .13a1.13 1.13 0 0 1 0 .15l-.5 3.05h4.3l.71-4.33a2.18 2.18 0 0 1 .55 0 1.37 1.37 0 0 1 .82.24.93.93 0 0 1 .33.8 1.91 1.91 0 0 1 0 .28l-1.55 9.26z"/><path d="m313.78 431.59 1.75-10.54h.21.32a1.42 1.42 0 0 1 .83.24.89.89 0 0 1 .36.8s0 .09 0 .13a1.13 1.13 0 0 1 0 .15l-1.54 9.26zm-8.83 0 1.77-10.54h.18.32a1.31 1.31 0 0 1 .82.24 1 1 0 0 1 .31.8 2.77 2.77 0 0 1 0 .39c0 .15-.05.29-.08.42l-.38 2.26h.59.52a4.2 4.2 0 0 1 2.76.74 2.69 2.69 0 0 1 .86 2.13 4.23 4.23 0 0 1 -.2 1.28 2.88 2.88 0 0 1 -.63 1.1 3.42 3.42 0 0 1 -1.1.79 4.69 4.69 0 0 1 -1.62.41 11.79 11.79 0 0 1 -1.22.07zm3.2-1.39a3.37 3.37 0 0 0 2-.51 1.93 1.93 0 0 0 .7-1.68 1.72 1.72 0 0 0 -.15-.78 1.25 1.25 0 0 0 -.43-.48 1.63 1.63 0 0 0 -.65-.24 4.11 4.11 0 0 0 -.8-.07h-.62l-.57.05-.63 3.71z"/><path d="m330.3 422.71a2.8 2.8 0 0 0 -.61-.28 3.24 3.24 0 0 0 -.87-.1 2.55 2.55 0 0 0 -1.43.46 4.35 4.35 0 0 0 -1.18 1.23 6.8 6.8 0 0 0 -.8 1.83 7.85 7.85 0 0 0 -.3 2.2c0 1.53.6 2.3 1.79 2.3a2.22 2.22 0 0 0 .76-.15 2.74 2.74 0 0 0 .78-.49 3.39 3.39 0 0 0 .67-.84 3.52 3.52 0 0 0 .39-1.21l.8-5zm1.94 8.7a2.45 2.45 0 0 1 -.65.24 3 3 0 0 1 -.67.09 2 2 0 0 1 -1.22-.33 1.63 1.63 0 0 1 -.53-1.08 4.42 4.42 0 0 1 -1.22 1.1 3 3 0 0 1 -1.63.44 3.21 3.21 0 0 1 -1.42-.29 2.85 2.85 0 0 1 -1-.82 3.52 3.52 0 0 1 -.57-1.22 6.48 6.48 0 0 1 -.17-1.49 8.31 8.31 0 0 1 .4-2.54 8.14 8.14 0 0 1 1.13-2.31 6.19 6.19 0 0 1 1.81-1.69 4.5 4.5 0 0 1 2.4-.65 5.55 5.55 0 0 1 1 .09 6.11 6.11 0 0 1 .94.27 7.86 7.86 0 0 1 .81.35c.24.13.45.25.63.37l-1.22 7.55v.24a1.62 1.62 0 0 0 0 .22.79.79 0 0 0 .13.5.6.6 0 0 0 .49.16 1.83 1.83 0 0 0 .42-.06l.15.86z"/><path d="m335.27 427 .24-1.43h1.88a2.67 2.67 0 0 0 1.69-.49 1.62 1.62 0 0 0 .62-1.37 1.17 1.17 0 0 0 -.57-1.06 2.61 2.61 0 0 0 -1.37-.35 3.37 3.37 0 0 0 -1.53.34 3.63 3.63 0 0 0 -1.21 1 4.74 4.74 0 0 1 -.42-.32.75.75 0 0 1 -.24-.6.72.72 0 0 1 .16-.46 1.66 1.66 0 0 1 .37-.38 5.15 5.15 0 0 1 1.29-.67 5.4 5.4 0 0 1 1.8-.28 5.55 5.55 0 0 1 1.38.17 3.51 3.51 0 0 1 1.14.52 2.64 2.64 0 0 1 .77.86 2.44 2.44 0 0 1 .29 1.19 2.33 2.33 0 0 1 -.62 1.65 3.57 3.57 0 0 1 -1.58 1 3.38 3.38 0 0 1 .54.27 2.13 2.13 0 0 1 .56.45 2.22 2.22 0 0 1 .43.66 2 2 0 0 1 .18.92 2.94 2.94 0 0 1 -.29 1.3 3 3 0 0 1 -.85 1.08 4.12 4.12 0 0 1 -1.36.74 5.62 5.62 0 0 1 -1.87.28 6.8 6.8 0 0 1 -1.63-.2 3.92 3.92 0 0 1 -1.3-.55 1.1 1.1 0 0 1 -.58-.86.89.89 0 0 1 .21-.56 3.82 3.82 0 0 1 .43-.46 4.52 4.52 0 0 0 1.16.85 3.48 3.48 0 0 0 1.62.36 2.91 2.91 0 0 0 1.87-.53 1.73 1.73 0 0 0 .67-1.45 1.27 1.27 0 0 0 -.55-1.17 2.63 2.63 0 0 0 -1.46-.36z"/><path d="m352.69 431.59 1.74-10.54a2.13 2.13 0 0 1 .49 0 1.24 1.24 0 0 1 .79.24.92.92 0 0 1 .31.78 2.77 2.77 0 0 1 0 .49l-.09.5-1.43 8.57zm-3.34-1.44c-.16.21-.33.41-.51.62a3.94 3.94 0 0 1 -.61.55 2.54 2.54 0 0 1 -.71.37 2 2 0 0 1 -.81.07 1.46 1.46 0 0 1 -.69-.2l2.98-3.56a11.58 11.58 0 0 1 1.16-1.26 2.9 2.9 0 0 1 1.22-.69 1.22 1.22 0 0 1 -.7-.43 3.5 3.5 0 0 1 -.47-.71l-.82-1.75a1.73 1.73 0 0 0 -.67-.83 1.84 1.84 0 0 0 -.83-.18 1 1 0 0 1 .14-.62c.11-.34.44-.51 1-.51a1.63 1.63 0 0 1 1.1.41 3.11 3.11 0 0 1 .77 1.05l.75 1.65a3.83 3.83 0 0 0 .59.92 1.6 1.6 0 0 0 .92.5l-.25 1.23a2.47 2.47 0 0 0 -1 .44 6.22 6.22 0 0 0 -.91.93l-1.62 2zm8.11-2.07a2.72 2.72 0 0 0 -.61-.89 2 2 0 0 0 -1-.42l.22-1.23a2.06 2.06 0 0 0 1.06-.47 5.46 5.46 0 0 0 .88-.95l1-1.39c.15-.2.31-.41.48-.61a4.12 4.12 0 0 1 .56-.54 2.8 2.8 0 0 1 .67-.39 2 2 0 0 1 .83-.16 1.27 1.27 0 0 1 .67.18.66.66 0 0 1 .3.62 2.41 2.41 0 0 1 0 .31 1.78 1.78 0 0 0 -.93.22 2.67 2.67 0 0 0 -.75.7l-1 1.33c-.25.32-.54.66-.86 1a2.49 2.49 0 0 1 -1.31.73 1.72 1.72 0 0 1 .79.46 4.71 4.71 0 0 1 .76 1.18l1.88 3.77a1.87 1.87 0 0 1 -.35.16 1.15 1.15 0 0 1 -.36.07 1.63 1.63 0 0 1 -1.17-.38 4.19 4.19 0 0 1 -.82-1.24l-1-2.09z"/><path d="m369.89 422.71a2.6 2.6 0 0 0 -.61-.28 3.24 3.24 0 0 0 -.87-.1 2.52 2.52 0 0 0 -1.42.46 4.09 4.09 0 0 0 -1.18 1.23 6.81 6.81 0 0 0 -.81 1.83 7.85 7.85 0 0 0 -.3 2.2c0 1.53.6 2.3 1.79 2.3a2.18 2.18 0 0 0 .76-.15 2.79 2.79 0 0 0 .79-.49 3.15 3.15 0 0 0 .66-.84 3.74 3.74 0 0 0 .4-1.21l.79-5zm1.94 8.7a2.33 2.33 0 0 1 -.65.24 3 3 0 0 1 -.67.09 2 2 0 0 1 -1.22-.33 1.63 1.63 0 0 1 -.53-1.08 4.29 4.29 0 0 1 -1.22 1.1 3 3 0 0 1 -1.62.44 3.25 3.25 0 0 1 -1.43-.29 2.85 2.85 0 0 1 -1-.82 3.33 3.33 0 0 1 -.56-1.22 6 6 0 0 1 -.18-1.49 8.31 8.31 0 0 1 .4-2.54 8.14 8.14 0 0 1 1.13-2.31 6.11 6.11 0 0 1 1.82-1.69 4.45 4.45 0 0 1 2.39-.65 5.75 5.75 0 0 1 1 .09 6.31 6.31 0 0 1 .93.27 7.86 7.86 0 0 1 .81.35c.24.13.45.25.63.37l-1.21 7.55a2 2 0 0 0 0 .24 1.62 1.62 0 0 0 0 .22.85.85 0 0 0 .13.5.6.6 0 0 0 .49.16 1.76 1.76 0 0 0 .42-.06l.15.86z"/><path d="m375.54 430.11a2.52 2.52 0 0 0 .65.26 4.39 4.39 0 0 0 1 .09 2.83 2.83 0 0 0 1.47-.42 4.11 4.11 0 0 0 1.21-1.15 5.92 5.92 0 0 0 .83-1.73 7.6 7.6 0 0 0 .3-2.16 3.45 3.45 0 0 0 -.44-1.87 1.63 1.63 0 0 0 -1.48-.69 2.08 2.08 0 0 0 -.79.18 3.51 3.51 0 0 0 -.83.51 3.23 3.23 0 0 0 -.69.84 3.32 3.32 0 0 0 -.41 1.17l-.82 5zm-2.89 6.25 2.52-15.26a2.08 2.08 0 0 1 .4-.05 1 1 0 0 1 1.17 1.15v.18a4.73 4.73 0 0 1 1.35-1.08 3.46 3.46 0 0 1 1.65-.42 3.1 3.1 0 0 1 1.49.33 2.76 2.76 0 0 1 1 .9 4.05 4.05 0 0 1 .57 1.34 7.66 7.66 0 0 1 .17 1.62 7.75 7.75 0 0 1 -.42 2.55 7.22 7.22 0 0 1 -1.16 2.18 5.61 5.61 0 0 1 -1.75 1.51 4.48 4.48 0 0 1 -2.23.56 5.25 5.25 0 0 1 -1.08-.12 3.36 3.36 0 0 1 -1-.36l-.81 5z"/><path d="m388.22 427.1a13.18 13.18 0 0 0 -1.71 1 1.33 1.33 0 0 0 -.59 1.1 1.14 1.14 0 0 0 .39.84 1.85 1.85 0 0 0 1.31.38 3.63 3.63 0 0 0 1.51-.3 4.65 4.65 0 0 0 1.21-.78 1 1 0 0 1 .41.42 1.07 1.07 0 0 1 .12.48 1 1 0 0 1 -.15.54 1.09 1.09 0 0 1 -.38.39 4.24 4.24 0 0 1 -1.33.53 7.41 7.41 0 0 1 -1.74.2 4 4 0 0 1 -1.28-.19 2.82 2.82 0 0 1 -1-.54 2.68 2.68 0 0 1 -.65-.82 2.34 2.34 0 0 1 -.23-1 2.84 2.84 0 0 1 .26-1.22 3.3 3.3 0 0 1 .7-.95 5.89 5.89 0 0 1 1-.74c.37-.22.77-.43 1.18-.64l.59-.29a12 12 0 0 0 1.46-.83 1.38 1.38 0 0 0 .66-1 1 1 0 0 0 -.29-1 1.62 1.62 0 0 0 -1.1-.36 2.55 2.55 0 0 0 -1.33.36 3.39 3.39 0 0 0 -1 .86 2.1 2.1 0 0 1 -.51-.4.77.77 0 0 1 0-1.09 4.37 4.37 0 0 1 .48-.41 3.72 3.72 0 0 1 1-.51 4.84 4.84 0 0 1 1.5-.22 4.23 4.23 0 0 1 1.41.21 2.51 2.51 0 0 1 1 .58 2.27 2.27 0 0 1 .56.82 2.91 2.91 0 0 1 .17 1 2.47 2.47 0 0 1 -.22 1.09 2.84 2.84 0 0 1 -.59.84 4.41 4.41 0 0 1 -.89.67 11 11 0 0 1 -1.08.56l-.88.44z"/><path d="m400.25 422.71a2.6 2.6 0 0 0 -.61-.28 3.24 3.24 0 0 0 -.87-.1 2.52 2.52 0 0 0 -1.42.46 4.22 4.22 0 0 0 -1.18 1.23 6.81 6.81 0 0 0 -.81 1.83 7.85 7.85 0 0 0 -.3 2.2c0 1.53.6 2.3 1.79 2.3a2.18 2.18 0 0 0 .76-.15 2.65 2.65 0 0 0 .79-.49 3.15 3.15 0 0 0 .66-.84 3.74 3.74 0 0 0 .4-1.21l.79-5zm1.95 8.7a2.53 2.53 0 0 1 -.66.24 3 3 0 0 1 -.67.09 1.92 1.92 0 0 1 -1.21-.33 1.59 1.59 0 0 1 -.53-1.08 4.46 4.46 0 0 1 -1.23 1.1 3 3 0 0 1 -1.62.44 3.25 3.25 0 0 1 -1.43-.29 2.85 2.85 0 0 1 -1-.82 3.5 3.5 0 0 1 -.56-1.22 6 6 0 0 1 -.18-1.49 8.31 8.31 0 0 1 .4-2.54 7.91 7.91 0 0 1 1.14-2.31 6 6 0 0 1 1.81-1.69 4.45 4.45 0 0 1 2.39-.65 5.66 5.66 0 0 1 1 .09 6.83 6.83 0 0 1 .94.27 8.7 8.7 0 0 1 .8.35 5.55 5.55 0 0 1 .63.37l-1.21 7.55a2 2 0 0 0 0 .24v.22a.78.78 0 0 0 .14.5.58.58 0 0 0 .48.16 1.76 1.76 0 0 0 .42-.06l.16.86z"/><path d="m411.09 431.59 1.51-9h-3.29l-.8 2.89a25.41 25.41 0 0 1 -.84 2.62 10.15 10.15 0 0 1 -1 2 4.13 4.13 0 0 1 -1.25 1.25 3 3 0 0 1 -1.63.45.74.74 0 0 1 -.79-.8 2.05 2.05 0 0 1 .06-.49 2.43 2.43 0 0 0 1.31-.36 3.56 3.56 0 0 0 1.03-1.15 11.15 11.15 0 0 0 .92-2c.3-.84.6-1.86.91-3.05l.75-2.78h6.71l-1.69 10.42z"/><path d="m424.85 431.59 1.75-10.54h.21.32a1.42 1.42 0 0 1 .83.24.89.89 0 0 1 .36.8s0 .09 0 .13a1.13 1.13 0 0 1 0 .15l-1.54 9.26zm-8.83 0 1.77-10.54h.18.32a1.31 1.31 0 0 1 .82.24 1 1 0 0 1 .31.8 2.77 2.77 0 0 1 0 .39c0 .15-.05.29-.08.42l-.38 2.26h.59.54a4.2 4.2 0 0 1 2.76.74 2.69 2.69 0 0 1 .86 2.13 4.23 4.23 0 0 1 -.2 1.28 2.88 2.88 0 0 1 -.63 1.1 3.42 3.42 0 0 1 -1.1.79 4.69 4.69 0 0 1 -1.62.41 11.79 11.79 0 0 1 -1.22.07zm3.2-1.39a3.37 3.37 0 0 0 2-.51 1.93 1.93 0 0 0 .7-1.68 1.72 1.72 0 0 0 -.15-.78 1.25 1.25 0 0 0 -.43-.48 1.63 1.63 0 0 0 -.65-.24 4.11 4.11 0 0 0 -.8-.07h-.62l-.57.05-.62 3.69z"/><path d="m436.07 431.59.77-4.68h-4.37l-.77 4.68h-1.88l1.74-10.54a2.28 2.28 0 0 1 .56 0 1.34 1.34 0 0 1 .81.24.93.93 0 0 1 .33.8.57.57 0 0 1 0 .13 1 1 0 0 1 0 .15l-.51 3.05h4.4l.7-4.33a2.23 2.23 0 0 1 .55 0 1.35 1.35 0 0 1 .82.24.93.93 0 0 1 .33.8 1.1 1.1 0 0 1 0 .28l-1.55 9.18z"/><path d="m447 427 .22-1.48h4.49c0-.09 0-.16 0-.21v-.19a3.47 3.47 0 0 0 -.55-2.06 2.21 2.21 0 0 0 -1.88-.74 3.33 3.33 0 0 0 -1.59.37 4.57 4.57 0 0 0 -1.19.89 1.46 1.46 0 0 1 -.41-.41 1 1 0 0 1 -.17-.52.91.91 0 0 1 .36-.75 4.71 4.71 0 0 1 3.26-1.06 4.63 4.63 0 0 1 1.53.25 3.5 3.5 0 0 1 1.28.8 3.81 3.81 0 0 1 .88 1.39 5.55 5.55 0 0 1 .33 2 9 9 0 0 1 -.33 2.44 6.36 6.36 0 0 1 -1 2.11 5 5 0 0 1 -4.21 2 5.74 5.74 0 0 1 -1.54-.2 3.23 3.23 0 0 1 -1.16-.57 2.61 2.61 0 0 1 -.43-.46.78.78 0 0 1 -.16-.47.85.85 0 0 1 .23-.6c.15-.16.31-.31.45-.44a5.52 5.52 0 0 0 1.1.88 2.77 2.77 0 0 0 1.49.38 3.19 3.19 0 0 0 1.39-.28 3 3 0 0 0 1-.74 3.79 3.79 0 0 0 .7-1.08 6.32 6.32 0 0 0 .4-1.3z"/><path d="m461.44 431.59 1.5-9h-3.29l-.79 2.89c-.27 1-.55 1.85-.84 2.62a10.14 10.14 0 0 1 -1 2 4.11 4.11 0 0 1 -1.24 1.25 3 3 0 0 1 -1.64.45.74.74 0 0 1 -.84-.82 2.07 2.07 0 0 1 .07-.49 2.37 2.37 0 0 0 1.3-.36 3.35 3.35 0 0 0 1.06-1.16 10.49 10.49 0 0 0 .93-2c.29-.84.6-1.86.91-3.05l.75-2.78h6.68l-1.72 10.51z"/><path d="m471.51 431.59.84-4.57a4.67 4.67 0 0 1 -3 1.08 2.45 2.45 0 0 1 -2.65-2.72 5.36 5.36 0 0 1 0-.55c0-.19.05-.41.08-.64l.54-3.14h.2.33a1.37 1.37 0 0 1 .84.24 1 1 0 0 1 .32.8 2.07 2.07 0 0 1 0 .35c0 .12 0 .24-.06.35l-.24 1.44c0 .13-.05.25-.07.35s0 .22 0 .33c-.07 1.14.4 1.7 1.41 1.7a3.34 3.34 0 0 0 .82-.1 3.48 3.48 0 0 0 .77-.26 2 2 0 0 0 .6-.4 1.1 1.1 0 0 0 .31-.47l.75-4.29h.21.34a1.34 1.34 0 0 1 .83.24 1 1 0 0 1 .32.8 2.12 2.12 0 0 1 0 .42l-.09.44-1.55 8.68z"/></g><path d="m72.73 359.17a36.43 36.43 0 1 1 -36.43 36.43 36.42 36.42 0 0 1 36.43-36.43z" fill="#fff" fill-rule="evenodd"/><path d="m100.82 367.64a39.71 39.71 0 1 0 11.64 28.09 39.6 39.6 0 0 0 -11.64-28.09zm-28.09-8.47a36.57 36.57 0 1 1 -25.85 10.71 36.44 36.44 0 0 1 25.85-10.71z" fill="#ff2e52" fill-rule="evenodd"/><path d="m76.32 372.75a13 13 0 0 1 3.24 1.39l.11.07.12-.06a7.57 7.57 0 0 1 1.51-.55 13.89 13.89 0 0 1 1.81-.32c.64-.08 1.31-.14 2-.17s1.32 0 1.92 0a12.14 12.14 0 0 1 1.71.14 21.25 21.25 0 0 1 2.09.4v.45a6.22 6.22 0 0 0 -.71.19l-.67.26a10 10 0 0 0 -2.1 1.26 21.7 21.7 0 0 0 -1.71 1.48l-.14.14-.16-.12a9.85 9.85 0 0 0 -2.86-1.56 10.64 10.64 0 0 0 -3.26-.57 10.92 10.92 0 0 0 -3.35.49 10.46 10.46 0 0 0 -3 1.49l-.13.1-.14-.1a10.46 10.46 0 0 0 -3-1.49 10.9 10.9 0 0 0 -3.34-.49 10.7 10.7 0 0 0 -3.27.57 10 10 0 0 0 -2.86 1.56l-.15.12-.15-.14a21.7 21.7 0 0 0 -1.71-1.48 10.19 10.19 0 0 0 -2.12-1.3c-.22-.09-.44-.18-.68-.26a6.06 6.06 0 0 0 -.7-.19v-.45c.71-.17 1.43-.31 2.1-.4a11.89 11.89 0 0 1 1.7-.14h1.92s1.33.09 2 .17a13.6 13.6 0 0 1 1.81.32 7.57 7.57 0 0 1 1.51.55l.12.06.1-.07a14.13 14.13 0 0 1 3.36-1.39 13.64 13.64 0 0 1 3.57-.48 13.12 13.12 0 0 1 3.53.48zm-3.32 9.82a6.25 6.25 0 0 1 0 3.66 13.42 13.42 0 0 1 -1.78 3.84 28.16 28.16 0 0 1 -2.68 3.48l-.3.34-.14.16a22 22 0 0 0 -2.7 3.95 14.21 14.21 0 0 0 -1.4 3.76 9.74 9.74 0 0 0 1.55 7.51 8.23 8.23 0 0 0 2.12 2.18 9 9 0 0 0 2.54 1.27 10.14 10.14 0 0 0 5.81.07 8.81 8.81 0 0 0 3.81-2.17 8.85 8.85 0 0 0 1-1.17 6.18 6.18 0 0 0 .77-1.46 7.14 7.14 0 0 0 .4-1.67 7.49 7.49 0 0 0 0-1.95 8.18 8.18 0 0 0 -.5-1.9 7.06 7.06 0 0 0 -1-1.74 6 6 0 0 0 -1.35-1.31 5.09 5.09 0 0 0 -1.26-.68 5.24 5.24 0 0 0 -1.39-.34 6.56 6.56 0 0 0 -1 0 6.74 6.74 0 0 0 -1 .14 6.4 6.4 0 0 0 -1.49.51 5.37 5.37 0 0 0 -1.25.84 4.59 4.59 0 0 0 -1 1.23 4 4 0 0 0 -.45 1.43 5.25 5.25 0 0 0 0 .69 4.61 4.61 0 0 0 .1.72q.06.29.15.57a4.58 4.58 0 0 0 .22.58 5 5 0 0 0 .34.59 4.7 4.7 0 0 0 .46.56 2.38 2.38 0 0 0 .93.58 1.65 1.65 0 0 0 1 0 2.18 2.18 0 0 0 .34-.14 2.32 2.32 0 0 0 .3-.22 1.55 1.55 0 0 0 .24-.27 1.57 1.57 0 0 0 .18-.31v-.06a1.6 1.6 0 0 0 .08-.78 1.54 1.54 0 0 0 -.36-.78 2.65 2.65 0 0 1 -.36-.51 1.53 1.53 0 0 1 -.17-.51 1.21 1.21 0 0 1 0-.38 1 1 0 0 1 .15-.36 1.1 1.1 0 0 1 .29-.32 1.84 1.84 0 0 1 .39-.24 2.15 2.15 0 0 1 .72-.21 3 3 0 0 1 .79 0 2.31 2.31 0 0 1 .59.14 2.47 2.47 0 0 1 .53.29 2.83 2.83 0 0 1 .68.7 3.81 3.81 0 0 1 .49.94 4.29 4.29 0 0 1 .26 1.07 5 5 0 0 1 0 1.09 4 4 0 0 1 -.19.86 3.26 3.26 0 0 1 -.37.72 5.35 5.35 0 0 1 -.62.71 6.06 6.06 0 0 1 -.74.6 6.22 6.22 0 0 1 -1.7.77 6.86 6.86 0 0 1 -3.81 0 5.85 5.85 0 0 1 -1.66-.82 5.09 5.09 0 0 1 -.71-.61 4.49 4.49 0 0 1 -.58-.71 6.66 6.66 0 0 1 -1.12-3.06 7.41 7.41 0 0 1 .36-3 12.4 12.4 0 0 1 1.36-2.82 21.89 21.89 0 0 1 1.96-2.62l.07-.07.12-.14a31.15 31.15 0 0 0 2.87-3.7 18 18 0 0 0 2.11-4.18l.06-.16a10.64 10.64 0 0 0 .52-4 9 9 0 0 0 -1.42-4.16l-.13-.2.21-.12a7.32 7.32 0 0 1 2.24-.87 6.77 6.77 0 0 1 2.33-.07 8.47 8.47 0 0 1 2.71.93 12.14 12.14 0 0 1 2.58 1.93l.34.33.32-.35a22.59 22.59 0 0 1 2.5-2.41 11.07 11.07 0 0 1 2.74-1.69 7.31 7.31 0 0 1 2.24-.51 7.78 7.78 0 0 1 2.48.28v.44a11.66 11.66 0 0 0 -2.92 1.91 15 15 0 0 0 -2.46 2.81 15.54 15.54 0 0 0 -2.08 4.49 12.2 12.2 0 0 0 -.41 4.51 27.76 27.76 0 0 0 1.58 6.33 28 28 0 0 1 1.22 4.35 13.32 13.32 0 0 1 -.13 5.08 12 12 0 0 1 -.77 2.4 13.75 13.75 0 0 1 -1.28 2.27 15 15 0 0 1 -1.75 2.09 17.49 17.49 0 0 1 -2.17 1.83 18.56 18.56 0 0 1 -5.45 2.65 22.75 22.75 0 0 1 -12.74 0 18.44 18.44 0 0 1 -5.45-2.62 17.49 17.49 0 0 1 -2.17-1.83 14.44 14.44 0 0 1 -1.74-2.09 13 13 0 0 1 -1.27-2.27 12.7 12.7 0 0 1 -.78-2.4c-.81-3.84.11-6.54 1.09-9.43a28.29 28.29 0 0 0 1.57-6.36 12 12 0 0 0 -.42-4.51 15.51 15.51 0 0 0 -2.07-4.49 15 15 0 0 0 -2.48-2.84 11.84 11.84 0 0 0 -2.92-1.91v-.44a7.84 7.84 0 0 1 2.49-.28 7.38 7.38 0 0 1 2.24.51 11.07 11.07 0 0 1 2.74 1.67 24.49 24.49 0 0 1 2.5 2.41l.32.35.34-.33a12.2 12.2 0 0 1 2.45-1.86 8.58 8.58 0 0 1 2.58-1 6.73 6.73 0 0 1 2.49 0 7.51 7.51 0 0 1 2.4.92 6.63 6.63 0 0 1 2.73 3.37z" fill="#ff2e52" fill-rule="evenodd"/><path d="m55.84 366.05a13.37 13.37 0 0 0 -.83 4.68l-1.01.27c-4.76 1.14-6.88 2.7-10 6.4a34.82 34.82 0 0 1 4.66-5.81 34.28 34.28 0 0 1 7.21-5.51zm46.09 25.62a18.39 18.39 0 0 0 3.38-6.27 34 34 0 0 0 -3.47-7.58c-2.07.14-3.09.55-4 1.64 2.39 2.49 4.44 5.88 4.11 12.21zm-7.63-4.21c.94 2.44 1.69 4.83 1.08 10.48 6-4.93 4.68-12.06 0-16.87a12.69 12.69 0 0 0 -2.19 2.51 11.22 11.22 0 0 0 -2 7.16 26.53 26.53 0 0 0 1.45 5.73c.38 1.1.74 2.17 1 3.29a37.9 37.9 0 0 0 .64-12.3zm1 23.73c4.42-3.77 7.94-6.75 9.43-11.36.24 5-4.52 9.55-7.12 12a11.07 11.07 0 0 0 6.63-2.94 34.09 34.09 0 0 0 2.64-13.19 34.78 34.78 0 0 0 -.41-5.34 14.3 14.3 0 0 1 -3.71 4.71c-3.78 3.58-9.08 5.7-7.46 16.09zm6.58 2.34c-8.24.74-14.42 6.22-16.85 14.08a34.3 34.3 0 0 0 16.85-14.08zm-26.48 16.27a34.43 34.43 0 0 0 6.13-1c1.86-9.46 10-11.45 11.35-15.84a20.56 20.56 0 0 0 .57-4.17 15.75 15.75 0 0 1 -2.12 4.21 19.36 19.36 0 0 1 -4.6 4.61 22.19 22.19 0 0 1 -6.09 3l-.72.21c-.66.19-1.32.36-2 .5-1.85.38-2.62.52-2.81 1.56a17.2 17.2 0 0 0 -.37 3 19.11 19.11 0 0 0 .66 3.87zm-5.38 0a34.43 34.43 0 0 1 -6.13-1c-1.86-9.46-10-11.45-11.35-15.84a22.08 22.08 0 0 1 -.57-4.17 16.07 16.07 0 0 0 2.13 4.21 19 19 0 0 0 4.6 4.61 21.91 21.91 0 0 0 6.09 3l.72.21c.65.19 1.32.36 2 .5 1.86.38 2.63.52 2.81 1.56a17.22 17.22 0 0 1 .38 3 19.13 19.13 0 0 1 -.7 3.92zm-26.5-16.27c8.24.74 14.42 6.22 16.86 14.08a34.28 34.28 0 0 1 -16.86-14.08zm6.58-2.34c-4.41-3.77-7.94-6.75-9.43-11.36-.23 5 4.52 9.55 7.13 12a11.07 11.07 0 0 1 -6.64-2.94 34.09 34.09 0 0 1 -2.64-13.19 33.56 33.56 0 0 1 .42-5.34 14 14 0 0 0 3.71 4.71c3.77 3.58 9.08 5.7 7.45 16.09zm1-23.73c-.94 2.44-1.7 4.83-1.08 10.48-6-4.93-4.69-12.06 0-16.87a12.69 12.69 0 0 1 2.19 2.51 11.1 11.1 0 0 1 2 7.16 26 26 0 0 1 -1.45 5.73c-.37 1.1-.74 2.17-1 3.29a37.9 37.9 0 0 1 -.64-12.3zm-7.64 4.21a18.39 18.39 0 0 1 -3.38-6.27 34 34 0 0 1 3.47-7.58c2.07.14 3.09.55 4 1.64-2.39 2.49-4.44 5.88-4.11 12.21zm40.54-26.05a10.52 10.52 0 0 1 1 4.74c.79 0 1.47-.05 2-.05h.94a7.06 7.06 0 0 0 -.38-5.42 33.79 33.79 0 0 0 -7.14-2.51c1.24 4 .6 7.05-.46 8.61a28.91 28.91 0 0 1 4.24-.63 12.32 12.32 0 0 0 -.25-4.78zm-7.07-3.54a5.05 5.05 0 0 1 2 3.94 5.13 5.13 0 0 1 -2.31 4.17h-.25a7.38 7.38 0 0 0 -.13-4.76 8.91 8.91 0 0 1 -.89 4.6 17.86 17.86 0 0 0 -2.9-.18c-.77-2.46 3.17-4.77 2.27-8.2.54 0 1.07.07 1.6.13.21.11.41.22.6.34zm-8.34 8.1a4.91 4.91 0 0 1 .11-8.39h.23a7.68 7.68 0 0 0 0 5.05 9.87 9.87 0 0 1 1.13-5.16c.73 0 1.47-.09 2.22-.1 2 2.62-2.23 4.92-1.94 8.34a15.69 15.69 0 0 0 -1.8.29zm-7-4.56a10.52 10.52 0 0 0 -1 4.74c-.79 0-1.47-.05-2.06-.05-.29 0-.6 0-.93 0a7 7 0 0 1 .38-5.42 33.59 33.59 0 0 1 7.14-2.51c-1.24 4-.6 7.05.46 8.61a28.91 28.91 0 0 0 -4.24-.63 12.13 12.13 0 0 1 .25-4.78zm28.1.43a13.15 13.15 0 0 1 .83 4.68l1.07.24c4.75 1.14 6.88 2.7 10 6.4a34.38 34.38 0 0 0 -4.67-5.81 34 34 0 0 0 -7.21-5.51z" fill="#63a600" fill-rule="evenodd"/><path d="m102.11 433.45h-.82v-5.55h-2a1.1 1.1 0 0 1 0-.26.41.41 0 0 1 .14-.32.62.62 0 0 1 .43-.14h4.3s0 .07 0 .12 0 .08 0 .1a.52.52 0 0 1 -.14.36.63.63 0 0 1 -.44.14h-1.48v5.55zm8.73 0h-.77l-.34-4.93-1.67 3.5h-.79l-1.59-3.34-.34 4.77h-.78l.47-6.24h.17.23a.43.43 0 0 1 .31.1.63.63 0 0 1 .2.25l1.74 3.79 1.74-3.77a.61.61 0 0 1 .26-.3.82.82 0 0 1 .3-.07h.24.18z" fill="#61a60f" fill-rule="evenodd"/></g></svg>