<svg height="88.173" viewBox="0 0 139.804 88.173" width="139.804" xmlns="http://www.w3.org/2000/svg"><g fill="#404041" fill-rule="evenodd"><path d="m562.06 499.14 9.476 38.077 2.394-9.506-7.147-28.571z" transform="translate(-503.38 -485.33)"/><path d="m366.12 546.907a11.589 11.589 0 1 0 23.177 0v-20.3h-11.588v4.669h6.953v15.626a6.953 6.953 0 1 1 -13.905 0v-39.059a6.953 6.953 0 1 1 13.905 0v8.6l4.636-.793v-7.812a11.589 11.589 0 1 0 -23.177 0v39.061z" transform="translate(-366.084 -483.249)"/><path d="m662.55 546.9a11.589 11.589 0 1 0 23.177 0v-39.064a11.589 11.589 0 1 0 -23.177 0zm4.636-39.064a6.953 6.953 0 1 1 13.905 0v39.064a6.953 6.953 0 1 1 -13.905 0z" transform="translate(-573.794 -483.242)"/><path d="m471.95 546.9a11.589 11.589 0 1 0 23.178 0v-39.064a11.589 11.589 0 1 0 -23.178 0zm4.633-39.064a6.953 6.953 0 1 1 13.905 0v39.064a6.953 6.953 0 1 1 -13.905 0z" transform="translate(-440.24 -483.242)"/><path d="m798.946 453a5.235 5.235 0 1 1 -5.2 5.235 5.217 5.217 0 0 1 5.2-5.235zm0 .658a4.576 4.576 0 1 1 -4.543 4.576 4.561 4.561 0 0 1 4.543-4.576z" transform="translate(-665.726 -453)"/><path d="m366.847 729.78 1.362 4.289 1.362-4.289h.844v5.259h-.655v-2.047l.063-2.053-1.365 4.1h-.5l-1.359-4.085.06 2.038v2.047h-.659v-5.259z" transform="translate(-366 -646.941)"/><path d="m400.578 732.689a2.641 2.641 0 0 1 -.455 1.658 1.542 1.542 0 0 1 -1.293.581 1.565 1.565 0 0 1 -1.275-.566 2.518 2.518 0 0 1 -.485-1.6v-.991a2.672 2.672 0 0 1 .461-1.655 1.705 1.705 0 0 1 2.574-.024 2.6 2.6 0 0 1 .473 1.634v.961zm-.655-.922a2.266 2.266 0 0 0 -.269-1.239 1.036 1.036 0 0 0 -1.646.006 2.183 2.183 0 0 0 -.281 1.212v.943a2.236 2.236 0 0 0 .278 1.227 1.038 1.038 0 0 0 1.646.033 2.2 2.2 0 0 0 .275-1.194v-.988z" transform="translate(-387.771 -646.759)"/><path d="m428.5 735.039h-.661l-2.089-4.052v4.052h-.658v-5.259h.658l2.1 4.07v-4.07h.652z" transform="translate(-407.405 -646.941)"/><path d="m456.185 734.2-.114.144a1.792 1.792 0 0 1 -1.449.581 1.654 1.654 0 0 1 -1.329-.566 2.433 2.433 0 0 1 -.494-1.6v-1.035a2.629 2.629 0 0 1 .44-1.658 1.836 1.836 0 0 1 2.478-.132 1.755 1.755 0 0 1 .464 1.2h-.655a1.333 1.333 0 0 0 -.272-.769.866.866 0 0 0 -.7-.275.934.934 0 0 0 -.823.371 2.154 2.154 0 0 0 -.272 1.182v1.071a2.084 2.084 0 0 0 .3 1.218 1 1 0 0 0 .865.425 1.141 1.141 0 0 0 .805-.258l.1-.09v-1.206h-.952v-.569h1.607v1.966z" transform="translate(-426.821 -646.759)"/><path d="m483.738 732.689a2.641 2.641 0 0 1 -.455 1.658 1.538 1.538 0 0 1 -1.293.581 1.565 1.565 0 0 1 -1.275-.566 2.518 2.518 0 0 1 -.485-1.6v-.991a2.653 2.653 0 0 1 .461-1.655 1.705 1.705 0 0 1 2.574-.024 2.579 2.579 0 0 1 .473 1.634v.961zm-.655-.922a2.266 2.266 0 0 0 -.269-1.239.929.929 0 0 0 -.829-.4.92.92 0 0 0 -.817.41 2.183 2.183 0 0 0 -.281 1.212v.943a2.236 2.236 0 0 0 .278 1.227.927.927 0 0 0 .829.422.917.917 0 0 0 .817-.389 2.2 2.2 0 0 0 .275-1.194v-.988z" transform="translate(-446.042 -646.759)"/><path d="m508.911 734.467h2.047v.572h-2.708v-5.259h.661z" transform="translate(-465.675 -646.941)"/><path d="m533.578 735.039h-.659v-5.259h.659z" transform="translate(-482.962 -646.941)"/><path d="m553.57 733.662h-1.763l-.4 1.377h-.673l1.682-5.259h.563l1.685 5.259h-.673l-.416-1.377zm-1.592-.569h1.422l-.712-2.388-.712 2.388z" transform="translate(-495.441 -646.941)"/><path d="m582.546 735.039h-.658l-2.089-4.052v4.052h-.659v-5.259h.659l2.095 4.07v-4.07h.653z" transform="translate(-515.348 -646.941)"/><path d="m636.648 733.2a1.98 1.98 0 0 1 -.47 1.3 1.58 1.58 0 0 1 -1.209.452 1.491 1.491 0 0 1 -1.248-.6 2.613 2.613 0 0 1 -.461-1.631v-.955a2.535 2.535 0 0 1 .476-1.622 1.565 1.565 0 0 1 1.3-.6 1.5 1.5 0 0 1 1.17.455 2.014 2.014 0 0 1 .449 1.3h-.661a1.645 1.645 0 0 0 -.269-.916.84.84 0 0 0 -.688-.275.933.933 0 0 0 -.82.419 2.189 2.189 0 0 0 -.287 1.233v.964a2.3 2.3 0 0 0 .266 1.224.861.861 0 0 0 .781.425.931.931 0 0 0 .739-.257 1.61 1.61 0 0 0 .278-.922h.658z" transform="translate(-553.27 -646.773)"/><path d="m661.94 733.662h-1.763l-.4 1.377h-.677l1.682-5.259h.563l1.685 5.259h-.673l-.416-1.377zm-1.592-.569h1.425l-.712-2.388-.712 2.388z" transform="translate(-571.376 -646.941)"/><path d="m689.171 733.539a.814.814 0 0 0 -.212-.6 2.129 2.129 0 0 0 -.763-.407 3.339 3.339 0 0 1 -.844-.416 1.459 1.459 0 0 1 -.437-.5 1.478 1.478 0 0 1 .269-1.67 1.484 1.484 0 0 1 1.083-.4 1.609 1.609 0 0 1 .817.207 1.4 1.4 0 0 1 .551.575 1.714 1.714 0 0 1 .194.808h-.658a1.1 1.1 0 0 0 -.233-.754.839.839 0 0 0 -.67-.266.821.821 0 0 0 -.617.224.859.859 0 0 0 -.219.628.744.744 0 0 0 .236.557 2.052 2.052 0 0 0 .73.4 2.517 2.517 0 0 1 1.1.631 1.431 1.431 0 0 1 .332.985 1.335 1.335 0 0 1 -.413 1.024 1.576 1.576 0 0 1 -1.122.383 1.78 1.78 0 0 1 -.841-.2 1.51 1.51 0 0 1 -.6-.566 1.579 1.579 0 0 1 -.221-.832h.658a1.012 1.012 0 0 0 .272.757 1 1 0 0 0 .736.272.871.871 0 0 0 .652-.224.823.823 0 0 0 .221-.611z" transform="translate(-590.667 -646.773)"/><path d="m716.545 735.039h-.659v-2.427h-2.1v2.427h-.656v-5.259h.656v2.263h2.1v-2.263h.659z" transform="translate(-609.235 -646.941)"/><path d="m742.1 729.78 1.365 4.289 1.362-4.289h.844v5.259h-.655v-2.047l.06-2.053-1.365 4.1h-.5l-1.362-4.085.063 2.038v2.047h-.655v-5.259z" transform="translate(-628.946 -646.941)"/><path d="m775.2 732.611h-1.847v1.856h2.152v.572h-2.805v-5.259h2.771v.569h-2.116v1.694h1.845z" transform="translate(-650.977 -646.941)"/><path d="m799.377 732.917h-.919v2.122h-.658v-5.259h1.461a1.552 1.552 0 0 1 1.161.4 1.888 1.888 0 0 1 .18 2.032 1.344 1.344 0 0 1 -.6.548l1.012 2.23v.042h-.714l-.925-2.119zm-.919-.572h.793a.857.857 0 0 0 .658-.266 1.018 1.018 0 0 0 .245-.715c0-.676-.3-1.015-.91-1.015h-.787v2z" transform="translate(-668.564 -646.941)"/><path d="m826.232 732.611h-1.847v1.856h2.152v.572h-2.807v-5.259h2.77v.569h-2.116v1.694h1.847z" transform="translate(-686.733 -646.941)"/><path d="m772.916 499.17h-4.636v60.616h19.164v-4.669h-14.534q-.009-27.969.006-55.947z" transform="translate(-647.879 -485.352)"/><path d="m613.611 499.14-10.356 41.506a13.864 13.864 0 0 0 -.392 3.065c0 5.609-.012 10.445 0 16.054h-4.633v-16.353a16.82 16.82 0 0 1 .422-3.466l10.236-40.806z" transform="translate(-528.725 -485.33)"/><path d="m808.344 464.457h-1.021v2.361h-.733v-5.848h1.625a1.719 1.719 0 0 1 1.29.449 1.8 1.8 0 0 1 .44 1.314 1.819 1.819 0 0 1 -.24.946 1.524 1.524 0 0 1 -.67.611l1.125 2.481v.048h-.787l-1.03-2.361zm-1.021-.634h.883a.952.952 0 0 0 .733-.3 1.133 1.133 0 0 0 .272-.8q0-1.127-1.012-1.128h-.877v2.221z" transform="translate(-674.723 -458.585)"/></g></svg>