<svg enable-background="new 0 0 71.25 31.75" height="31.75" viewBox="0 0 71.25 31.75" width="71.25" xmlns="http://www.w3.org/2000/svg"><g fill="#231f20"><path d="m38.734 22.515c1.439 0 2.686.794 3.301 1.954h-.811c-.54-.771-1.455-1.277-2.49-1.277-1.662 0-3.008 1.304-3.008 2.912 0 1.609 1.346 2.913 3.008 2.913 1.451 0 2.662-.994 2.946-2.317h-2.364v-.606h3.125v.01c0 1.982-1.66 3.589-3.707 3.589-2.048 0-3.707-1.607-3.707-3.589s1.66-3.589 3.707-3.589m28.834 6.413h-3.176c-.372 0-.625-.072-.771-.217-.226-.235-.343-.471-.343-.715v-5.377h-.698v5.25c0 1.114.752 1.72 1.813 1.72h3.176v-.661zm-14.59-6.309h-.779l-3.112 6.97h.887l.977-2.353h3.232l.986 2.353h.77zm-24.595 0h-.696v6.97h.696zm-10.299 0h-.779l-3.115 6.97h.888l.978-2.353h3.231l.986 2.353h.77zm-12.705 6.97c.588 0 1.097-.191 1.533-.572.443-.389.652-.861.633-1.414-.026-.826-.406-1.415-1.123-1.751.535-.345.797-.825.797-1.451 0-.526-.217-.961-.644-1.307-.407-.326-.889-.489-1.442-.489h-2.383v6.984zm-1.903-4v-2.332h1.639c.391 0 .707.101.971.3.291.209.435.508.435.88 0 .336-.136.617-.418.835-.271.208-.588.317-.952.317zm0 3.337v-2.702h1.639c.499 0 .889.1 1.188.308.328.226.5.562.527 1.007.045.835-.6 1.387-1.679 1.387zm12.878-2.315 1.357-3.187 1.332 3.187zm34.894 0 1.358-3.187 1.33 3.187z"/><path d="m30.437 8.625c-.2.205-.388.424-.559.656.359.565.668.967.668.967h.001c.411-.658.985-1.224 1.651-1.623-1.096-.67-2.279-2.101-2.279-3.442 0-1.296 1.05-2.347 2.346-2.347.183 0 .351.027.531.043 1.099-.603 1.835-.813 1.835-.813-.728-.18-1.605-.326-2.366-.326-2.43 0-4.069 2.445-3.216 4.673.297.837.775 1.591 1.388 2.212m9.445 0c.2-.205.389-.423.56-.655-.359-.565-.668-.969-.668-.969h-.002c-.419.673-.977 1.212-1.65 1.624 1.093.66 2.278 2.115 2.278 3.444 0 1.723-1.399 2.435-2.877 2.303-1.1.604-1.834.814-1.834.814.724.179 1.617.326 2.365.326 1.901 0 3.442-1.542 3.442-3.443 0-1.241-.769-2.585-1.614-3.444m-10.711 0c1.131 2.312 3.114 4.145 5.519 5.083-1.022.293-1.829.355-1.834.355-2.173-1.221-3.907-3.132-4.903-5.438.266-.615.586-1.203.951-1.757 0 0 .269.66.611 1.113-.121.21-.236.425-.344.644m13.194 0c-.267.616-.586 1.204-.951 1.758 0 0-.27-.66-.612-1.113.122-.21.237-.425.345-.645-1.13-2.31-3.115-4.144-5.52-5.084 1.023-.293 1.83-.352 1.834-.353 2.174 1.221 3.908 3.133 4.904 5.437m-1.031-2.393-.002-.001c-.373-.543-.934-1.122-.934-1.122-.039-1.262-1.074-2.273-2.345-2.273-2.781 0-5.68 1.537-7.464 3.629-.271-.55-.405-1.195-.407-1.201 1.968-2.06 4.993-3.524 7.871-3.524 1.901 0 3.442 1.541 3.442 3.443.001.366-.056.718-.161 1.049m-12.35 4.787.002.002c.373.542.934 1.121.934 1.121.039 1.262 1.074 2.273 2.344 2.273 2.781 0 5.683-1.539 7.464-3.629.271.549.405 1.196.406 1.201-1.967 2.06-4.992 3.525-7.871 3.525-2.345 0-3.982-2.294-3.279-4.493"/></g></svg>