<svg height="36.098" viewBox="0 0 60.217 36.098" width="60.217" xmlns="http://www.w3.org/2000/svg"><g fill="#2f4668"><path d="m726 518.064.613-1.542a5.308 5.308 0 0 0 3.24 1.051 2.341 2.341 0 0 0 1.218-.257.824.824 0 0 0 .429-.736.772.772 0 0 0 -.3-.642 2.769 2.769 0 0 0 -1.015-.411l-1.471-.333q-2.418-.526-2.417-2.469a2.355 2.355 0 0 1 .455-1.427 2.994 2.994 0 0 1 1.285-.973 4.855 4.855 0 0 1 1.909-.349 5.779 5.779 0 0 1 1.822.288 4.811 4.811 0 0 1 1.542.832l-.642 1.489a4.564 4.564 0 0 0 -2.733-.98 2.094 2.094 0 0 0 -1.173.28.878.878 0 0 0 -.42.771.776.776 0 0 0 .257.613 2.118 2.118 0 0 0 .867.385l1.506.333a3.805 3.805 0 0 1 1.918.92 2.231 2.231 0 0 1 .6 1.62 2.289 2.289 0 0 1 -.981 1.945 4.454 4.454 0 0 1 -2.68.717 5.988 5.988 0 0 1 -3.829-1.125z" transform="translate(-726 -506.153)"/><path d="m741.512 514.462v5.429h-2.184v-5.324a2.376 2.376 0 0 0 -.4-1.533 1.534 1.534 0 0 0 -1.244-.482 2.128 2.128 0 0 0 -1.611.642 2.336 2.336 0 0 0 -.613 1.689v5.01h-2.183v-12.893h2.172v5.326a3.125 3.125 0 0 1 1.209-1.111 3.56 3.56 0 0 1 1.682-.394q3.171-.002 3.172 3.641z" transform="translate(-723.928 -507)"/><path d="m743.246 518.624a3.821 3.821 0 0 1 -1.576-1.6 5.69 5.69 0 0 1 0-4.882 3.832 3.832 0 0 1 1.576-1.6 4.858 4.858 0 0 1 2.373-.56 4.789 4.789 0 0 1 2.347.56 3.84 3.84 0 0 1 1.567 1.6 5.69 5.69 0 0 1 0 4.882 3.837 3.837 0 0 1 -1.567 1.6 4.755 4.755 0 0 1 -2.347.56 4.856 4.856 0 0 1 -2.373-.56zm4.063-1.883a4.255 4.255 0 0 0 -.009-4.326 2.29 2.29 0 0 0 -3.236-.144c-.05.046-.1.094-.144.144a4.255 4.255 0 0 0 -.009 4.326 2.348 2.348 0 0 0 3.318.08z" transform="translate(-721.695 -506.153)"/><path d="m756.67 510.559a3.938 3.938 0 0 1 1.384 1.647 5.639 5.639 0 0 1 .5 2.426 5.547 5.547 0 0 1 -.491 2.4 3.624 3.624 0 0 1 -3.416 2.154 3.535 3.535 0 0 1 -1.716-.411 2.843 2.843 0 0 1 -1.156-1.149v5.2h-2.175v-10.126a19.885 19.885 0 0 0 -.14-2.5h2.055l.175 1.524a2.683 2.683 0 0 1 1.138-1.285 3.507 3.507 0 0 1 1.822-.464 3.579 3.579 0 0 1 2.02.584zm-.92 6.174a3.261 3.261 0 0 0 .6-2.1 3.488 3.488 0 0 0 -.6-2.163 1.991 1.991 0 0 0 -1.682-.779 2.053 2.053 0 0 0 -1.716.753 3.4 3.4 0 0 0 -.6 2.153 3.343 3.343 0 0 0 .6 2.129 2.319 2.319 0 0 0 3.277.128c.041-.038.082-.08.121-.121z" transform="translate(-719.32 -506.153)"/><path d="m765.127 510.559a3.937 3.937 0 0 1 1.384 1.647 5.637 5.637 0 0 1 .5 2.426 5.529 5.529 0 0 1 -.491 2.4 3.626 3.626 0 0 1 -3.415 2.154 3.536 3.536 0 0 1 -1.716-.411 2.837 2.837 0 0 1 -1.156-1.149v5.2h-2.173v-10.126a20.14 20.14 0 0 0 -.14-2.5h2.056l.175 1.524a2.671 2.671 0 0 1 1.138-1.285 3.519 3.519 0 0 1 1.822-.464 3.579 3.579 0 0 1 2.016.584zm-.92 6.174a3.261 3.261 0 0 0 .6-2.1 3.489 3.489 0 0 0 -.6-2.163 1.991 1.991 0 0 0 -1.682-.779 2.054 2.054 0 0 0 -1.716.753 3.406 3.406 0 0 0 -.6 2.153 3.341 3.341 0 0 0 .6 2.129 2.319 2.319 0 0 0 3.277.128c.041-.038.082-.08.121-.121z" transform="translate(-716.912 -506.153)"/><path d="m775 510.15-4.111 9.44a5.382 5.382 0 0 1 -1.787 2.4 6.341 6.341 0 0 1 -2.68 1l-.491-1.682a5.47 5.47 0 0 0 1.865-.711 3.017 3.017 0 0 0 1.007-1.269l.28-.642-3.678-8.529h2.295l2.54 6.358 2.592-6.358z" transform="translate(-714.781 -506.103)"/></g><path d="m775.59 536.93h-40.371a17.592 17.592 0 0 0 -4.664.506 13.072 13.072 0 0 0 -4.554 2.53 50.609 50.609 0 0 1 1.519-9.614c1.511-5.055 6.637-8.162 11.913-8.094h36.467a14.035 14.035 0 0 0 6.269-1.012c1.463-.61 4.048-3.247 4.048-3.247s.077 7.187-1.012 10.332c-1.059 3.044-4.862 8.599-9.615 8.599z" fill="#2bbf4f" transform="translate(-726 -503.868)"/><g fill="#fff"><path d="m736.013 533.293a3.237 3.237 0 0 1 -1.887-.533 1.966 1.966 0 0 1 -.9-1.371h1.316a1.2 1.2 0 0 0 .55.644 1.869 1.869 0 0 0 .966.242 1.705 1.705 0 0 0 1.195-.4 1.362 1.362 0 0 0 .437-1.057v-1.048h-.024a2.016 2.016 0 0 1 -.809.835 2.546 2.546 0 0 1 -3.137-.565 3.6 3.6 0 0 1 -.722-2.363 3.647 3.647 0 0 1 .725-2.386 2.4 2.4 0 0 1 1.955-.881 2.3 2.3 0 0 1 1.206.319 2.157 2.157 0 0 1 .825.875h.024v-1.091h1.273v6.262a2.271 2.271 0 0 1 -.816 1.828 3.264 3.264 0 0 1 -2.177.69zm-.013-3.462a1.5 1.5 0 0 0 1.233-.582 2.435 2.435 0 0 0 .464-1.564 2.493 2.493 0 0 0 -.464-1.576 1.486 1.486 0 0 0 -1.233-.595 1.447 1.447 0 0 0 -1.209.588 2.529 2.529 0 0 0 -.452 1.583 2.475 2.475 0 0 0 .452 1.57 1.456 1.456 0 0 0 1.209.576z" transform="translate(-724.007 -502.042)"/><path d="m739.165 530.892v-6.377h1.25v1.085h.03a1.633 1.633 0 0 1 .564-.874 1.541 1.541 0 0 1 .97-.315 2.514 2.514 0 0 1 .448.049v1.218a1.665 1.665 0 0 0 -.587-.073 1.3 1.3 0 0 0 -1 .393 1.516 1.516 0 0 0 -.367 1.074v3.819z" transform="translate(-722.252 -502.042)"/><path d="m747.612 530.129a3.173 3.173 0 0 1 -4.4 0 3.965 3.965 0 0 1 0-4.838 3.17 3.17 0 0 1 4.4 0 3.965 3.965 0 0 1 0 4.838zm-2.2-.191a1.475 1.475 0 0 0 1.237-.59 3.174 3.174 0 0 0 0-3.279 1.59 1.59 0 0 0 -2.468 0 3.167 3.167 0 0 0 0 3.279 1.476 1.476 0 0 0 1.229.59z" transform="translate(-721.335 -502.045)"/><path d="m753.9 526.712h-1.249a1.5 1.5 0 0 0 -.495-.88 1.479 1.479 0 0 0 -1-.339 1.458 1.458 0 0 0 -1.222.6 3.091 3.091 0 0 0 0 3.24 1.48 1.48 0 0 0 1.233.588 1.524 1.524 0 0 0 .985-.312 1.465 1.465 0 0 0 .5-.871h1.262a2.369 2.369 0 0 1 -.858 1.652 3.172 3.172 0 0 1 -4.1-.26 3.977 3.977 0 0 1 0-4.833 2.817 2.817 0 0 1 2.183-.894 2.781 2.781 0 0 1 1.928.664 2.439 2.439 0 0 1 .833 1.645z" transform="translate(-719.695 -502.045)"/><path d="m758.132 529.023h1.244a2.158 2.158 0 0 1 -.9 1.436 3.036 3.036 0 0 1 -1.849.558 2.832 2.832 0 0 1 -2.2-.883 3.422 3.422 0 0 1 -.8-2.4 3.535 3.535 0 0 1 .8-2.419 2.718 2.718 0 0 1 2.149-.916 2.677 2.677 0 0 1 2.1.865 3.338 3.338 0 0 1 .776 2.319v.448h-4.5v.078a1.893 1.893 0 0 0 .466 1.34 1.622 1.622 0 0 0 1.249.5 1.709 1.709 0 0 0 .947-.253 1.23 1.23 0 0 0 .518-.673zm-.448-3.105a1.45 1.45 0 0 0 -1.11-.46 1.5 1.5 0 0 0 -1.127.463 1.834 1.834 0 0 0 -.5 1.2h3.189a1.786 1.786 0 0 0 -.453-1.203z" transform="translate(-718.136 -502.045)"/><path d="m759.428 530.892v-6.377h1.249v1.085h.031a1.631 1.631 0 0 1 .563-.874 1.542 1.542 0 0 1 .971-.315 2.539 2.539 0 0 1 .448.049v1.218a1.674 1.674 0 0 0 -.588-.073 1.3 1.3 0 0 0 -1 .393 1.516 1.516 0 0 0 -.367 1.074v3.819z" transform="translate(-716.482 -502.042)"/><path d="m763.831 533.246a3.429 3.429 0 0 1 -.533-.03v-1.061a2.3 2.3 0 0 0 .424.024 1.125 1.125 0 0 0 .722-.209 1.411 1.411 0 0 0 .412-.7l.06-.2.055-.194-2.3-6.384h1.42l1.619 5.189h.018l1.619-5.189h1.382l-2.399 6.708a3.572 3.572 0 0 1 -.952 1.6 2.4 2.4 0 0 1 -1.547.446z" transform="translate(-715.56 -502.019)"/></g></svg>