<svg viewBox="0 0 467.95 87.07" xmlns="http://www.w3.org/2000/svg"><g fill="#4c5362"><g transform="translate(-195.08 -83.35)"><path d="m196 106.58v63.83h15.35v-63.78a16.46 16.46 0 0 1 -7.63 1.87 16.15 16.15 0 0 1 -7.72-1.92z"/><path d="m219.24 90v8.28h24.84v72.07h15.47v-72.06h20.16l4.68-14.5h-58.51a6.44 6.44 0 0 0 -6.64 6.21z"/><path d="m419.38 83.79h-58.51a6.45 6.45 0 0 0 -6.65 6.21v8.27h24.85v72.07h15.47v-69.14a2.91 2.91 0 0 1 2.91-2.91h17.24z"/><path d="m450.28 83.35a36.25 36.25 0 0 0 -36.25 36v14.75.65a36.25 36.25 0 0 0 72.48 0v-.65-14.72a36.25 36.25 0 0 0 -36.23-36.03zm21.72 36.47v14.06.22a21.75 21.75 0 1 1 -43.5 0v-.22-14.06-.22a21.75 21.75 0 0 1 43.5 0z"/><path d="m562.44 108.62a25.27 25.27 0 0 0 -23.73-25.22v-.05h-39.48a6.23 6.23 0 0 0 -6.23 6.23v80.34h15.69v-32.92a3.12 3.12 0 0 1 3.12-3.12h14.47l20.17 36h16l-20.45-36.46a25.28 25.28 0 0 0 20.44-24.8zm-25.27 10.76h-28.48v-18.38a3.12 3.12 0 0 1 3.12-3.11h25.36a10.77 10.77 0 0 1 0 21.53z"/><path d="m331 119.83h-20.87a10.77 10.77 0 1 1 0-21.53h38.45v-14.51h-40a25.26 25.26 0 0 0 1.54 50.48h20.66a10.77 10.77 0 0 1 0 21.54h-45.92v14.5h46.59a25.26 25.26 0 0 0 -.44-50.51z"/></g><circle cx="8.68" cy="8.68" r="8.68"/><g transform="translate(-195.08 -83.35)"><path d="m590.43 98.37 40.09-.08v-14.5l-43.19.08h-.45l-9-.08a6.23 6.23 0 0 0 -6.23 6.21v73.66a6.22 6.22 0 0 0 6.23 6.21l9-.08h.45l43.19.08v-14.48l-40.09-.07a3.11 3.11 0 0 1 -3.1-3.12v-15.69a3.14 3.14 0 0 1 3.18-3.15l40 .07v-13.17l-43.19.09v-18.86a3.11 3.11 0 0 1 3.11-3.12z"/><path d="m651.72 106.39a11.3 11.3 0 1 1 11.28-11.3 11.31 11.31 0 0 1 -11.3 11.3m0-20.74a9.44 9.44 0 1 0 9.45 9.44 9.46 9.46 0 0 0 -9.45-9.44"/><path d="m656.79 92.46a3.69 3.69 0 0 0 -3.46-3.68h-5.76a.91.91 0 0 0 -.91.91v11.72h2.12v-4.8a.45.45 0 0 1 .45-.46h2.5l2.94 5.26h2.12l-3-5.33a3.68 3.68 0 0 0 3-3.62m-8 1.58v-2.69a.46.46 0 0 1 .45-.46h3.87a1.58 1.58 0 0 1 0 3.15z"/></g></g></svg>