<svg viewBox="0 0 574.19 75.14" xmlns="http://www.w3.org/2000/svg"><path d="m49.78 48.81h-12.04l2.15-2.67 6.29-7.86z"/><path d="m37.74 48.81h-12.03l3.6-10.53 6.29 7.86z"/><path d="m26.83 35.19-4.65 13.62-1.14 3.34-1.73 5.07v-31.44z"/><path d="m44.9 34.53-7.16 8.93-7.14-8.93 7.14-20.93z"/><path d="m56.19 25.79v31.42l-1.73-5.06-1.15-3.34-4.65-13.62z"/><g transform="translate(-10.81 -273.86)"><path d="m48.38 273.86a37.57 37.57 0 1 0 37.56 37.58 37.62 37.62 0 0 0 -37.56-37.58zm17.47 64.2-4.12-12.06h-26.36l-4.11 12.05h-4.49v-47.93l3.35 4.18 8.8 11 7.87-23 1.76-5.17 1.77 5.17 7.86 23 8.81-11 3.34-4.18v47.94z"/><g fill="#1d1d1b"><path d="m104.58 293.25h5.42l12.77 29.8 12.77-29.8h5.46v35.06h-3.52v-31.17l-13.18 31.17h-3l-13.2-31.17v31.17h-3.52z"/><path d="m148.16 293.25h3.52v35.06h-3.52z"/><path d="m187.76 302.26a11.73 11.73 0 0 0 -3.26-3.33 14.52 14.52 0 0 0 -2-1.18 15.25 15.25 0 0 0 -2.29-.93 17.7 17.7 0 0 0 -2.37-.57 14.24 14.24 0 0 0 -2.35-.19 13.82 13.82 0 0 0 -7.24 2 15.43 15.43 0 0 0 -5.39 5.41 13.83 13.83 0 0 0 -2 7.18 14.19 14.19 0 0 0 2 7.38 15.44 15.44 0 0 0 5.5 5.45 14.23 14.23 0 0 0 14.16.32 14.9 14.9 0 0 0 5.34-4.67h3.89a17 17 0 0 1 -4 5.09 19.09 19.09 0 0 1 -5.68 3.45 17.39 17.39 0 0 1 -6.37 1.24 18.67 18.67 0 0 1 -7.15-1.4 18 18 0 0 1 -5.89-3.86 17.79 17.79 0 0 1 -3.93-5.89 18.22 18.22 0 0 1 -1.44-7.11 17.37 17.37 0 0 1 2.44-9 18.08 18.08 0 0 1 6.61-6.56 18.51 18.51 0 0 1 19.18.51 18.42 18.42 0 0 1 1.8 1.28 20.24 20.24 0 0 1 1.82 1.73 10.86 10.86 0 0 1 2.45 3.61z"/><path d="m197.44 293.25h3.56v15.43h18.13v-15.43h3.52v35.06h-3.52v-16.46h-18.13v16.46h-3.52z"/><path d="m229.84 293.25h19.16v3.18h-15.64v12.62h15.12v3.17h-15.12v12.92h15.64v3.17h-19.16z"/><path d="m255.26 293.25h3.52v31.89h14.5v3.17h-18z"/><path d="m306 305.55-6.47 12.36 8.86 8.64-2.52 2.36-8-7.83a17.85 17.85 0 0 1 -1.26 2.23 21.47 21.47 0 0 1 -1.43 1.93 11.14 11.14 0 0 1 -3.5 2.65 10.18 10.18 0 0 1 -4.59 1 10.52 10.52 0 0 1 -5.42-1.46 10.85 10.85 0 0 1 -4-4 10.64 10.64 0 0 1 -1.47-5.45 9.07 9.07 0 0 1 2.15-6 18.17 18.17 0 0 1 5.72-4.39 16.84 16.84 0 0 1 -2.79-3.49 7.63 7.63 0 0 1 -.91-3.82 6.6 6.6 0 0 1 .64-2.86 8.16 8.16 0 0 1 1.86-2.46 8.42 8.42 0 0 1 2.73-1.7 8.49 8.49 0 0 1 5.16-.34 7.63 7.63 0 0 1 2.09.84 8.14 8.14 0 0 1 3.15 3 8 8 0 0 1 1.2 4.18 6.55 6.55 0 0 1 -1.95 4.74 13.14 13.14 0 0 1 -4.94 3.14l6.64 6.57 5.08-9.89zm-20.72 5.58a13.17 13.17 0 0 0 -4 3 6.22 6.22 0 0 0 -1.49 4.24 6.89 6.89 0 0 0 1 3.51 7.54 7.54 0 0 0 2.6 2.69 7.12 7.12 0 0 0 8.36-.81 20.42 20.42 0 0 0 3.56-5.14l-8.43-8.25zm3.51-15.07a5 5 0 0 0 -3.45 1.27 4.23 4.23 0 0 0 -.86 5.27 9.36 9.36 0 0 0 1.33 1.82l.63.6 1.32 1.27q6-2.09 5.95-5.76a4 4 0 0 0 -1.53-3.14 5.07 5.07 0 0 0 -3.35-1.33z"/><path d="m325.13 293.25h3.87l15 35.06h-3.82l-5.07-11.77h-16.22l-5.08 11.77h-3.81zm8.66 20.13-6.72-16.09-6.84 16.09z"/><path d="m348.19 293.25h5.42l12.77 29.8 12.78-29.8h5.42v35.06h-3.53v-31.17l-13.17 31.17h-3l-13.18-31.17v31.17h-3.52z"/><path d="m403.82 293.25h3.89l15.05 35.06h-3.82l-5.07-11.77h-16.29l-5.08 11.77h-3.8zm8.66 20.13-6.72-16.09-6.84 16.09z"/><path d="m424.08 325.19 17.21-28.76h-16.67v-3.18h20.61v3.18l-17.15 28.71h17.68v3.17h-21.68z"/><path d="m485.17 310.7a17.48 17.48 0 0 1 -2.5 9.14 18.27 18.27 0 0 1 -6.82 6.64 18.55 18.55 0 0 1 -9.23 2.44 18.2 18.2 0 0 1 -9.09-2.4 18.81 18.81 0 0 1 -6.83-6.52 16.81 16.81 0 0 1 -2.58-9 17.46 17.46 0 0 1 2.49-9.09 18.68 18.68 0 0 1 25.18-6.71 18.57 18.57 0 0 1 6.81 6.54 16.88 16.88 0 0 1 2.57 8.96zm-26-12.61a14.62 14.62 0 0 0 -5.48 5.42 14.31 14.31 0 0 0 -2.05 7.42 13.63 13.63 0 0 0 2.08 7.31 15.24 15.24 0 0 0 5.6 5.33 14.81 14.81 0 0 0 13.15.8 15.48 15.48 0 0 0 4.83-3.2 14.37 14.37 0 0 0 3.2-4.75 14.54 14.54 0 0 0 1.15-5.72 13.77 13.77 0 0 0 -2-7.3 15.35 15.35 0 0 0 -5.55-5.33 16.2 16.2 0 0 0 -3.59-1.46 17.57 17.57 0 0 0 -1.89-.37 14.15 14.15 0 0 0 -1.93-.14h-.26a14 14 0 0 0 -7.26 1.99z"/><path d="m490.87 293.25h4.76l19.6 29.08v-29.08h3.52v35.06h-3.5l-20.86-30.83v30.82h-3.52z"/><path d="m526 293.25h3.51v20.17l16.18-20.17h4.44l-13.83 17.11 13.82 17.94h-4.33l-11.71-15.16-4.57 5.58v9.59h-3.51z"/><path d="m566.06 293.25h3.94l15 35.06h-3.82l-5.07-11.77h-16.29l-5.08 11.77h-3.8zm8.66 20.13-6.72-16.09-6.84 16.09z"/></g></g></svg>