<svg height="166.903409" viewBox="0 0 400 166.90340909" width="400" xmlns="http://www.w3.org/2000/svg"><g fill-rule="evenodd"><path d="m177.25 9.921c-4.365.708-6.061 1.104-8.667 2.022-.641.226-1.43.477-1.753.559s-1.019.34-1.546.574c-1.252.553-1.387.538-1.624-.178-.657-1.993-3.349-2.912-5.91-2.018-.818.286-.947.634-1.363 3.663l-.292 2.126-.887.332c-.488.183-.974.332-1.081.332-.106 0-.872.185-1.702.41-4.016 1.092-8.367 1.409-11.675.85-.917-.154-1.967-.317-2.333-.36-.367-.044-1.245-.264-1.951-.489-.706-.226-1.36-.411-1.454-.411-.184 0-2.904-1.298-3.841-1.833-.995-.569-3.048-2.279-3.995-3.328-1.07-1.186-1.256-1.241-1.111-.333 1.516 9.482 14.16 14.298 28.662 10.917l.978-.228-.097.611c-1.947 12.35-1.438 60.184.714 67.028.187.596.341 1.178.343 1.295.004.395 1.168 3.198 1.693 4.079 2.686 4.5 7.123 4.468 11.642-.082 1.582-1.593 1.935-2.002 3.06-3.542 1.595-2.187 2.937-4.188 2.944-4.392.002-.06.143-.29.314-.512l.31-.403.104.487c.058.267.171 1.011.252 1.653.082.642.273 1.504.425 1.917.153.412.355 1.006.45 1.319.095.314.336.839.535 1.167.2.328.474.818.61 1.088.135.271.815 1.067 1.511 1.771 5.41 5.468 13.495 3.028 15.913-4.804.309-.998.572-1.35.572-.764 0 .535 1.208 3.818 1.8 4.889 2.638 4.78 7.263 4.594 10.707-.43.309-.451.623-.895.697-.986.469-.583 2.02-3.199 3.101-5.232l.832-1.566.1.899c.055.494.171 1.761.259 2.815.229 2.752.831 5.044 1.708 6.507 1.416 2.362 4.156 2.157 5.436-.406 1.099-2.201 1.431-8.426.899-16.851-.288-4.545-.237-4.669 3.044-7.458 3.442-2.925 4.704-3.348 5.016-1.683.172.916-.041 5.135-.339 6.725-3.159 16.83 3.366 26.988 11.36 17.684 1.141-1.328 4.547-6.371 4.547-6.733 0-.057.187-.379.416-.717l.417-.614v1.044c0 1.021-.228 1.747-1.177 3.752-.174.367-.697 1.529-1.162 2.584-.465 1.054-.946 2.141-1.068 2.416-.121.275-.465 1.063-.763 1.75-.297.688-.748 1.7-1.001 2.25s-.888 1.975-1.412 3.167c-.523 1.192-1.121 2.542-1.329 3-.207.458-.66 1.471-1.006 2.25s-.801 1.792-1.011 2.25-.653 1.471-.985 2.25-.796 1.867-1.031 2.417-.635 1.487-.888 2.083c-.254.596-.655 1.533-.892 2.083-.734 1.706-1.443 3.438-2.047 5-.319.825-.763 1.896-.987 2.38s-.408.976-.408 1.094c0 .117-.158.541-.352.942-.193.401-.485 1.108-.649 1.573-.163.465-.61 1.707-.993 2.761-3.166 8.728-2.345 18.065 2.024 23.023.428.486 2.207 1.811 2.432 1.811.078 0 .444.146.813.324 1.959.946 7.472.972 9.519.044 2.137-.969 4.471-2.888 6.021-4.952.275-.366.648-.857.828-1.091.88-1.143 2.234-4.782 2.518-6.771.076-.534.262-1.562.412-2.285s.343-2.035.429-2.917c.086-.881.309-2.915.496-4.519.751-6.45.847-13.123.6-41.754l-.15-17.336.45-.713c.248-.392.521-.878.607-1.08.147-.343.354-.711 1.806-3.212.308-.532.664-1.07.791-1.198.128-.127.232-.332.232-.455s.061-.249.135-.28c.075-.03.461-.498.858-1.04 3.129-4.264 5.475-4.564 6.78-.867.127.361.297.738.378.837.345.427 1.392 4.5 1.837 7.146.661 3.934.724 4.452.543 4.452-.231 0-2.63 1.467-2.868 1.753-.112.136-.271.247-.352.247-.696 0-6.311 5.662-6.311 6.364 0 .078-.196.452-.434.83-1.696 2.686-1.364 6.313.674 7.374 2.412 1.255 8.553.072 10.252-1.976.118-.142.305-.259.415-.259.351 0 3.426-3.202 3.426-3.568 0-.058.187-.402.416-.764 1.111-1.76 1.906-5.747 1.914-9.604l.003-1.52.97-.272c1.848-.518 4.604-.071 6.947 1.127 1.302.666 1.377.824 1.404 2.974.029 2.213 1.22 6.763 2.389 9.127 3.526 7.131 11.165 7.55 16.262.893.29-.38.528-.741.528-.803 0-.061.181-.351.401-.642.378-.5 2.432-4.644 2.433-4.908.001-.068.207-.648.459-1.29l.457-1.166.75.195c.924.24 2.175.258 3.167.047.412-.088 1.138-.23 1.613-.315.872-.158 2.035-.623 3.738-1.496l.933-.479.107 1.857c.227 3.935.18 4.256-.973 6.691-.217.458-.673 1.471-1.013 2.25-.341.779-.787 1.791-.992 2.25-.205.458-.654 1.471-.999 2.25-.344.779-.759 1.716-.923 2.083-.163.367-.578 1.304-.922 2.083-.705 1.598-1.448 3.261-1.897 4.25-.167.367-.583 1.305-.924 2.084-.342.779-.837 1.884-1.101 2.454-.264.571-.48 1.087-.48 1.147 0 .059-.214.567-.476 1.128s-.683 1.508-.936 2.104c-.475 1.117-1.116 2.613-1.929 4.5-.256.596-.708 1.683-1.004 2.417-.296.733-.714 1.729-.93 2.213-.216.483-.392.954-.392 1.045s-.225.662-.5 1.268c-.275.607-.5 1.172-.5 1.256s-.162.505-.36.935c-.337.731-.667 1.587-1.395 3.616-.164.458-.475 1.321-.69 1.917-1.505 4.165-2.001 11.624-1.021 15.333.182.688.396 1.517.475 1.842.626 2.562 3.983 6.825 5.375 6.825.119 0 .287.066.374.148.667.624 2.335.873 5.498.82l3.161-.052 1.229-.556c2.245-1.018 6.521-4.702 6.521-5.619 0-.075.148-.295.33-.488.414-.441 1.453-2.56 1.658-3.383.085-.341.304-1.183.487-1.87.525-1.982 1.195-5.828 1.355-7.787.081-.988.226-2.434.323-3.213.719-5.81.738-6.741.696-33.701l-.04-25.785.622-1.132c1.033-1.878 2.628-4.627 2.737-4.716.055-.046.452-.608.881-1.25 1.492-2.232 3.739-4.25 4.732-4.25.399 0 1.719.919 1.719 1.197 0 .106.108.314.241.461.362.399 1.24 2.572 1.688 4.176.775 2.773.915 3.501 1.67 8.677.072.5.025.624-.298.786-.941.469-2.247 1.26-2.562 1.552-.189.175-.396.318-.46.318-.617 0-4.653 4.003-5.798 5.75-3.607 5.502-2.47 9.333 2.769 9.333 2.559 0 7.416-1.701 7.416-2.598 0-.083.107-.152.238-.152.263 0 2.486-2.156 3.012-2.92 1.804-2.622 2.514-5.147 2.684-9.54l.116-3.01.944-.265c1.828-.513 4.619-.059 6.942 1.129l1.186.606.196 1.875c.301 2.898.332 3.093.775 4.959.881 3.705 2.252 6.364 4.263 8.261.492.464 1.392 1.089 1.999 1.388l1.105.543 2.312-.055c3.451-.083 5.644-1.307 8.281-4.62.497-.625 2.614-4.451 2.614-4.724 0-.077.145-.424.322-.77.177-.347.525-1.248.774-2.002.365-1.103.506-1.35.72-1.26 1.552.644 4.984.316 7.084-.677.485-.23.965-.418 1.067-.418s.567-.225 1.033-.5.884-.5.928-.5c.165 0 1.405-.883 1.405-1 0-.247-1.22-.32-1.651-.099-4.206 2.161-10.048 2.644-9.611.795 1.406-5.952.945-15.497-.943-19.529-2.632-5.621-9.217-5.554-12.063.123l-.648 1.294.004 2.416c.006 3.999 1.274 7.756 3.74 11.08 1.321 1.781 4.197 4.433 5.298 4.884.231.095 1.774.965 2.012 1.135.233.165-1.521 4.893-2.327 6.273-2.705 4.632-6.98 4.555-8.978-.162-1.141-2.693-1.341-4.398-1.495-12.71-.146-7.905-.2-8.412-1.053-9.833-1.994-3.32-5.995 2.488-6.968 10.113l-.195 1.529-.602-.397c-1.491-.983-4.678-1.565-6.955-1.271-1.746.226-1.588.356-1.739-1.43-.384-4.529-2.386-10.267-4.209-12.061-2.099-2.067-5.999-2.324-8.764-.578-.374.235-.727.428-.785.428-.286 0-2.76 2.349-3.949 3.75-.568.67-2.202 3.139-2.592 3.917-.782 1.561-.8 1.509-.905-2.596l-.098-3.801-.637-.542c-1.939-1.65-4.327-2.218-5.342-1.269-1.294 1.209-1.675 5.886-1.258 15.431l.13 2.972-1.25.587c-3.567 1.674-8.779 1.826-8.441.246.052-.245.211-.97.353-1.611 1.035-4.677.255-14.746-1.407-18.158-2.184-4.482-7.078-5.273-10.545-1.703-2.298 2.365-2.722 5.296-1.475 10.184.526 2.06.802 2.746 2.058 5.117 1.026 1.937 5.585 6.476 6.505 6.476.078 0 .613.308 1.924 1.106.243.147-1.613 5.048-2.433 6.425-2.371 3.979-5.973 4.364-8.283.884-.324-.489-.589-.963-.589-1.054 0-.092-.149-.513-.331-.937-.795-1.855-1.035-4.216-1.181-11.59-.132-6.693-.248-8.395-.637-9.387-1.505-3.827-5.073-.648-6.78 6.041-.314 1.23-.571 2.476-.571 2.768s-.047.874-.105 1.293l-.104.762-.604-.398c-1.492-.984-4.678-1.566-6.956-1.272-1.739.225-1.567.355-1.76-1.34-.56-4.911-2.261-10.121-3.853-11.801-3.562-3.758-8.802-2.559-13.823 3.165-.471.536-2.29 3.337-2.722 4.189-.22.434-.465.83-.545.879-.164.101-.362-3.05-.362-5.755 0-1.785-.004-1.806-.458-2.097-.252-.161-.533-.381-.625-.49-.502-.594-2.465-1.391-3.425-1.391-2.734 0-3.279 3.478-2.649 16.889l.176 3.748-.602 1.14c-1.07 2.023-3.221 5.673-3.61 6.125-.086.1-.457.594-.824 1.098-.958 1.313-2.555 2.921-3.145 3.165-2.515 1.042-2.488-7.115.085-25.331.608-4.305-.154-6.229-2.559-6.46-1.621-.155-4.83.954-7.114 2.46-.55.363-1.243.818-1.541 1.013-.298.194-.542.404-.542.467s-.206.237-.458.386c-.553.328-3.196 3.021-3.666 3.735-.176.267-.189.214-.089-.351.699-3.951-.433-7.305-2.585-7.658-1.263-.208-4.959 1.226-5.118 1.985-.304 1.46-.924 12.156-.919 15.877.002 1.896-.027 1.977-1.98 5.599-2.006 3.719-5.109 7.78-5.945 7.78-.121 0-.267.075-.323.167-.481.777-1.749-.294-2.425-2.047-1.018-2.641-1.052-10.519-.071-16.787 1.148-7.337.244-9.936-3.198-9.192-.749.162-.853.143-1.458-.275-1.385-.955-2.017-1.3-4.015-2.191-7.628-3.402-14.134 1.614-17.175 13.242-.312 1.191-.568 2.446-.571 2.789-.002.394-.187.92-.504 1.435-.275.447-.5.894-.5.994s-.225.515-.5.922c-.275.408-.5.788-.5.846 0 .13-.575 1.047-1.98 3.155-2.822 4.235-5.69 5.699-6.865 3.504-.116-.217-.268-.395-.338-.395-.518 0-1.763-5.035-2.145-8.673-.827-7.898-1.043-10.337-1.171-13.244-.081-1.833-.236-5.246-.345-7.583-.222-4.778-.129-16.715.166-21.25.102-1.559.254-3.921.339-5.25.156-2.432.512-5.319 1.264-10.256.224-1.469.456-3.363.516-4.208.074-1.041.175-1.536.313-1.536.112 0 .57-.206 1.017-.458s1.037-.543 1.312-.648 1.138-.466 1.917-.803c9.369-4.053 19.73-4.569 28.75-1.433.733.255 1.558.542 1.833.638 1.157.403 3.453 1.396 4.773 2.064.726.367.811.375.811.076 0-.214-3.345-3.27-3.58-3.27-.058 0-.383-.218-.722-.484-.515-.406-1.439-.928-3.799-2.146-2.245-1.158-5.346-2.131-8.899-2.792-1.635-.304-9.021-.297-10.917.01m127.064 53.811c2.179 2.087 3.311 12.13 2.008 17.808l-.182.791-.836-.705c-5.29-4.461-7.685-13.496-4.566-17.227 1.102-1.319 2.604-1.599 3.576-.667m71.09.125c2.231 2.36 3.226 11.524 1.915 17.636l-.179.835-.749-.622c-.609-.506-1.622-1.617-2.707-2.969-2.399-2.991-3.941-8.837-3.117-11.82.912-3.302 3.225-4.766 4.837-3.06m-179.987 3.043c.804.383 2.083 1.48 2.083 1.788 0 .082-.067.28-.148.439-.663 1.292-1.078 4.458-2.018 15.373-.336 3.899-.832 6.313-1.643 7.99-.197.406-.358.805-.358.884 0 .274-1.083 1.494-1.533 1.727-2.263 1.17-5.464-1.862-6.578-6.233-1.113-4.367-.231-12.117 1.889-16.608.214-.452.389-.891.389-.975s.225-.487.5-.894c.275-.408.5-.794.5-.858.001-.233 1.689-1.869 2.204-2.136 1.851-.957 3.402-1.121 4.713-.497m72.931 19.132c-.169 2.023-.713 4.139-1.383 5.385-.148.275-.373.698-.5.939-1.514 2.884-6.798 3.865-6.798 1.263 0-1.569 3.605-6.24 6.677-8.652 2.411-1.894 2.26-1.975 2.004 1.065m70.986.968c-.413 2.436-1.474 5.067-2.554 6.333-2.004 2.35-6.366 2.365-6.047.021.141-1.036.788-2.124 2.569-4.324 1.131-1.397 4.144-4.21 5.431-5.071l.684-.457.05 1.207c.028.664-.032 1.695-.133 2.291m-92.162 25.789c.002 20.59-.067 22.588-1.098 31.985-.168 1.531-1.015 4.787-1.49 5.727-.569 1.125-1.73 2.868-2.029 3.049-.122.073-.222.205-.222.293 0 .222-1.971 2.13-2.854 2.762-3.378 2.419-6.62 1.828-8.995-1.638-.358-.522-.65-1.009-.65-1.083s-.218-.659-.485-1.301c-2.189-5.268-2.167-10.72.068-17.16.158-.454.383-1.167.502-1.583.118-.416.476-1.469.796-2.34.319-.871.676-1.846.792-2.167.54-1.485 2.554-6.472 3.603-8.916.236-.55.637-1.488.892-2.084.428-.999 1.286-2.965 2-4.583.162-.367.608-1.379.991-2.25s.842-1.892 1.019-2.268c.177-.377.321-.738.321-.802 0-.065.181-.507.402-.982.361-.776 1.13-2.51 1.935-4.365 1.283-2.956 3.399-7.708 3.88-8.713.187-.392.403-.65.48-.573s.141 8.623.142 18.992m71.075-.075c.002 13.251-.057 19.48-.202 21.369-.999 13.019-1.405 15.113-3.541 18.25-4.753 6.981-10.686 7.64-13.608 1.513-3.215-6.744-2.932-12.011 1.266-23.513.117-.321.354-.976.527-1.457s.501-1.296.729-1.812c.229-.517.415-1.003.415-1.081s.225-.633.5-1.233.5-1.163.5-1.251.217-.63.482-1.204c.266-.575.687-1.532.936-2.128.711-1.696 1.419-3.324 1.939-4.455.262-.571.477-1.095.477-1.164 0-.07.182-.503.405-.962.223-.46.678-1.474 1.011-2.253s.788-1.805 1.011-2.281c.223-.475.406-.918.406-.983s.218-.576.485-1.135c.267-.56.76-1.655 1.097-2.434s.747-1.717.911-2.083c.164-.367.542-1.229.839-1.917.634-1.465 2.616-5.913 2.88-6.462.499-1.04.532.091.535 18.676" fill="#ec542c"/><path d="m56.449 5.897c-1.68 1.54-.022 4.57 3.77 6.889l1.031.631-1.25.05c-2.761.111-6.524-1.663-7.091-3.344-.372-1.1-2.7-1.022-3.401.114-.776 1.257-.316 2.717 1.054 3.349.287.132.634.314.771.404 2.193 1.435 6.82 2.185 9.5 1.54l1.25-.301-.624 1.303c-.832 1.735-1.591 4.535-1.794 6.612-.41 4.198-.482 5.078-.593 7.239l-.118 2.3-.48-.55c-.636-.729-1.381-2.177-1.722-3.351-.291-1-1.159-2.115-1.647-2.115-.381 0-.339-.268.144-.901 1.45-1.901.561-4.599-1.514-4.599-1.075 0-1.331.423-1.147 1.896.209 1.67-1.262 3.327-4.881 5.499-.116.07.003-.197.263-.593 1.399-2.123 1.18-4.031-.5-4.367-.811-.162-1.303.245-1.303 1.077 0 .615-.985 2.9-1.362 3.162-.073.05-.383.445-.69.876l-.558.785-.43-1.626c-.761-2.882-.979-3.561-1.39-4.334-.222-.417-.404-.83-.404-.918 0-.087-.225-.492-.5-.9-.547-.81-.577-.891-.339-.891.481 0 3.15-2.012 4.345-3.275 3.804-4.02 4.501-8.702 1.216-8.169-1.553.252-3.185 3.591-2.152 4.404l.403.316-.324.654c-.48.968-.684 1.28-1.19 1.825-.252.27-.459.541-.459.601s-.114.153-.254.206c-.206.079-.221.036-.079-.228.095-.178.248-.72.338-1.204s.351-1.243.58-1.687c1.37-2.66-.934-5.011-2.984-3.044-1.115 1.069-1.178 3.843-.095 4.187.297.094.343.203.264.639-.051.289-.141 1.05-.199 1.692-.206 2.298-.388 2.42-1.587 1.067-.495-.56-1.167-1.3-1.492-1.646s-.776-.988-1.002-1.426c-.749-1.456-2.224-1.805-3.224-.762-.951.994-.637 2.65.625 3.292.289.148.981.584 1.537.969.556.386 1.369.881 1.806 1.099 1.09.545.697.598-1.21.164-2.957-.672-4.479-1.441-5.043-2.545-1.194-2.339-4.355-.86-3.459 1.618.504 1.394 5.535 3.066 8.68 2.884 1.441-.084 1.447-.064.312.946-1.299 1.156-2.98 1.621-4.884 1.348-1.658-.237-2.463.403-2.463 1.958 0 2.69 2.748 2.773 6.667.202 1.935-1.269 4.166-3.726 4.166-4.586 0-.981.462.322 1.479 4.168.932 3.528.915 3.572-1.062 2.736-2.07-.874-3.417-.695-3.417.454 0 1.238 1.029 1.803 3.566 1.958l1.663.102-.694.458c-.382.252-.759.459-.839.459-.079 0-.391.122-.691.273-1.045.52-1.827.482-2.738-.136-1.605-1.088-1.455-1.036-2.131-.753-1.149.48-1.201 1.939-.099 2.812 1.669 1.321 4.922.807 7.203-1.139.362-.308.709-.503.772-.434.152.167.988 2.793.988 3.102 0 1.26 2.637 6.31 4.624 8.858.215.275.5.65.634.833.134.184.776.971 1.427 1.75s1.382 1.667 1.625 1.973c.242.306.609.727.815.936.504.51.473.648-.083.373-2.319-1.149-4.375-.917-4.375.494 0 .307-.02.558-.044.558-.221 0-2.236-.841-4.206-1.753-3.355-1.555-7.595-3.414-7.788-3.414-.128 0-.528-.14-.889-.312s-.956-.408-1.323-.526c-.367-.117-.994-.328-1.394-.468l-.728-.254.521-.428c.286-.236.52-.488.519-.561-.001-.072.137-.28.305-.461.337-.361.463-.594 1.112-2.061 1.781-4.021-.077-8.066-3.266-7.111-2.074.621-2.043 2.849.039 2.849 1.454 0 1.918 1.629 1.163 4.083l-.308 1-.13-.667c-.196-1-.887-2.431-1.467-3.041-1.369-1.441-3.407.157-2.241 1.756 1.413 1.938 1.858 2.674 2.045 3.38l.211.802-.919-.407c-.506-.223-.995-.406-1.087-.406-.394 0-4.316-1.802-5.542-2.547-.458-.278-1.01-.614-1.227-.746l-.394-.24.481-.442c2.333-2.144 3.554-6.3 2.724-9.275-1.112-3.986-1.095-3.952-2.005-4.252-1.637-.54-2.666.449-2.796 2.689-.12 2.079.227 2.569 1.73 2.448l.654-.052-.018 1.417c-.019 1.561-.451 3.227-1.134 4.373l-.405.678-.187-.734c-.104-.404-.335-1.215-.514-1.804-.179-.588-.325-1.503-.325-2.034 0-1.991-1.222-2.83-3.026-2.076-1.922.803-1.294 4.43.767 4.43.312 0 .425.088.425.327 0 .18.161.724.357 1.208.197.485.486 1.346.643 1.913l.286 1.031-.649.109c-.595.101-.71.053-1.389-.572-1.45-1.337-3.081-.695-3.081 1.213 0 1.482.551 1.803 2.939 1.71.996-.038 1.948-.126 2.115-.194.285-.116.283-.085-.028.497-.617 1.151-1.43 1.859-2.685 2.338-1.288.492-1.509.742-1.505 1.701.003.984.166 1.378.677 1.642 1.778.92 4.044-.99 5.501-4.636.421-1.055.524-1.02.814.272.648 2.891-2.765 8.708-4.405 7.508-.637-.466-2.009-.302-2.58.308-1.669 1.78.669 4.103 2.724 2.708.338-.229.648-.416.69-.416.149 0 1.837-1.236 2.374-1.738 2.499-2.336 3.761-7.295 2.432-9.562-.454-.774-.416-.775.687-.023 1.564 1.067 3.805 2.293 5.141 2.812 1.072.417-.361 2.042-2.141 2.428-1.142.248-1.482 1.396-.642 2.174.661.613 2.326.449 3.183-.315.511-.455.579-.31.224.478-.564 1.252-1.5 1.965-3.372 2.565-1.255.403-.975 2.847.326 2.847.478 0 2.379-.906 2.948-1.405 2.187-1.919 2.819-3.161 2.827-5.553.003-.939.015-1.708.027-1.708.115-.001 1.635.581 2.186.837.388.181.78.329.871.329s.673.24 1.294.532c2.888 1.361 7.018 3.363 7.545 3.658.32.18.885.463 1.253.63.369.166 1.381.642 2.25 1.057s2.105 1.001 2.747 1.302l1.166.549-1.853.202c-2.622.286-3.063.57-3.063 1.97 0 1.419.376 1.657 2.48 1.573l1.667-.067-.709.269c-.389.148-.929.384-1.198.524-.27.14-.715.333-.99.428s-.875.327-1.334.516c-.833.343-2.253.878-4.916 1.85-2.758 1.007-3.763 1.385-4.917 1.85-1.969.792-1.803.839-2.25-.633-1.084-3.572-3.067-5.178-6.589-5.336-2.592-.117-3.744.581-3.744 2.266 0 1.403 1.115 1.827 2.671 1.017 1.932-1.006 4.11-.169 5.651 2.173.576.876.575.88-.166.667-1.37-.393-5.199.326-5.695 1.07-.976 1.461.741 2.739 2.173 1.619.59-.462 1.693-.886 2.804-1.079 1.038-.18.695.135-1.146 1.051-1.922.957-3.832 2.105-3.931 2.364-.031.08-.143.146-.25.148-.494.008-4.327 3.696-4.541 4.37-.316.997-.486.933-1.536-.574-1.62-2.327-3.749-4.799-4.133-4.799-.109 0-.237-.1-.285-.223-.311-.811-3.025-1.587-4.303-1.229-.493.138-1.175.299-1.514.358-2.036.351-1.724 3.261.35 3.261.621 0 1.476-.441 1.598-.825.204-.644 1.633-.506 2.231.216.126.151.301.275.389.275.087 0 1.08.938 2.206 2.084l2.048 2.083h-.793c-.436 0-1.307.159-1.936.354-.628.194-1.367.388-1.642.429-2.259.344-2.096 3.717.179 3.717.684 0 .817-.075 1.633-.917.79-.816.968-.92 1.621-.948.866-.037 2.541.041 2.626.121.074.071-1.012 1.64-1.188 1.717-.071.032-.241.275-.379.542-.215.416-.348.485-.935.485-1.563 0-2.4 1.999-1.336 3.189.898 1.005 2.787.601 3.043-.65.058-.283.36-.813.67-1.179.587-.69 1.121-1.633 1.573-2.777.322-.816.469-.637.938 1.15.47 1.791.307 2.894-.482 3.254-1.466.667-.988 3.18.605 3.18 3.444 0 3.517-7.221.095-9.336-1.252-.773-1.219-1.154.225-2.651 1.901-1.97 3.668-3.238 6.461-4.635 2.186-1.094 4.196-2.045 4.32-2.045.253 0-.003.941-.579 2.132-.708 1.463-1.197 1.91-2.318 2.117-1.227.226-1.804 1.46-1.017 2.173.544.492 2.294.414 3.02-.136.497-.376.584-.394.792-.167.236.257.792.248 3.657-.058.522-.056 1.208-.007 1.658.119l.766.215-1.074.358c-1.074.358-1.405.495-3.553 1.475-1.817.829-2.381 1.831-1.593 2.833.557.708 1.64.627 2.57-.191 2.299-2.024 5.509-3 6.897-2.097 1.082.705 1.078 1.042-.018 1.563-3.181 1.509-4.175 5.997-1.328 5.997h.795l-.389 2.209c-.251 1.427-.423 3.225-.486 5.083-.054 1.581-.144 2.873-.2 2.871-.057-.003-.365-.231-.686-.508-2.789-2.405-4.022-2.905-7.167-2.905-4.676 0-7.649 2.318-5.715 4.455.579.64 2.309.521 2.965-.205.9-.994 3.381-1.333 5.283-.722l1.384.444-.619.135c-.97.212-2.436.738-3.798 1.362-.687.315-1.528.623-1.867.683-1.067.191-1.677 1.372-1.299 2.516.497 1.506 3.144 1.064 3.176-.53.021-1.073 3.024-2.388 5.456-2.388 1.741 0 1.772.019 1.363.809-.831 1.605-1.242 4.945-.678 5.509 1.221 1.22 3.335-.208 2.6-1.757-.202-.426-.255-.805-.181-1.29.14-.907.591-2.271.75-2.271.07 0 .211-.185.314-.411l.188-.412.848.393c1.112.515 1.095.474.465 1.104-.301.301-.623.674-.716.831-.662 1.114-.919 1.716-.919 2.154 0 .277-.15.899-.333 1.381-.48 1.264-.435 1.725.233 2.394 1.602 1.601 3.818-.381 2.61-2.335-.384-.62-.138-1.377.843-2.598.678-.844.752-.836.856.089.047.417.207.891.355 1.055.205.227.27.646.27 1.751 0 1.915.319 2.315 1.786 2.238 1.595-.084 2.118-1.309 1.215-2.847-.355-.605-.351-4.134.006-4.801.169-.316.826.14.826.574 0 .05.212.413.472.807.259.394.679 1.298.933 2.007.679 1.901 1.551 2.502 2.737 1.889 1.111-.574 1.103-2.312-.015-3.544-.835-.919-1.761-1.835-2.455-2.427l-.732-.625.738.003c1.392.004 2.184.355 2.739 1.213 1.409 2.179 4.631.591 3.369-1.66-1.238-2.208-7.392-2.583-8.675-.529-.512.821-.555-.042-.263-5.36.16-2.927.986-9.39 1.231-9.635.405-.405 1.173 2.143 1.131 3.75-.069 2.604 2.349 2.961 2.689.396.205-1.542-.243-2.843-1.662-4.83-.489-.684-.424-.795.299-.511 1.491.585 2.993 2.671 3.375 4.687.475 2.502 2.194 3.049 3.235 1.029.707-1.373-1.623-5.204-3.979-6.546-1.769-1.007-3.144-1.143-4.212-.418-.342.233-.622.367-.622.298 0-.24.667-3.482 1.109-5.387.485-2.094 1.513-5.358 2.085-6.618 1.34-2.953 1.607-3.073.903-.403-.776 2.941-.346 4.354 1.324 4.354.628 0 1.691-1.083 1.805-1.841.213-1.408.609-4.846.626-5.431.017-.575.045-.527.262.439.133.596.421 1.796.641 2.667.219.87.445 1.9.502 2.286.195 1.32 1.232 1.925 2.48 1.446.467-.179.817-1.168.705-1.988-.056-.41-.062-.744-.014-.744.221 0 2.572 5.561 2.572 6.085 0 .142.218.838.483 1.545.266.708.523 1.511.572 1.786s.139.632.201.792c.084.217.03.292-.211.292-2.787 0-7.163 6.563-5.491 8.235 1.013 1.013 2.43.512 2.686-.948.209-1.193.936-3.158 1.439-3.888.631-.918.72-.93.289-.039-.92 1.904-1.158 4.281-.483 4.827.581.471 1.595.415 2.126-.117.455-.454.451-.362.118-2.459-.106-.669.216-2.557.462-2.709.078-.049.143-.064.143-.035 0 .209 1.225 3.582 1.347 3.708.084.087.153.292.153.457 0 .412 2.059 4.6 3.04 6.182.91 1.469.907 1.543-.078 1.657-3.837.444-8.812 8.961-6.553 11.22 1.287 1.287 2.761-.161 2.22-2.183-.608-2.272 2.145-6.934 4.522-7.659.357-.108.319-.013-.348.856-1.292 1.688-1.707 2.885-2.157 6.233-.378 2.812.474 4.143 2.317 3.623 1.128-.319 1.373-1.96.475-3.177-.488-.66-.497-2.921-.019-4.368l.331-1 .102 1.167c.056.642.158 1.317.227 1.5.732 1.934 1.028 2.565 1.534 3.27.918 1.277 1.534 1.455 2.496.722.96-.733.832-1.868-.346-3.071-1.442-1.47-1.954-2.664-1.895-4.413l.048-1.425.729.361c.843.418 2.531 1.927 2.795 2.498 1.525 3.313 2.67 4.197 3.714 2.869 1.435-1.824-1.664-6.131-4.778-6.641-1.2-.196-.978-.42.417-.42 2.14 0 3.081.427 5.023 2.277 2.087 1.99 4.279-.118 2.642-2.541-1.856-2.747-9.195-3.184-11.896-.708l-.354.325-.575-1.052c-.861-1.575-2.633-5.79-2.633-6.262 0-.104-.198-.811-.439-1.572-.569-1.791-.878-3.291-.701-3.4.216-.134.165-.861-.069-.971-.114-.054.017-.055.292-.003 1.09.207 2.266 1.257 3.125 2.789 1.101 1.963 3.405 1.215 2.805-.911-.281-.995-1.815-2.579-2.763-2.853-.184-.053-.634-.21-1-.35-.367-.139-.967-.261-1.334-.271-.621-.017-.638-.03-.25-.189.86-.353 2.817-.074 4.084.581 2.932 1.517 3.456 1.662 4.041 1.115 1.082-1.01-.324-2.649-2.871-3.347-.968-.264-1.004-.295-1.114-.924-.063-.357-.233-.929-.377-1.269-.493-1.163.042-3.309 1.045-4.198l.359-.318v.751c0 1.232 1.385 3.631 2.3 3.984.625.242 1.497-.223 1.807-.963.288-.69.287-.694-1.196-3.303-.313-.55-.57-1.186-.573-1.413l-.005-.414.375.37c.207.204.887.84 1.513 1.413 1.548 1.42 4.321 4.187 5.491 5.48.53.585 1.065 1.176 1.19 1.314.435.479 2.685 3.327 3.098 3.922.229.331.584.811.788 1.067l.371.466-.78.107c-4.364.598-8.846 9.438-4.786 9.438 1.023 0 1.52-.661 1.816-2.417.414-2.453 1.359-4.319 2.708-5.348 1.297-.989 2.503-.697 1.776.431-2.271 3.526-1.895 10 .581 10 1.651 0 2.229-1.587 1.048-2.878-1.34-1.466-1.6-3.642-.687-5.753l.381-.88.408.38c.225.21.587.73.804 1.157.753 1.479 1.722 1.85 2.585.987 1.033-1.033-.266-3.546-2.033-3.934-.723-.158-.707-.334.061-.68 1.113-.503 3.961-.452 4.938.088 1.304.719 2.055.472 2.284-.749.374-1.992-2.907-3.171-5.783-2.079l-.857.326.384-.409c.212-.225.448-.409.525-.409.078 0 .421-.174.763-.387.854-.532 2.062-.838 2.821-.716 2.386.387 2.792.296 3.211-.715 1.114-2.69-2.887-3.636-5.941-1.403-.292.213-.574.388-.627.388-.731 0-4.274 3.932-4.51 5.004-.143.651-.273.625-.663-.129-.178-.344-.533-.939-.788-1.322-.256-.383-.465-.742-.465-.798 0-.116-2.108-3.21-2.445-3.589-.206-.231-1.23-1.53-1.514-1.92-.388-.532-2.304-2.67-3.426-3.824-2.051-2.108-1.957-1.962-1.06-1.656.76.258 1.779 1.193 1.779 1.63 0 .91 1.568 1.033 2.316.181 2.016-2.296-2.082-5.607-5.704-4.607-.898.248-.504-.213.638-.745 1.021-.476 1.581-.488 2.943-.061 1.323.415 2.173.43 2.509.044 1.497-1.716-.127-3.299-3.369-3.283-2.627.012-4.386.935-5.175 2.717l-.321.725-.864-.725c-.936-.787-1.143-.939-2.444-1.792-.855-.562-1.072-.85-.637-.85.983 0 1.49-1.89.733-2.732-.653-.726-4.828-2.074-7.336-2.369-1.295-.152-1.036-.398.429-.407.659-.004 1.536-.076 1.948-.161.413-.084 1.413-.232 2.223-.329 1.927-.23 2.381-.467 2.525-1.324.128-.753.104-.746 3.002-.919 1.429-.085 8.834.143 11.044.341l1.043.093-.319.405c-.873 1.111-.793 3.735.171 5.556.263.498.478.971.478 1.052 0 .407 2.187 2.866 2.867 3.224 2.237 1.176 3.758-1.711 1.576-2.99-1.55-.907-3.621-3.761-3.599-4.956.008-.459.036-.504.146-.234.32.785 2.946 3.143 3.715 3.336.948.238 2.145-1.024 1.872-1.974-.105-.365-1.36-1.612-1.623-1.612-.077 0-.487-.265-.911-.589l-.771-.588.989.106c.978.105 4.66.986 6.377 1.527 1.176.37 1.273.596.775 1.809-.74 1.8-.374 3.536 1.279 6.068 1.163 1.782 1.22 1.896 1.468 2.955.477 2.033 2.607 2.538 3.144.745.421-1.406.292-1.67-2.041-4.2-1.655-1.793-2.474-3.005-2.674-3.954-.189-.894.065-.925.726-.089.345.436.917 1.093 1.271 1.46.354.366.942 1.004 1.306 1.416 1.668 1.89 3.414 2.543 4.337 1.62 1.245-1.245.527-2.505-2.229-3.914-2.043-1.044-3.108-1.881-2.738-2.152.516-.377 1.828-.262 3.181.28 2.222.889 3.557.45 3.557-1.171 0-1.853-3.712-2.777-6.453-1.606-1.274.544-1.22.547-1.049-.05.458-1.598 1.833-2.388 4.364-2.507 2.5-.118 3.25-.911 2.314-2.446-.834-1.368-5.283-.595-7.23 1.257l-.638.606.058-2.833c.08-3.958.813-5.728 2.69-6.497 1.935-.792 2.213-1.104 2.056-2.308-.096-.732-.46-1.204-1.041-1.35-.222-.056-.404-.2-.404-.319 0-.767-1.556-1.336-2.29-.838-1.187.805-5.219.092-6.745-1.192-.27-.227-.555-.413-.633-.413-.079 0-.308-.232-.51-.515l-.367-.516 1.897.104c1.044.058 2.319.185 2.834.284 2.399.459 4.232-.969 3.667-2.857-.466-1.555-3.031-1.467-4.766.163-.44.413-3.42.941-3.607.638-.339-.549 2.276-2.886 3.421-3.057 1.902-.286 2.321-2.6.685-3.783-.862-.623-2.731.308-3.031 1.509-.218.872-1.639 3.632-1.765 3.428-1.219-1.98-.066-6.507 2.142-8.408.45-.387.866-.778.924-.868.059-.091.195-.11.303-.043.107.066.457.072.776.012 1.529-.287 1.689-3.254.217-4.015-3.971-2.054-8.739 8.867-6.208 14.218.233.491.397.918.364.946-.146.132-1.555.76-1.702.76-.169 0-4.889 2.119-5.19 2.33-1.039.728-3.135 1.686-2.902 1.326.145-.223.632-.598 1.082-.834 1.627-.849 1.313-2.822-.449-2.822-.864 0-1.396.535-1.821 1.833-.493 1.504-1.142 3.102-1.151 2.834-.028-.837.535-3.133.905-3.693.885-1.337.337-2.807-1.047-2.807-1.618 0-2.679 4.238-1.826 7.293l.245.876-.911.541c-1.041.617-1.309.789-2.652 1.698-.535.363-1.072.756-1.193.875s-.275.217-.343.217c-.126 0-2.356 1.627-3.303 2.41l-.534.441.431-.801c.385-.715 1.14-2.133 1.688-3.175.109-.207.289-.544.399-.75.111-.207.401-.75.646-1.209.244-.458.726-1.358 1.07-2 1.988-3.701 2.518-4.719 3.562-6.833 1.403-2.841 2.354-4.885 2.354-5.059 0-.071.188-.517.417-.992s.417-.933.417-1.017c0-.085.218-.741.484-1.459.267-.719.53-1.512.586-1.762l.102-.457.789.564c3.219 2.299 6.561 3.607 7.703 3.016 1.981-1.024 1.013-2.961-1.664-3.331-2.018-.279-4.244-.92-3.197-.92 2.254 0 4.845-2.811 4.017-4.358-.548-1.023-2.974-.699-2.99.399-.005.34-1.186 1.216-2.023 1.499l-.776.263.571-1.076c.314-.592.767-1.373 1.006-1.734 1.04-1.572-.178-3.442-1.671-2.568-.772.452-.926.734-.932 1.708-.005.866-.441 2.993-.665 3.246-.547.617-2.642-4.292-2.324-5.445.61-2.209-2.554-2.764-3.214-.564-.184.616-.156.724.572 2.154.84 1.648.773 1.64-.895-.102-.751-.785-.92-1.055-.799-1.281.893-1.668-1.502-3.345-2.851-1.996-.653.653-.698 1.754-.102 2.468.217.259.553.784.747 1.166.342.674 2.032 2.501 2.866 3.098.225.161.635.466.91.677.905.696 2.106 1.453 3.102 1.956.54.272.981.534.981.582 0 .07-1.579 3.42-2.372 5.034-.345.701-1.286-.557-1.304-1.742-.022-1.507-.78-2.415-1.717-2.059-1.376.523-1.283 3.534.155 5.05.77.813.413.833-1.186.067-1.396-.669-1.742-1.072-2.848-3.325-.483-.984-1.095-1.476-1.953-1.573-1.478-.166-2.111 1.294-1.057 2.441.219.237.686.92 1.039 1.515 1.623 2.745 2.61 3.38 5.245 3.38h1.796l-1.046 2.019c-2.389 4.609-3.936 7.472-4.279 7.915-.168.219-.306.47-.306.558s-.144.361-.319.607-.522.82-.772 1.276-.631 1.129-.846 1.495c-.216.367-.517.905-.669 1.195-.242.462-.327.509-.68.375-.995-.378-1.718.004-2.421 1.281-.207.377-.701 1.224-1.097 1.883s-.985 1.757-1.31 2.44c-.324.682-.653 1.201-.733 1.152-.079-.049.051-.517.289-1.041.238-.523.577-1.326.754-1.785.176-.458.467-1.151.645-1.54.179-.388.325-.784.325-.88s.178-.528.396-.96c1.337-2.659 1.123-4.445-.531-4.445-.916 0-2.213 1.412-2.192 2.388.003.149-.353 1.345-.792 2.657l-.797 2.387-.196-1.387c-.107-.762-.25-3.61-.318-6.327l-.122-4.941 1.223.607 1.223.608 2.595.055c3.511.074 5.178-.763 5.178-2.599 0-1.546-2.289-2.531-3.017-1.299-.481.816-2.203 1.254-3.973 1.011l-.823-.113.946-.498c2.239-1.177 4.358-4.816 3.376-5.798-1.106-1.106-3.277.095-3.329 1.844-.007.239-.163.626-.347.859-.183.233-.334.487-.336.564-.009.431-1.864 1.557-2.564 1.557-.43 0 .381-10.361.978-12.5.141-.504.37-1.337.509-1.85.14-.514.392-1.227.562-1.584.169-.357.43-.913.58-1.235l.272-.585 1.541.002c2.949.004 6.864-3.352 6.569-5.632-.377-2.925-4.611-.995-4.611 2.102 0 .929-1.766 2.405-2.273 1.898-.099-.099.719-1.811.932-1.947.265-.171.841-1.665.841-2.182 0-1.086-.565-1.653-1.648-1.653-1.596 0-2.018.737-2.018 3.521 0 2.085-.084 2.097-1.584.227-.366-.458-.712-.869-.767-.915-.398-.33-1.15-2.341-1.152-3.081-.003-1.17-.119-1.487-.66-1.807-.817-.483-1.841-.368-2.555.285m-2.781 23.936c.218.949 1.322 3.146 1.765 3.514.654.543.627.85-.049.561-.349-.149-.797-.335-.997-.414-.806-.318-2.027-1.557-2.726-2.764-.621-1.073-.622-1.063.196-1.563.374-.229.839-.553 1.033-.72.402-.345.364-.413.778 1.386m-5.003 2.292c1.398 2.952 5.006 4.854 8.877 4.68l1.291-.057v3.2 3.201l-.503-.175c-1.801-.628-2.339.612-1.496 3.443.274.916.653 2.227.843 2.912.189.686.43 1.361.534 1.5.145.195.143.214-.008.082-.505-.441-2.009-3.292-2.605-4.939-.571-1.577-2.655-1.458-2.922.166l-.093.566-.886-1.06c-.488-.584-1.051-1.27-1.25-1.526-.654-.838-1.593-2.024-2.024-2.558-.233-.287-.423-.601-.423-.696s-.097-.273-.216-.394c-.974-.995-3.617-7.154-3.617-8.428 0-.345.078-.376.958-.386.527-.005 1.371-.147 1.875-.316.504-.168.965-.313 1.024-.323.059-.009.348.489.641 1.108m45.663 4.53c.112.268.346.617.521.775.175.159.318.355.318.435 0 .291 1.942 2.027 2.88 2.576.741.433 2.473 1.218 3.104 1.407l.648.194-.395 1.161c-.753 2.216-.703 8.622.09 11.369.404 1.4.442 1.356-.669.783s-4.06-1.503-6.742-2.126c-2.497-.58-2.457-.539-1.443-1.506 1.085-1.035 2.533-1.642 3.557-1.492 1.204.177 1.803-.31 1.803-1.466 0-1.598-1.263-2.037-3.187-1.107-.39.188-.801.342-.913.342-.219 0-1.836 1.205-2.211 1.647-.388.457-.097-1.401.331-2.117.764-1.28 1.729-2.399 2.297-2.668 1.713-.809 1.234-3.349-.632-3.358-1.086-.006-2.016 1.008-3.669 3.996l-.599 1.083v2.334c0 2.121.033 2.387.37 2.928l.37.595-1.87-.293c-7.03-1.104-16.882-.879-20.384.464-.67.258.529-1.297 1.913-2.481 1.59-1.36 4.347-3.393 5.711-4.213.153-.092.678-.415 1.167-.718s1.302-.803 1.806-1.113l.917-.562.122.446c.067.246.196.747.287 1.113.492 1.986 4.535 4.651 6.589 4.343 2.792-.419 2.116-3.002-.916-3.497-.544-.089-2.763-1.387-2.619-1.531.036-.036.652.085 1.369.268 2.815.72 4.251.163 4.251-1.651 0-1.308-1.314-2.034-2.214-1.223-.256.23-.588.285-1.583.261-2.266-.055-2.478-.267-.979-.98.472-.224 1.797-.896 2.943-1.493 2.482-1.292 6.925-3.346 7.354-3.4.058-.007.196.206.307.475m-33.02 16.936c2.761.82 2.283 4.606-.685 5.418-1.281.351-2.88-.865-2.971-2.259-.14-2.137.49-2.931 2.693-3.397.052-.011.485.096.963.238m-5.081 6.659c-.053.137-.163.25-.245.25s-.149.089-.149.198c0 .108-.143.352-.318.541-.371.401-1.256 1.919-1.609 2.761-.135.321-.355.808-.489 1.083-.371.76-1.094 2.888-1.33 3.917-.115.504-.366 1.442-.557 2.083-.192.642-.43 1.692-.531 2.334-.1.641-.366 1.967-.591 2.946-.224.979-.408 2.042-.408 2.362v.583l-.913-.321c-.624-.219-1.358-.32-2.326-.32h-1.414l.43-1.292c.237-.71.646-1.834.91-2.496.264-.663.48-1.279.48-1.371 0-.211 1.449-3.481 2.02-4.557.677-1.277 1.227-2.265 1.457-2.618.15-.23.348-.542.439-.693 1.143-1.89 3.571-4.665 4.666-5.333.605-.369.597-.368.478-.057m11.681 1.046c.483.139 4.086 2.016 4.259 2.218.088.104 1.832 1.271 2.383 1.596.181.106.374.26.431.342.056.082.384.36.727.618.789.592.782.66-.083.934-3.326 1.05-5.353 5.284-3.94 8.233.172.36.294.66.272.667-.522.164-1.815.976-2.222 1.396-.627.645-.499.858-1.229-2.05-.544-2.17-.947-3.477-1.669-5.417-.256-.687-.502-1.364-.548-1.503-.065-.198.06-.254.564-.254 1.48 0 2.12-2.093 1.17-3.826-.554-1.011-1.048-1.824-1.167-1.917-.058-.045-.362-.42-.676-.833-.313-.413-.644-.848-.736-.967-.095-.125.328-.028.986.226.635.243 1.299.485 1.478.537m-20.122 2.965c-.789.731-.802 1.764-.033 2.478l.407.376-.48.984c-1.07 2.194-1.469 3.152-2.282 5.484-.16.459-.49 1.379-.733 2.045l-.441 1.211-.32-.359c-.177-.198-.576-.467-.888-.599s-1.099-.781-1.75-1.443c-1.584-1.609-2.848-2.163-4.974-2.178-.801-.005-1.458-.024-1.458-.041s.084-.242.187-.5c.104-.258.235-1.141.292-1.962l.104-1.493 1.333-.469c.733-.258 1.633-.574 2-.701.367-.128 1.492-.532 2.5-.898 1.008-.365 2.096-.755 2.417-.867.32-.111 1.146-.41 1.833-.664 2.968-1.097 3.049-1.112 2.286-.404m-.944 17.587c-1.433 1.978-1.225 4.219.391 4.219 1.136 0 1.767-.768 1.767-2.151 0-.401.086-.783.192-.848.14-.087.162.081.08.615-.221 1.452-.437 8.451-.332 10.821l.106 2.421-.861.221c-.576.147-.928.166-1.065.055-.533-.432-2.874-.906-4.093-.828l-1.23.079.091-.768c.05-.422.175-1.592.277-2.601.102-1.008.38-2.808.617-4 .236-1.191.489-2.541.56-3 .072-.458.28-1.321.463-1.916.183-.596.384-1.402.445-1.792.062-.39.125-.713.14-.719.062-.024 2.545-.449 2.736-.468.115-.012-.013.285-.284.66" fill="#5cc4cb"/></g></svg>