<svg height="32.651" viewBox="0 0 118 32.651" width="118" xmlns="http://www.w3.org/2000/svg"><g fill="#333232"><path d="m748.53-341.785c-.336.08-.528.688-.384 1.248.08.288.272.432.784.576.88.256 1.072.416 1.072.88 0 .352-.064.384-.864.384-1.024 0-1.328.256-.5.416.736.128 1.632-.048 1.744-.352.16-.432.112-1.152-.1-1.3a6.785 6.785 0 0 0 -.928-.368c-.592-.192-.72-.3-.72-.64 0-.368.064-.4.848-.448.816-.048 1.072-.224.576-.416a3.557 3.557 0 0 0 -1.528.02z" transform="translate(-657.116 341.897)"/><path d="m768-341.68c0 .176.112.32.24.32s.24-.144.24-.32-.112-.32-.24-.32-.24.144-.24.32z" transform="translate(-673.835 342)"/><path d="m838.288-341.814a.354.354 0 0 0 -.288.3c0 .16.208.224.8.224.7 0 .8.048.8.336a3.054 3.054 0 0 1 -.8 1.168 3.071 3.071 0 0 0 -.8 1.184c0 .336.08.352 1.28.352 1.264 0 1.28 0 1.28-.4 0-.368-.048-.4-.832-.4h-.828l.752-.768c1.232-1.248.976-2.144-.576-2.1a4.155 4.155 0 0 0 -.788.104z" transform="translate(-732.638 341.926)"/><path d="m858.672-341.505q-.672.288-.672 1.728c0 .992.288 1.5.912 1.68 1.216.352 1.84-.272 1.824-1.824 0-.752-.08-1.072-.3-1.3a1.939 1.939 0 0 0 -1.764-.284zm1.248.784a2.429 2.429 0 0 1 -.048 1.84.609.609 0 0 1 -.608.224c-.352-.048-.384-.128-.432-.992a4.554 4.554 0 0 1 .032-1.152c.128-.337.864-.273 1.056.079z" transform="translate(-749.438 341.665)"/><path d="m879.688-341.728c-.512.208-.688.656-.688 1.728 0 1.184.3 1.616 1.216 1.744a1.1 1.1 0 0 0 1.072-.288c.416-.384.512-.8.448-2.032a1.387 1.387 0 0 0 -2.048-1.152zm1.36 1.28c.128 1.264-.3 1.952-.992 1.568-.384-.208-.368-2.128.032-2.352.412-.24.896.16.96.784z" transform="translate(-767.079 341.888)"/><path d="m901.672-341.764c-.464.192-.672.768-.672 1.856 0 .736.064.944.416 1.3a.953.953 0 0 0 1.04.32c.9-.112 1.1-.336 1.1-1.232 0-.928-.256-1.168-1.12-1.088-.528.048-.64.016-.64-.224 0-.32.576-.608 1.216-.608.208 0 .384-.064.384-.144.004-.34-1.052-.436-1.724-.18zm1.216 2.16c.064.528-.288.9-.768.768-.24-.064-.32-.224-.32-.592 0-.64.112-.768.64-.7.304.028.416.139.448.528z" transform="translate(-785.56 341.924)"/><path d="m768-334.64c0 1.1.048 1.36.24 1.36s.24-.256.24-1.36-.048-1.36-.24-1.36-.24.256-.24 1.36z" transform="translate(-673.835 336.96)"/><path d="m777-334.64c0 1.1.048 1.36.24 1.36s.24-.208.24-.928c0-1.04.176-1.312.832-1.312h.448v1.12c0 .9.048 1.12.24 1.12s.24-.24.24-1.184c0-1.5-.192-1.712-1.216-1.344-.576.208-.7.208-.7.032 0-.128-.064-.224-.16-.224s-.164.56-.164 1.36z" transform="translate(-681.395 336.96)"/><path d="m796.545-335.817c-.592.208-.864 1.408-.48 2.128a1.673 1.673 0 0 0 1.584.4c.576-.176.368-.4-.368-.4s-.9-.16-.9-.88.16-.88.9-.88c.384 0 .7-.064.7-.144.003-.288-.881-.432-1.436-.224z" transform="translate(-697.261 336.888)"/><path d="m812.686-335.865a1.062 1.062 0 0 0 -.432.336 2.378 2.378 0 0 0 -.048 1.792 1.608 1.608 0 0 0 1.6.4c.752-.16.56-.4-.3-.4-.56 0-.816-.064-.88-.256-.144-.384-.144-.384.592-.384.848 0 1.12-.176 1.12-.736-.005-.687-.805-1.056-1.652-.752zm1.2.688c0 .16-.208.256-.672.288-.736.048-.752.048-.592-.368.144-.336 1.263-.272 1.263.08z" transform="translate(-710.842 336.937)"/><path d="m694.593-304.709a5.019 5.019 0 0 0 -3.279 2.879 118.553 118.553 0 0 0 -2.128 12.685 2.874 2.874 0 0 0 1.664 2.351c.56.3.96.336 4.255.384a32.1 32.1 0 0 0 4.511-.128 5.063 5.063 0 0 0 3.6-3.167c.272-1.024 2.1-11.518 2.1-12.061a2.939 2.939 0 0 0 -2.432-2.991 46.136 46.136 0 0 0 -8.291.048zm6.687 2.911c.544.368.688.912.512 1.792-.08.416-.48 2.623-.88 4.911s-.832 4.4-.96 4.687c-.448.992-.96 1.152-3.839 1.152-2.016 0-2.639-.048-2.911-.24-.7-.5-.688-.816.208-6 .48-2.687.976-5.119 1.1-5.407.464-1.008.96-1.152 3.839-1.152 2.099.002 2.643.05 2.931.255z" transform="translate(-607.627 310.852)"/><path d="m184.709-303.86a4.775 4.775 0 0 0 -3.311 2.943c-.112.3-.624 3.007-1.168 6a40.7 40.7 0 0 0 -.88 6.191 3.088 3.088 0 0 0 1.584 2.272c.656.352.784.368 5.551.368h4.879l.192-1.12c.1-.624.192-1.248.192-1.392.016-.256-.352-.272-4.159-.32-4.159-.048-4.175-.048-4.479-.432a1.723 1.723 0 0 1 -.3-.912 100.8 100.8 0 0 1 1.856-9.95 2.4 2.4 0 0 1 .752-.672c.464-.288.832-.32 4.1-.32 3.471 0 3.615-.016 3.967-.352.208-.192.4-.32.432-.272.032.032.832 2.4 1.776 5.247l1.728 5.167-.432 2.352c-.592 3.359-.72 3.055 1.168 3.055h1.6l.16-.848c.1-.448.32-1.664.5-2.671l.32-1.84 1.5-2.24c.832-1.232 2.543-3.775 3.823-5.631 1.7-2.479 2.367-3.6 2.479-4.127l.16-.736-1.7.048-1.712.048-2.719 4.591a52.71 52.71 0 0 1 -2.9 4.607 12.73 12.73 0 0 1 -.864-2.847c-.368-1.552-.864-3.631-1.1-4.591l-.432-1.76-5.919-.032a46.685 46.685 0 0 0 -6.644.176z" transform="translate(-179.341 310.163)"/><path d="m351.451-303.841c0 .144-2.288 13.245-2.863 16.364l-.288 1.568 5.215-.048 5.215-.048 1.008-.464a5.069 5.069 0 0 0 2.655-2.8 18.593 18.593 0 0 0 .432-2.207c.192-1.44.192-1.472-.192-2.24a2.352 2.352 0 0 0 -1.248-1.2 9.594 9.594 0 0 1 -.928-.512c-.048-.032.24-.208.624-.384a4.82 4.82 0 0 0 1.36-1.024c.768-.848 1.072-1.888 1.072-3.823.016-1.024-.048-1.3-.368-1.76a3.6 3.6 0 0 0 -2.032-1.408 69.5 69.5 0 0 0 -9.662-.014zm8 2.959a1.184 1.184 0 0 1 .576.656 4.516 4.516 0 0 1 -.384 2.607c-.592.832-1.168.976-3.775.976h-2.368l.08-.368c.048-.192.176-.816.272-1.392s.24-1.424.336-1.888l.16-.832h2.32a7.638 7.638 0 0 1 2.782.241zm-.3 7.582c.528.544.576 1.024.24 2.463-.432 1.824-.88 2.032-4.463 2.032h-2.783l.384-2.288c.224-1.248.416-2.367.448-2.479.048-.144.768-.192 2.879-.192h2.831z" transform="translate(-321.273 310.08)"/><path d="m439.039-303.856c0 .08-.688 4.015-1.52 8.75s-1.52 8.75-1.52 8.894c0 .272.384.288 6.143.288h6.143l.192-1.088c.1-.592.224-1.232.272-1.44l.08-.352h-4.591c-3.631 0-4.575-.048-4.511-.208.032-.112.24-1.184.448-2.4l.384-2.191h3.311c1.84 0 3.327-.016 3.327-.048 0-.016.112-.64.24-1.392s.24-1.376.24-1.408c0-.016-1.472-.032-3.279-.032a19.855 19.855 0 0 1 -3.279-.128c0-.064.176-1.088.4-2.271s.4-2.176.4-2.208c0-.016 1.84-.032 4.079-.032h4.063l.56-.48a1.776 1.776 0 0 0 .656-1.168c.064-.368.144-.8.176-.96.08-.256-.288-.272-6.159-.272-3.583.002-6.255.066-6.255.146z" transform="translate(-394.944 310.079)"/><path d="m520.185-303.84c0 .16-1.728 9.982-2.639 15.069-.576 3.135-.688 2.847 1.184 2.847 1.376 0 1.6-.032 1.68-.288.032-.144.3-1.664.592-3.359l.528-3.071h3.7l1.136 3.311 1.146 3.331 1.68.048 1.7.048.1-.736c.112-.672.016-.928-1.12-3.439-.688-1.5-1.216-2.751-1.184-2.767.032-.032.448-.224.912-.432a5.22 5.22 0 0 0 2.4-2.415 29.3 29.3 0 0 0 .832-5.039 2.8 2.8 0 0 0 -.848-2.271c-.88-.9-1.488-.992-6.943-.992a27.174 27.174 0 0 0 -4.856.155zm8.686 3.039c.592.48.64.784.336 2.431-.288 1.664-.5 2.08-1.232 2.527-.448.288-.816.32-3.183.32-2.048 0-2.687-.048-2.687-.208 0-.1.224-1.344.48-2.751s.48-2.575.48-2.607c0-.016 1.216-.032 2.7-.032 2.466 0 2.735.032 3.106.321z" transform="translate(-463.132 310.079)"/><path d="m612.789-303.732a4.87 4.87 0 0 0 -3.439 2.991c-.384 1.12-2.144 11.47-2.064 12.141a2.984 2.984 0 0 0 1.52 2.256l.752.432 4.831.048c4.543.048 4.831.032 4.911-.24a21.637 21.637 0 0 0 .416-2.4c0-.16-.816-.208-4.079-.208h-4.1l-.384-.4a1.223 1.223 0 0 1 -.4-.944c0-.96 1.616-9.582 1.856-9.982a2.4 2.4 0 0 1 .752-.672c.464-.288.832-.32 4.111-.32l3.6-.016.5-.448a3.666 3.666 0 0 0 .864-2.256 77.579 77.579 0 0 0 -9.647.018z" transform="translate(-538.828 309.987)"/><path d="m778.5-295.734c-1.408 4.607-2.623 8.67-2.687 9.054l-.112.688 1.744-.048 1.728-.048 1.776-6.431a65.031 65.031 0 0 1 1.936-6.447 45.768 45.768 0 0 1 1.168 4.991c.544 2.751 1.04 5.135 1.072 5.295.08.256.272.272 1.632.24l1.552-.048 2.831-5.119c2.784-4.991 3.087-5.487 3.231-5.343.048.032-.128 2.8-.4 6.143-.256 3.343-.464 6.239-.464 6.447 0 .352.016.368 1.728.32l1.712-.048.112-.88c.112-.832.768-15 .768-16.444v-.672h-3.927l-3.119 5.6c-2.831 5.087-3.519 6.143-3.519 5.311 0-.144-.5-2.655-1.088-5.551l-1.1-5.279-1.984-.048-2-.048z" transform="translate(-680.303 310.163)"/><path d="m253.926-167.708c-.688.3-.928 1.072-.832 2.623.08 1.072.128 1.248.512 1.584.368.3.608.368 1.552.368.88 0 1.1-.048 1.1-.24s-.208-.24-.944-.24c-1.408 0-1.712-.432-1.584-2.272.1-1.264.464-1.616 1.632-1.536.48.032.816-.016.848-.128.147-.399-1.469-.511-2.284-.159z" transform="translate(-241.279 195.766)"/><path d="m282.864-167.479c-.624.272-.864.912-.864 2.288 0 1.68.48 2.288 1.824 2.288 1.312 0 1.712-.384 1.936-1.84a3.669 3.669 0 0 0 -.512-2.5 2.71 2.71 0 0 0 -2.384-.236zm1.776.656c.352.336.4.528.4 1.6 0 .992-.064 1.264-.32 1.52a1.531 1.531 0 0 1 -1.536.192c-.512-.336-.736-2.048-.384-2.991a1.1 1.1 0 0 1 1.839-.321z" transform="translate(-265.578 195.537)"/><path d="m316.744-167.732c-.048.208-.112 1.28-.144 2.4-.048 1.824-.016 2.048.224 2.048.32 0 .464-.88.464-2.815 0-1.44.16-1.712.448-.752.9 3.151.8 2.927 1.376 2.927h.528l.528-1.856c.336-1.184.576-1.776.656-1.632a12.166 12.166 0 0 1 .16 2.176c.016 1.792.048 1.952.32 1.952s.3-.128.3-1.424c0-.768-.048-1.856-.1-2.4l-.112-.992-.576.048-.56.048-.592 1.84a14.138 14.138 0 0 1 -.624 1.76c-.016-.048-.256-.88-.528-1.84l-.528-1.76-.576-.048c-.508-.048-.6 0-.664.32z" transform="translate(-294.628 195.918)"/><path d="m360-165.785c0 2.3.016 2.415.32 2.415.288 0 .32-.112.32-.96v-.96h.96c1.216 0 1.6-.32 1.6-1.344 0-1.168-.352-1.44-1.9-1.5l-1.3-.066zm2.415-1.568a1.565 1.565 0 0 1 -.048 1.392 1.835 1.835 0 0 1 -.96.192h-.768v-1.968l.816.08a1.88 1.88 0 0 1 .96.305z" transform="translate(-331.101 196.002)"/><path d="m390.079-165.9c.048 1.968.064 2.112.432 2.4a2.374 2.374 0 0 0 2.511-.08c.432-.368.448-.432.512-2.4.064-1.936.064-2.016-.256-2.016-.3 0-.32.128-.368 1.936-.064 2.16-.192 2.383-1.2 2.383-.912 0-1.024-.272-1.024-2.415 0-1.824-.016-1.9-.336-1.9s-.319.056-.271 2.092z" transform="translate(-356.349 195.834)"/><path d="m421-167.76c0 .176.192.24.8.24h.8v2.16c0 2.048.016 2.16.32 2.16s.32-.112.32-2.16v-2.16h.8c.608 0 .8-.064.8-.24 0-.208-.32-.24-1.92-.24s-1.92.032-1.92.24z" transform="translate(-382.343 195.834)"/><path d="m454.288-167.819c-.256.176-.288.5-.288 2.224 0 2.383-.016 2.351 1.744 2.351.88 0 1.136-.048 1.136-.24 0-.176-.256-.24-1.072-.272l-1.088-.048-.048-.848-.048-.832h1.024c.8 0 1.024-.048 1.024-.24s-.224-.24-1.024-.24h-1.024l.048-.768.048-.752 1.088-.048c.816-.032 1.072-.1 1.072-.272-.001-.319-2.192-.335-2.592-.015z" transform="translate(-410.064 195.877)"/><path d="m483-165.6c0 2.288.016 2.4.32 2.4.288 0 .32-.112.32-1.04v-1.04h.5c.784 0 1.056.256 1.344 1.2.192.688.32.88.56.88.272 0 .3-.08.224-.448a4.36 4.36 0 0 0 -.72-1.648c-.1-.048.016-.208.24-.368.336-.208.416-.384.416-.944a2.431 2.431 0 0 0 -.128-.864c-.208-.336-.976-.528-2.048-.528h-1.028zm2.256-1.76a1.1 1.1 0 0 1 .112 1.408 1.835 1.835 0 0 1 -.96.192h-.768v-1.76h.656a2.9 2.9 0 0 1 .96.16z" transform="translate(-434.425 195.834)"/><path d="m526-167.6c0 .368.064.4.72.4h.72v4h.96v-4h.72c.656 0 .72-.032.72-.4v-.4h-3.84z" transform="translate(-470.547 195.834)"/><path d="m558.32-167.68c-.288.288-.32.528-.32 2.08 0 2.288.1 2.4 1.92 2.4 1.248 0 1.28-.016 1.28-.4 0-.368-.048-.384-1.072-.432l-1.088-.048-.048-.608-.048-.592h.96c.928 0 .976-.016.976-.4s-.048-.4-.976-.4h-.96l.048-.528.048-.512 1.088-.048c1.024-.048 1.072-.064 1.072-.432 0-.384-.032-.4-1.28-.4-1.072 0-1.328.048-1.6.32z" transform="translate(-497.428 195.834)"/><path d="m587.761-167.552a3.338 3.338 0 0 0 0 3.919c.432.416.528.448 1.616.4 1.1-.048 1.168-.064 1.216-.448s.016-.4-.832-.352c-1.216.08-1.536-.256-1.536-1.568 0-1.248.3-1.6 1.424-1.6.64 0 .8-.064.864-.3.112-.464.016-.5-1.2-.5-1.013.001-1.152.049-1.552.449z" transform="translate(-521.894 195.834)"/><path d="m618-165.585v2.4l.528-.048.512-.048v-2h1.84v2.08h.96v-4.799h-.96v1.92h-1.84l.048-.96.064-.96h-1.152z" transform="translate(-547.83 195.834)"/><path d="m653.112-167.888a13.7 13.7 0 0 0 -.112 2.4v2.288h.96v-1.888l.016-1.872.912 1.84c.9 1.808.928 1.84 1.488 1.888.72.064.72.064.768-2.655l.032-2.112h-.96l-.048 1.792-.048 1.808-.928-1.808c-.88-1.744-.928-1.792-1.44-1.792a1.235 1.235 0 0 0 -.64.111z" transform="translate(-577.231 195.834)"/><path d="m688.878-167.664a2.856 2.856 0 0 0 -.7 2.463c.16 1.568.608 2 2.048 2 1.168 0 1.648-.3 1.9-1.2a5.224 5.224 0 0 0 -.192-2.943c-.272-.448-.832-.656-1.792-.656a1.813 1.813 0 0 0 -1.264.336zm2.032.656a2.623 2.623 0 0 1 .256 1.408c0 1.248-.272 1.76-.96 1.76s-.96-.512-.96-1.76.272-1.76.96-1.76a.85.85 0 0 1 .704.352z" transform="translate(-606.759 195.834)"/><path d="m723-165.92c0 2.543.1 2.719 1.568 2.719 1.328 0 1.6-.112 1.5-.576-.064-.352-.144-.384-1.008-.384h-.944l-.016-.608c0-.32 0-1.184.016-1.92l.016-1.312h-1.132z" transform="translate(-636.034 195.834)"/><path d="m750.268-167.72c-.5.24-.768 1.008-.768 2.208 0 1.232.272 1.968.816 2.224a4.255 4.255 0 0 0 2.367 0c1.136-.528 1.216-3.807.1-4.383a4.084 4.084 0 0 0 -2.515-.049zm1.936.8a3.452 3.452 0 0 1 -.064 2.847.843.843 0 0 1 -1.2.1 3.527 3.527 0 0 1 -.176-2.9.868.868 0 0 1 1.436-.047z" transform="translate(-658.295 195.745)"/><path d="m784.8-167.552c-.816.832-.816 3.391.016 4.063a1.806 1.806 0 0 0 1.84.048c.4-.3.544-.3.544 0 0 .144.144.24.4.24.4 0 .4-.016.4-1.36v-1.36h-.464c-.464 0-.48.032-.528.832s-.08.848-.592.992c-.784.224-1.136-.256-1.136-1.52s.3-1.584 1.5-1.584c.64 0 .88-.064.96-.256.176-.448-.064-.544-1.28-.544-1.119.001-1.247.033-1.66.449z" transform="translate(-687.433 195.834)"/><path d="m814.716-166.432a4.824 4.824 0 0 1 .8 2.4c0 .816.016.832.464.832.528 0 .656-.224.656-1.136a5.271 5.271 0 0 1 .72-2.064c.4-.784.72-1.472.72-1.52 0-.064-.224-.08-.512-.048-.464.048-.56.144-1.008 1.2l-.5 1.136-.528-1.184c-.512-1.136-.56-1.184-1.088-1.184h-.54z" transform="translate(-712.393 195.834)"/></g></svg>