<svg width="151" height="27" viewBox="0 0 151 27" fill="none" xmlns="http://www.w3.org/2000/svg">
<path d="M56.8533 0.00781264C54.2286 0.00818855 51.6629 0.787218 49.4807 2.24639C47.2985 3.70557 45.5978 5.77935 44.5937 8.20552C43.5895 10.6317 43.3269 13.3013 43.8392 15.8767C44.3515 18.4522 45.6156 20.8178 47.4717 22.6745C49.3278 24.5312 51.6925 25.7956 54.2668 26.3077C56.8411 26.8199 59.5095 26.5569 61.9343 25.5519C64.3592 24.5469 66.4318 22.8451 67.89 20.6616C69.3482 18.4782 70.1265 15.9112 70.1265 13.2853C70.1265 11.5415 69.7831 9.81479 69.1161 8.20377C68.449 6.59275 67.4713 5.12897 66.2387 3.89602C65.0062 2.66307 63.543 1.6851 61.9326 1.01795C60.3222 0.35081 58.5963 0.00756301 56.8533 0.00781264V0.00781264ZM56.8533 20.164C55.4935 20.1638 54.1643 19.7602 53.0338 19.0042C51.9032 18.2483 51.0221 17.1739 50.5019 15.917C49.9817 14.66 49.8456 13.277 50.111 11.9427C50.3764 10.6084 51.0313 9.38287 51.9929 8.42096C52.9545 7.45906 54.1796 6.80402 55.5133 6.53868C56.847 6.27334 58.2294 6.40962 59.4856 6.93028C60.7419 7.45094 61.8156 8.3326 62.5711 9.46377C63.3265 10.5949 63.7297 11.9248 63.7297 13.2853C63.7295 15.1097 63.0049 16.8593 61.7154 18.1493C60.4258 19.4393 58.6769 20.164 56.8533 20.164" fill="#0F0E5E"/>
<path d="M7.43875 7.13672L0 11.4333V15.1273L7.43875 19.422V15.728L3.19834 13.2817L7.43875 10.8298V7.13672Z" fill="#8754F0"/>
<path d="M32.422 16.7107C31.6666 18.0235 30.4992 19.0501 29.1009 19.6311C27.7026 20.2121 26.1518 20.315 24.689 19.9239C23.2263 19.5328 21.9336 18.6695 21.0115 17.468C20.0894 16.2666 19.5895 14.7942 19.5895 13.2794C19.5895 11.7646 20.0894 10.2922 21.0115 9.09075C21.9336 7.88929 23.2263 7.02599 24.689 6.63487C26.1518 6.24375 27.7026 6.34669 29.1009 6.92771C30.4992 7.50873 31.6666 8.53532 32.422 9.84812H39.2889C38.4567 6.73536 36.5216 4.0315 33.8443 2.24046C31.167 0.449417 27.9301 -0.306617 24.7369 0.113256C21.5437 0.533128 18.612 2.10026 16.4882 4.5226C14.3644 6.94493 13.1934 10.0572 13.1934 13.2794C13.1934 16.5016 14.3644 19.6139 16.4882 22.0362C18.612 24.4585 21.5437 26.0257 24.7369 26.4455C27.9301 26.8654 31.167 26.1094 33.8443 24.3183C36.5216 22.5273 38.4567 19.8234 39.2889 16.7107H32.422Z" fill="#0F0E5E"/>
<path d="M86.4381 0.659841V0.648438H74.416V25.8966H85.9746C86.1284 25.8966 86.2814 25.908 86.4381 25.908C88.0167 25.9088 89.58 25.5984 91.0387 24.9947C92.4974 24.391 93.823 23.5057 94.9397 22.3894C96.0564 21.2732 96.9424 19.9477 97.5471 18.4889C98.1518 17.03 98.4634 15.4663 98.464 13.8869V12.6866C98.4641 11.1068 98.1531 9.54245 97.5488 8.08293C96.9444 6.62341 96.0585 5.29732 94.9417 4.18045C93.8249 3.06357 92.4991 2.17779 91.04 1.57371C89.5809 0.969628 88.0172 0.659092 86.4381 0.659841V0.659841ZM91.7985 13.5942C91.798 15.2122 91.1551 16.7638 90.0113 17.9076C88.8674 19.0514 87.3163 19.6939 85.6991 19.6936H81.2221V6.87899H85.6991C87.3167 6.87924 88.8679 7.52223 90.0117 8.66657C91.1555 9.81091 91.7982 11.3629 91.7985 12.9812V13.5942Z" fill="#0F0E5E"/>
<path d="M118.241 0.648438L112.637 9.79944L107.032 0.648438H99.2031L109.413 16.7827V25.9109H115.863V16.7827L126.07 0.648438H118.241Z" fill="#0F0E5E"/>
<path d="M143.561 7.13672V10.8289L147.799 13.2808L143.561 15.727V19.4211L150.999 15.1264V11.4333L143.561 7.13672Z" fill="#8754F0"/>
<path d="M129.859 21.9199L140.816 4.63672H137.028L126.07 21.9199H129.859Z" fill="#35B9CF"/>
</svg>
